<?xml version="1.0" encoding="utf-8" standalone="no"?>
<!DOCTYPE svg PUBLIC "-//W3C//DTD SVG 1.1//EN"
  "http://www.w3.org/Graphics/SVG/1.1/DTD/svg11.dtd">
<svg xmlns:xlink="http://www.w3.org/1999/xlink" width="707.59375pt" height="580.6305pt" viewBox="0 0 707.59375 580.6305" xmlns="http://www.w3.org/2000/svg" version="1.1">
 <metadata>
  <rdf:RDF xmlns:dc="http://purl.org/dc/elements/1.1/" xmlns:cc="http://creativecommons.org/ns#" xmlns:rdf="http://www.w3.org/1999/02/22-rdf-syntax-ns#">
   <cc:Work>
    <dc:type rdf:resource="http://purl.org/dc/dcmitype/StillImage"/>
    <dc:date>2026-04-17T11:17:57.758304</dc:date>
    <dc:format>image/svg+xml</dc:format>
    <dc:creator>
     <cc:Agent>
      <dc:title>Matplotlib v3.10.8, https://matplotlib.org/</dc:title>
     </cc:Agent>
    </dc:creator>
   </cc:Work>
  </rdf:RDF>
 </metadata>
 <defs>
  <style type="text/css">*{stroke-linejoin: round; stroke-linecap: butt}</style>
 </defs>
 <g id="figure_1">
  <g id="patch_1">
   <path d="M 0 580.6305 
L 707.59375 580.6305 
L 707.59375 0 
L 0 0 
z
" style="fill: #f8f9fa"/>
  </g>
  <g id="axes_1">
   <g id="patch_2">
    <path d="M 575.955 313.553 
C 575.955 279.426199 569.232764 245.631239 556.173003 214.102186 
C 543.113242 182.573134 523.969935 153.92315 499.838643 129.791857 
C 475.70735 105.660565 447.057366 86.517258 415.528314 73.457497 
C 383.999261 60.397736 350.204301 53.6755 316.0775 53.6755 
C 281.950699 53.6755 248.155739 60.397736 216.626686 73.457497 
C 185.097634 86.517258 156.44765 105.660565 132.316357 129.791857 
C 108.185065 153.92315 89.041758 182.573134 75.981997 214.102186 
C 62.922236 245.631239 56.2 279.426199 56.2 313.553 
C 56.2 347.679801 62.922236 381.474761 75.981997 413.003814 
C 89.041758 444.532866 108.185065 473.18285 132.316357 497.314143 
C 156.44765 521.445435 185.097634 540.588742 216.626686 553.648503 
C 248.155739 566.708264 281.950699 573.4305 316.0775 573.4305 
C 350.204301 573.4305 383.999261 566.708264 415.528314 553.648503 
C 447.057366 540.588742 475.70735 521.445435 499.838643 497.314143 
C 523.969935 473.18285 543.113242 444.532866 556.173003 413.003814 
C 569.232764 381.474761 575.955 347.679801 575.955 313.553 
M 316.0775 313.553 
C 316.0775 313.553 316.0775 313.553 316.0775 313.553 
C 316.0775 313.553 316.0775 313.553 316.0775 313.553 
C 316.0775 313.553 316.0775 313.553 316.0775 313.553 
C 316.0775 313.553 316.0775 313.553 316.0775 313.553 
C 316.0775 313.553 316.0775 313.553 316.0775 313.553 
C 316.0775 313.553 316.0775 313.553 316.0775 313.553 
C 316.0775 313.553 316.0775 313.553 316.0775 313.553 
C 316.0775 313.553 316.0775 313.553 316.0775 313.553 
C 316.0775 313.553 316.0775 313.553 316.0775 313.553 
C 316.0775 313.553 316.0775 313.553 316.0775 313.553 
C 316.0775 313.553 316.0775 313.553 316.0775 313.553 
C 316.0775 313.553 316.0775 313.553 316.0775 313.553 
C 316.0775 313.553 316.0775 313.553 316.0775 313.553 
C 316.0775 313.553 316.0775 313.553 316.0775 313.553 
C 316.0775 313.553 316.0775 313.553 316.0775 313.553 
C 316.0775 313.553 316.0775 313.553 316.0775 313.553 
z
" style="fill: #f8f9fa"/>
   </g>
   <g id="patch_3">
    <path d="M 497.99175 313.553 
L 394.04075 178.51669 
L 244.611188 189.769716 
L 173.144875 313.553 
L 212.1265 493.601413 
L 413.531562 482.348388 
z
" clip-path="url(#paed21169ad)" style="fill: #3498db; opacity: 0.1; stroke: #3498db; stroke-linejoin: miter"/>
   </g>
   <g id="patch_4">
    <path d="M 484.997875 313.553 
L 413.531563 144.757612 
L 212.1265 133.504587 
L 108.1755 313.553 
L 225.120375 471.095362 
L 433.022375 516.107465 
z
" clip-path="url(#paed21169ad)" style="fill: #e74c3c; opacity: 0.1; stroke: #e74c3c; stroke-linejoin: miter"/>
   </g>
   <g id="patch_5">
    <path d="M 536.973375 313.553 
L 420.0285 133.504587 
L 205.629563 122.251561 
L 134.16325 313.553 
L 205.629562 504.854439 
L 420.0285 493.601413 
z
" clip-path="url(#paed21169ad)" style="fill: #2ecc71; opacity: 0.1; stroke: #2ecc71; stroke-linejoin: miter"/>
   </g>
   <g id="patch_6">
    <path d="M 549.96725 313.553 
L 413.531563 144.757612 
L 218.623438 144.757612 
L 160.151 313.553 
L 199.132625 516.107465 
L 426.525437 504.854439 
z
" clip-path="url(#paed21169ad)" style="fill: #9b59b6; opacity: 0.1; stroke: #9b59b6; stroke-linejoin: miter"/>
   </g>
   <g id="matplotlib.axis_1">
    <g id="xtick_1">
     <g id="line2d_1">
      <path d="M 316.0775 313.553 
L 575.955 313.553 
" clip-path="url(#paed21169ad)" style="fill: none; stroke: #b0b0b0; stroke-opacity: 0.3; stroke-width: 0.8; stroke-linecap: square"/>
     </g>
     <g id="text_1">
      <text style="font-size: 10px; font-family: 'SimHei', 'Microsoft YaHei', 'DejaVu Sans', sans-serif" transform="translate(574.955 306.107687)">Sample</text>
      <text style="font-size: 10px; font-family: 'SimHei', 'Microsoft YaHei', 'DejaVu Sans', sans-serif" transform="translate(564.955 315.701437)">Efficiency</text>
      <text style="font-size: 10px; font-family: 'SimHei', 'Microsoft YaHei', 'DejaVu Sans', sans-serif" transform="translate(569.955 326.701437)">采样效率</text>
     </g>
    </g>
    <g id="xtick_2">
     <g id="line2d_2">
      <path d="M 316.0775 313.553 
L 446.01625 88.492483 
" clip-path="url(#paed21169ad)" style="fill: none; stroke: #b0b0b0; stroke-opacity: 0.3; stroke-width: 0.8; stroke-linecap: square"/>
     </g>
     <g id="text_2">
      <text style="font-size: 10px; font-family: 'SimHei', 'Microsoft YaHei', 'DejaVu Sans', sans-serif" transform="translate(433.01625 68.954065)">Training</text>
      <text style="font-size: 10px; font-family: 'SimHei', 'Microsoft YaHei', 'DejaVu Sans', sans-serif" transform="translate(440.51625 78.547815)">Speed</text>
      <text style="font-size: 10px; font-family: 'SimHei', 'Microsoft YaHei', 'DejaVu Sans', sans-serif" transform="translate(433.01625 89.40719)">训练速度</text>
     </g>
    </g>
    <g id="xtick_3">
     <g id="line2d_3">
      <path d="M 316.0775 313.553 
L 186.13875 88.492483 
" clip-path="url(#paed21169ad)" style="fill: none; stroke: #b0b0b0; stroke-opacity: 0.3; stroke-width: 0.8; stroke-linecap: square"/>
     </g>
     <g id="text_3">
      <text style="font-size: 10px; font-family: 'SimHei', 'Microsoft YaHei', 'DejaVu Sans', sans-serif" transform="translate(164.13875 68.883752)">Memory</text>
      <text style="font-size: 10px; font-family: 'SimHei', 'Microsoft YaHei', 'DejaVu Sans', sans-serif" transform="translate(154.13875 78.477502)">Efficiency</text>
      <text style="font-size: 10px; font-family: 'SimHei', 'Microsoft YaHei', 'DejaVu Sans', sans-serif" transform="translate(159.13875 89.477502)">内存效率</text>
     </g>
    </g>
    <g id="xtick_4">
     <g id="line2d_4">
      <path d="M 316.0775 313.553 
L 56.2 313.553 
" clip-path="url(#paed21169ad)" style="fill: none; stroke: #b0b0b0; stroke-opacity: 0.3; stroke-width: 0.8; stroke-linecap: square"/>
     </g>
     <g id="text_4">
      <text style="font-size: 10px; font-family: 'SimHei', 'Microsoft YaHei', 'DejaVu Sans', sans-serif" transform="translate(7.2 306.138937)">Implementation</text>
      <text style="font-size: 10px; font-family: 'SimHei', 'Microsoft YaHei', 'DejaVu Sans', sans-serif" transform="translate(17.2 315.732687)">Simplicity</text>
      <text style="font-size: 10px; font-family: 'SimHei', 'Microsoft YaHei', 'DejaVu Sans', sans-serif" transform="translate(17.2 326.592062)">实现简单性</text>
     </g>
    </g>
    <g id="xtick_5">
     <g id="line2d_5">
      <path d="M 316.0775 313.553 
L 186.13875 538.613517 
" clip-path="url(#paed21169ad)" style="fill: none; stroke: #b0b0b0; stroke-opacity: 0.3; stroke-width: 0.8; stroke-linecap: square"/>
     </g>
     <g id="text_5">
      <text style="font-size: 10px; font-family: 'SimHei', 'Microsoft YaHei', 'DejaVu Sans', sans-serif" transform="translate(166.63875 543.440998)">Final</text>
      <text style="font-size: 10px; font-family: 'SimHei', 'Microsoft YaHei', 'DejaVu Sans', sans-serif" transform="translate(151.63875 552.940998)">Performance</text>
      <text style="font-size: 10px; font-family: 'SimHei', 'Microsoft YaHei', 'DejaVu Sans', sans-serif" transform="translate(159.13875 563.659748)">最终性能</text>
     </g>
    </g>
    <g id="xtick_6">
     <g id="line2d_6">
      <path d="M 316.0775 313.553 
L 446.01625 538.613517 
" clip-path="url(#paed21169ad)" style="fill: none; stroke: #b0b0b0; stroke-opacity: 0.3; stroke-width: 0.8; stroke-linecap: square"/>
     </g>
     <g id="text_6">
      <text style="font-size: 10px; font-family: 'SimHei', 'Microsoft YaHei', 'DejaVu Sans', sans-serif" transform="translate(430.51625 548.159748)">Stability</text>
      <text style="font-size: 10px; font-family: 'SimHei', 'Microsoft YaHei', 'DejaVu Sans', sans-serif" transform="translate(438.01625 559.019123)">稳定性</text>
     </g>
    </g>
   </g>
   <g id="matplotlib.axis_2">
    <g id="ytick_1">
     <g id="line2d_7">
      <path d="M 368.053 313.553 
C 368.053 306.72764 366.708553 299.968648 364.096601 293.662837 
C 361.484648 287.357027 357.655987 281.62703 352.829729 276.800771 
C 348.00347 271.974513 342.273473 268.145852 335.967663 265.533899 
C 329.661852 262.921947 322.90286 261.5775 316.0775 261.5775 
C 309.25214 261.5775 302.493148 262.921947 296.187337 265.533899 
C 289.881527 268.145852 284.15153 271.974513 279.325271 276.800771 
C 274.499013 281.62703 270.670352 287.357027 268.058399 293.662837 
C 265.446447 299.968648 264.102 306.72764 264.102 313.553 
C 264.102 320.37836 265.446447 327.137352 268.058399 333.443163 
C 270.670352 339.748973 274.499013 345.47897 279.325271 350.305229 
C 284.15153 355.131487 289.881527 358.960148 296.187337 361.572101 
C 302.493148 364.184053 309.25214 365.5285 316.0775 365.5285 
C 322.90286 365.5285 329.661852 364.184053 335.967663 361.572101 
C 342.273473 358.960148 348.00347 355.131487 352.829729 350.305229 
C 357.655987 345.47897 361.484648 339.748973 364.096601 333.443163 
C 366.708553 327.137352 368.053 320.37836 368.053 313.553 
" clip-path="url(#paed21169ad)" style="fill: none; stroke: #b0b0b0; stroke-opacity: 0.3; stroke-width: 0.8; stroke-linecap: square"/>
     </g>
     <g id="text_7">
      <text style="font-size: 8px; font-family: 'SimHei', 'Microsoft YaHei', 'DejaVu Sans', sans-serif; text-anchor: start" x="364.096601" y="292.662837" transform="rotate(-0 364.096601 292.662837)">20</text>
     </g>
    </g>
    <g id="ytick_2">
     <g id="line2d_8">
      <path d="M 420.0285 313.553 
C 420.0285 299.90228 417.339606 286.384296 412.115701 273.772675 
C 406.891797 261.161053 399.234474 249.70106 389.581957 240.048543 
C 379.92944 230.396026 368.469447 222.738703 355.857825 217.514799 
C 343.246204 212.290894 329.72822 209.602 316.0775 209.602 
C 302.42678 209.602 288.908796 212.290894 276.297175 217.514799 
C 263.685553 222.738703 252.22556 230.396026 242.573043 240.048543 
C 232.920526 249.70106 225.263203 261.161053 220.039299 273.772675 
C 214.815394 286.384296 212.1265 299.90228 212.1265 313.553 
C 212.1265 327.20372 214.815394 340.721704 220.039299 353.333325 
C 225.263203 365.944947 232.920526 377.40494 242.573043 387.057457 
C 252.22556 396.709974 263.685553 404.367297 276.297175 409.591201 
C 288.908796 414.815106 302.42678 417.504 316.0775 417.504 
C 329.72822 417.504 343.246204 414.815106 355.857825 409.591201 
C 368.469447 404.367297 379.92944 396.709974 389.581957 387.057457 
C 399.234474 377.40494 406.891797 365.944947 412.115701 353.333325 
C 417.339606 340.721704 420.0285 327.20372 420.0285 313.553 
" clip-path="url(#paed21169ad)" style="fill: none; stroke: #b0b0b0; stroke-opacity: 0.3; stroke-width: 0.8; stroke-linecap: square"/>
     </g>
     <g id="text_8">
      <text style="font-size: 8px; font-family: 'SimHei', 'Microsoft YaHei', 'DejaVu Sans', sans-serif; text-anchor: start" x="412.115701" y="272.772675" transform="rotate(-0 412.115701 272.772675)">40</text>
     </g>
    </g>
    <g id="ytick_3">
     <g id="line2d_9">
      <path d="M 472.004 313.553 
C 472.004 293.07692 467.970659 272.799943 460.134802 253.882512 
C 452.298945 234.96508 440.812961 217.77509 426.334186 203.296314 
C 411.85541 188.817539 394.66542 177.331555 375.747988 169.495698 
C 356.830557 161.659841 336.55358 157.6265 316.0775 157.6265 
C 295.60142 157.6265 275.324443 161.659841 256.407012 169.495698 
C 237.48958 177.331555 220.29959 188.817539 205.820814 203.296314 
C 191.342039 217.77509 179.856055 234.96508 172.020198 253.882512 
C 164.184341 272.799943 160.151 293.07692 160.151 313.553 
C 160.151 334.02908 164.184341 354.306057 172.020198 373.223488 
C 179.856055 392.14092 191.342039 409.33091 205.820814 423.809686 
C 220.29959 438.288461 237.48958 449.774445 256.407012 457.610302 
C 275.324443 465.446159 295.60142 469.4795 316.0775 469.4795 
C 336.55358 469.4795 356.830557 465.446159 375.747988 457.610302 
C 394.66542 449.774445 411.85541 438.288461 426.334186 423.809686 
C 440.812961 409.33091 452.298945 392.14092 460.134802 373.223488 
C 467.970659 354.306057 472.004 334.02908 472.004 313.553 
" clip-path="url(#paed21169ad)" style="fill: none; stroke: #b0b0b0; stroke-opacity: 0.3; stroke-width: 0.8; stroke-linecap: square"/>
     </g>
     <g id="text_9">
      <text style="font-size: 8px; font-family: 'SimHei', 'Microsoft YaHei', 'DejaVu Sans', sans-serif; text-anchor: start" x="460.134802" y="252.882512" transform="rotate(-0 460.134802 252.882512)">60</text>
     </g>
    </g>
    <g id="ytick_4">
     <g id="line2d_10">
      <path d="M 523.9795 313.553 
C 523.9795 286.25156 518.601712 259.215591 508.153903 233.992349 
C 497.706094 208.769107 482.391448 185.84912 463.086414 166.544086 
C 443.78138 147.239052 420.861393 131.924406 395.638151 121.476597 
C 370.414909 111.028788 343.37894 105.651 316.0775 105.651 
C 288.77606 105.651 261.740091 111.028788 236.516849 121.476597 
C 211.293607 131.924406 188.37362 147.239052 169.068586 166.544086 
C 149.763552 185.84912 134.448906 208.769107 124.001097 233.992349 
C 113.553288 259.215591 108.1755 286.25156 108.1755 313.553 
C 108.1755 340.85444 113.553288 367.890409 124.001097 393.113651 
C 134.448906 418.336893 149.763552 441.25688 169.068586 460.561914 
C 188.37362 479.866948 211.293607 495.181594 236.516849 505.629403 
C 261.740091 516.077212 288.77606 521.455 316.0775 521.455 
C 343.37894 521.455 370.414909 516.077212 395.638151 505.629403 
C 420.861393 495.181594 443.78138 479.866948 463.086414 460.561914 
C 482.391448 441.25688 497.706094 418.336893 508.153903 393.113651 
C 518.601712 367.890409 523.9795 340.85444 523.9795 313.553 
" clip-path="url(#paed21169ad)" style="fill: none; stroke: #b0b0b0; stroke-opacity: 0.3; stroke-width: 0.8; stroke-linecap: square"/>
     </g>
     <g id="text_10">
      <text style="font-size: 8px; font-family: 'SimHei', 'Microsoft YaHei', 'DejaVu Sans', sans-serif; text-anchor: start" x="508.153903" y="232.992349" transform="rotate(-0 508.153903 232.992349)">80</text>
     </g>
    </g>
    <g id="ytick_5">
     <g id="line2d_11">
      <path d="M 575.955 313.553 
C 575.955 279.426199 569.232764 245.631239 556.173003 214.102186 
C 543.113242 182.573134 523.969935 153.92315 499.838643 129.791857 
C 475.70735 105.660565 447.057366 86.517258 415.528314 73.457497 
C 383.999261 60.397736 350.204301 53.6755 316.0775 53.6755 
C 281.950699 53.6755 248.155739 60.397736 216.626686 73.457497 
C 185.097634 86.517258 156.44765 105.660565 132.316357 129.791857 
C 108.185065 153.92315 89.041758 182.573134 75.981997 214.102186 
C 62.922236 245.631239 56.2 279.426199 56.2 313.553 
C 56.2 347.679801 62.922236 381.474761 75.981997 413.003814 
C 89.041758 444.532866 108.185065 473.18285 132.316357 497.314143 
C 156.44765 521.445435 185.097634 540.588742 216.626686 553.648503 
C 248.155739 566.708264 281.950699 573.4305 316.0775 573.4305 
C 350.204301 573.4305 383.999261 566.708264 415.528314 553.648503 
C 447.057366 540.588742 475.70735 521.445435 499.838643 497.314143 
C 523.969935 473.18285 543.113242 444.532866 556.173003 413.003814 
C 569.232764 381.474761 575.955 347.679801 575.955 313.553 
" clip-path="url(#paed21169ad)" style="fill: none; stroke: #b0b0b0; stroke-opacity: 0.3; stroke-width: 0.8; stroke-linecap: square"/>
     </g>
     <g id="text_11">
      <text style="font-size: 8px; font-family: 'SimHei', 'Microsoft YaHei', 'DejaVu Sans', sans-serif; text-anchor: start" x="556.173003" y="213.102186" transform="rotate(-0 556.173003 213.102186)">100</text>
     </g>
    </g>
   </g>
   <g id="line2d_12">
    <path d="M 497.99175 313.553 
L 394.04075 178.51669 
L 244.611188 189.769716 
L 173.144875 313.553 
L 212.1265 493.601413 
L 413.531562 482.348388 
L 497.99175 313.553 
" clip-path="url(#paed21169ad)" style="fill: none; stroke: #3498db; stroke-width: 2.5; stroke-linecap: square"/>
    <defs>
     <path id="me1050d72d9" d="M 0 4 
C 1.060812 4 2.078319 3.578535 2.828427 2.828427 
C 3.578535 2.078319 4 1.060812 4 0 
C 4 -1.060812 3.578535 -2.078319 2.828427 -2.828427 
C 2.078319 -3.578535 1.060812 -4 0 -4 
C -1.060812 -4 -2.078319 -3.578535 -2.828427 -2.828427 
C -3.578535 -2.078319 -4 -1.060812 -4 0 
C -4 1.060812 -3.578535 2.078319 -2.828427 2.828427 
C -2.078319 3.578535 -1.060812 4 0 4 
z
" style="stroke: #3498db"/>
    </defs>
    <g clip-path="url(#paed21169ad)">
     <use xlink:href="#me1050d72d9" x="497.99175" y="313.553" style="fill: #3498db; stroke: #3498db"/>
     <use xlink:href="#me1050d72d9" x="394.04075" y="178.51669" style="fill: #3498db; stroke: #3498db"/>
     <use xlink:href="#me1050d72d9" x="244.611188" y="189.769716" style="fill: #3498db; stroke: #3498db"/>
     <use xlink:href="#me1050d72d9" x="173.144875" y="313.553" style="fill: #3498db; stroke: #3498db"/>
     <use xlink:href="#me1050d72d9" x="212.1265" y="493.601413" style="fill: #3498db; stroke: #3498db"/>
     <use xlink:href="#me1050d72d9" x="413.531562" y="482.348388" style="fill: #3498db; stroke: #3498db"/>
     <use xlink:href="#me1050d72d9" x="497.99175" y="313.553" style="fill: #3498db; stroke: #3498db"/>
    </g>
   </g>
   <g id="line2d_13">
    <path d="M 484.997875 313.553 
L 413.531563 144.757612 
L 212.1265 133.504587 
L 108.1755 313.553 
L 225.120375 471.095362 
L 433.022375 516.107465 
L 484.997875 313.553 
" clip-path="url(#paed21169ad)" style="fill: none; stroke: #e74c3c; stroke-width: 2.5; stroke-linecap: square"/>
    <defs>
     <path id="m86a70abd7a" d="M 0 4 
C 1.060812 4 2.078319 3.578535 2.828427 2.828427 
C 3.578535 2.078319 4 1.060812 4 0 
C 4 -1.060812 3.578535 -2.078319 2.828427 -2.828427 
C 2.078319 -3.578535 1.060812 -4 0 -4 
C -1.060812 -4 -2.078319 -3.578535 -2.828427 -2.828427 
C -3.578535 -2.078319 -4 -1.060812 -4 0 
C -4 1.060812 -3.578535 2.078319 -2.828427 2.828427 
C -2.078319 3.578535 -1.060812 4 0 4 
z
" style="stroke: #e74c3c"/>
    </defs>
    <g clip-path="url(#paed21169ad)">
     <use xlink:href="#m86a70abd7a" x="484.997875" y="313.553" style="fill: #e74c3c; stroke: #e74c3c"/>
     <use xlink:href="#m86a70abd7a" x="413.531563" y="144.757612" style="fill: #e74c3c; stroke: #e74c3c"/>
     <use xlink:href="#m86a70abd7a" x="212.1265" y="133.504587" style="fill: #e74c3c; stroke: #e74c3c"/>
     <use xlink:href="#m86a70abd7a" x="108.1755" y="313.553" style="fill: #e74c3c; stroke: #e74c3c"/>
     <use xlink:href="#m86a70abd7a" x="225.120375" y="471.095362" style="fill: #e74c3c; stroke: #e74c3c"/>
     <use xlink:href="#m86a70abd7a" x="433.022375" y="516.107465" style="fill: #e74c3c; stroke: #e74c3c"/>
     <use xlink:href="#m86a70abd7a" x="484.997875" y="313.553" style="fill: #e74c3c; stroke: #e74c3c"/>
    </g>
   </g>
   <g id="line2d_14">
    <path d="M 536.973375 313.553 
L 420.0285 133.504587 
L 205.629563 122.251561 
L 134.16325 313.553 
L 205.629562 504.854439 
L 420.0285 493.601413 
L 536.973375 313.553 
" clip-path="url(#paed21169ad)" style="fill: none; stroke: #2ecc71; stroke-width: 2.5; stroke-linecap: square"/>
    <defs>
     <path id="m7e35481e58" d="M 0 4 
C 1.060812 4 2.078319 3.578535 2.828427 2.828427 
C 3.578535 2.078319 4 1.060812 4 0 
C 4 -1.060812 3.578535 -2.078319 2.828427 -2.828427 
C 2.078319 -3.578535 1.060812 -4 0 -4 
C -1.060812 -4 -2.078319 -3.578535 -2.828427 -2.828427 
C -3.578535 -2.078319 -4 -1.060812 -4 0 
C -4 1.060812 -3.578535 2.078319 -2.828427 2.828427 
C -2.078319 3.578535 -1.060812 4 0 4 
z
" style="stroke: #2ecc71"/>
    </defs>
    <g clip-path="url(#paed21169ad)">
     <use xlink:href="#m7e35481e58" x="536.973375" y="313.553" style="fill: #2ecc71; stroke: #2ecc71"/>
     <use xlink:href="#m7e35481e58" x="420.0285" y="133.504587" style="fill: #2ecc71; stroke: #2ecc71"/>
     <use xlink:href="#m7e35481e58" x="205.629563" y="122.251561" style="fill: #2ecc71; stroke: #2ecc71"/>
     <use xlink:href="#m7e35481e58" x="134.16325" y="313.553" style="fill: #2ecc71; stroke: #2ecc71"/>
     <use xlink:href="#m7e35481e58" x="205.629562" y="504.854439" style="fill: #2ecc71; stroke: #2ecc71"/>
     <use xlink:href="#m7e35481e58" x="420.0285" y="493.601413" style="fill: #2ecc71; stroke: #2ecc71"/>
     <use xlink:href="#m7e35481e58" x="536.973375" y="313.553" style="fill: #2ecc71; stroke: #2ecc71"/>
    </g>
   </g>
   <g id="line2d_15">
    <path d="M 549.96725 313.553 
L 413.531563 144.757612 
L 218.623438 144.757612 
L 160.151 313.553 
L 199.132625 516.107465 
L 426.525437 504.854439 
L 549.96725 313.553 
" clip-path="url(#paed21169ad)" style="fill: none; stroke: #9b59b6; stroke-width: 2.5; stroke-linecap: square"/>
    <defs>
     <path id="m029f533e85" d="M 0 4 
C 1.060812 4 2.078319 3.578535 2.828427 2.828427 
C 3.578535 2.078319 4 1.060812 4 0 
C 4 -1.060812 3.578535 -2.078319 2.828427 -2.828427 
C 2.078319 -3.578535 1.060812 -4 0 -4 
C -1.060812 -4 -2.078319 -3.578535 -2.828427 -2.828427 
C -3.578535 -2.078319 -4 -1.060812 -4 0 
C -4 1.060812 -3.578535 2.078319 -2.828427 2.828427 
C -2.078319 3.578535 -1.060812 4 0 4 
z
" style="stroke: #9b59b6"/>
    </defs>
    <g clip-path="url(#paed21169ad)">
     <use xlink:href="#m029f533e85" x="549.96725" y="313.553" style="fill: #9b59b6; stroke: #9b59b6"/>
     <use xlink:href="#m029f533e85" x="413.531563" y="144.757612" style="fill: #9b59b6; stroke: #9b59b6"/>
     <use xlink:href="#m029f533e85" x="218.623438" y="144.757612" style="fill: #9b59b6; stroke: #9b59b6"/>
     <use xlink:href="#m029f533e85" x="160.151" y="313.553" style="fill: #9b59b6; stroke: #9b59b6"/>
     <use xlink:href="#m029f533e85" x="199.132625" y="516.107465" style="fill: #9b59b6; stroke: #9b59b6"/>
     <use xlink:href="#m029f533e85" x="426.525437" y="504.854439" style="fill: #9b59b6; stroke: #9b59b6"/>
     <use xlink:href="#m029f533e85" x="549.96725" y="313.553" style="fill: #9b59b6; stroke: #9b59b6"/>
    </g>
   </g>
   <g id="patch_7">
    <path d="M 575.955 313.553 
C 575.955 279.426199 569.232764 245.631239 556.173003 214.102186 
C 543.113242 182.573134 523.969935 153.92315 499.838643 129.791857 
C 475.70735 105.660565 447.057366 86.517258 415.528314 73.457497 
C 383.999261 60.397736 350.204301 53.6755 316.0775 53.6755 
C 281.950699 53.6755 248.155739 60.397736 216.626686 73.457497 
C 185.097634 86.517258 156.44765 105.660565 132.316357 129.791857 
C 108.185065 153.92315 89.041758 182.573134 75.981997 214.102186 
C 62.922236 245.631239 56.2 279.426199 56.2 313.553 
C 56.2 347.679801 62.922236 381.474761 75.981997 413.003814 
C 89.041758 444.532866 108.185065 473.18285 132.316357 497.314143 
C 156.44765 521.445435 185.097634 540.588742 216.626686 553.648503 
C 248.155739 566.708264 281.950699 573.4305 316.0775 573.4305 
C 350.204301 573.4305 383.999261 566.708264 415.528314 553.648503 
C 447.057366 540.588742 475.70735 521.445435 499.838643 497.314143 
C 523.969935 473.18285 543.113242 444.532866 556.173003 413.003814 
C 569.232764 381.474761 575.955 347.679801 575.955 313.553 
" style="fill: none; stroke: #000000; stroke-width: 0.8; stroke-linejoin: miter; stroke-linecap: square"/>
   </g>
   <g id="text_12">
    <text style="font-weight: 700; font-size: 14px; font-family: 'SimHei', 'Microsoft YaHei', 'DejaVu Sans', sans-serif; text-anchor: middle" x="316.0775" y="33.6755" transform="rotate(-0 316.0775 33.6755)">Algorithm Radar / 算法雷达图</text>
   </g>
   <g id="legend_1">
    <g id="patch_8">
     <path d="M 640.99375 68.8 
L 698.19375 68.8 
Q 700.39375 68.8 700.39375 66.6 
L 700.39375 9.4 
Q 700.39375 7.2 698.19375 7.2 
L 640.99375 7.2 
Q 638.79375 7.2 638.79375 9.4 
L 638.79375 66.6 
Q 638.79375 68.8 640.99375 68.8 
z
" style="fill: #ffffff; opacity: 0.8; stroke: #cccccc; stroke-linejoin: miter"/>
    </g>
    <g id="line2d_16">
     <path d="M 643.19375 15.45 
L 654.19375 15.45 
L 665.19375 15.45 
" style="fill: none; stroke: #3498db; stroke-width: 2.5; stroke-linecap: square"/>
     <g>
      <use xlink:href="#me1050d72d9" x="654.19375" y="15.45" style="fill: #3498db; stroke: #3498db"/>
     </g>
    </g>
    <g id="text_13">
     <text style="font-size: 11px; font-family: 'SimHei', 'Microsoft YaHei', 'DejaVu Sans', sans-serif; text-anchor: start" x="673.99375" y="19.3" transform="rotate(-0 673.99375 19.3)">PPO</text>
    </g>
    <g id="line2d_17">
     <path d="M 643.19375 30.025 
L 654.19375 30.025 
L 665.19375 30.025 
" style="fill: none; stroke: #e74c3c; stroke-width: 2.5; stroke-linecap: square"/>
     <g>
      <use xlink:href="#m86a70abd7a" x="654.19375" y="30.025" style="fill: #e74c3c; stroke: #e74c3c"/>
     </g>
    </g>
    <g id="text_14">
     <text style="font-size: 11px; font-family: 'SimHei', 'Microsoft YaHei', 'DejaVu Sans', sans-serif; text-anchor: start" x="673.99375" y="33.875" transform="rotate(-0 673.99375 33.875)">DPO</text>
    </g>
    <g id="line2d_18">
     <path d="M 643.19375 44.6 
L 654.19375 44.6 
L 665.19375 44.6 
" style="fill: none; stroke: #2ecc71; stroke-width: 2.5; stroke-linecap: square"/>
     <g>
      <use xlink:href="#m7e35481e58" x="654.19375" y="44.6" style="fill: #2ecc71; stroke: #2ecc71"/>
     </g>
    </g>
    <g id="text_15">
     <text style="font-size: 11px; font-family: 'SimHei', 'Microsoft YaHei', 'DejaVu Sans', sans-serif; text-anchor: start" x="673.99375" y="48.45" transform="rotate(-0 673.99375 48.45)">GRPO</text>
    </g>
    <g id="line2d_19">
     <path d="M 643.19375 59.175 
L 654.19375 59.175 
L 665.19375 59.175 
" style="fill: none; stroke: #9b59b6; stroke-width: 2.5; stroke-linecap: square"/>
     <g>
      <use xlink:href="#m029f533e85" x="654.19375" y="59.175" style="fill: #9b59b6; stroke: #9b59b6"/>
     </g>
    </g>
    <g id="text_16">
     <text style="font-size: 11px; font-family: 'SimHei', 'Microsoft YaHei', 'DejaVu Sans', sans-serif; text-anchor: start" x="673.99375" y="63.025" transform="rotate(-0 673.99375 63.025)">DAPO</text>
    </g>
   </g>
  </g>
 </g>
 <defs>
  <clipPath id="paed21169ad">
   <path d="M 575.955 313.553 
C 575.955 279.426199 569.232764 245.631239 556.173003 214.102186 
C 543.113242 182.573134 523.969935 153.92315 499.838643 129.791857 
C 475.70735 105.660565 447.057366 86.517258 415.528314 73.457497 
C 383.999261 60.397736 350.204301 53.6755 316.0775 53.6755 
C 281.950699 53.6755 248.155739 60.397736 216.626686 73.457497 
C 185.097634 86.517258 156.44765 105.660565 132.316357 129.791857 
C 108.185065 153.92315 89.041758 182.573134 75.981997 214.102186 
C 62.922236 245.631239 56.2 279.426199 56.2 313.553 
C 56.2 347.679801 62.922236 381.474761 75.981997 413.003814 
C 89.041758 444.532866 108.185065 473.18285 132.316357 497.314143 
C 156.44765 521.445435 185.097634 540.588742 216.626686 553.648503 
C 248.155739 566.708264 281.950699 573.4305 316.0775 573.4305 
C 350.204301 573.4305 383.999261 566.708264 415.528314 553.648503 
C 447.057366 540.588742 475.70735 521.445435 499.838643 497.314143 
C 523.969935 473.18285 543.113242 444.532866 556.173003 413.003814 
C 569.232764 381.474761 575.955 347.679801 575.955 313.553 
M 316.0775 313.553 
C 316.0775 313.553 316.0775 313.553 316.0775 313.553 
C 316.0775 313.553 316.0775 313.553 316.0775 313.553 
C 316.0775 313.553 316.0775 313.553 316.0775 313.553 
C 316.0775 313.553 316.0775 313.553 316.0775 313.553 
C 316.0775 313.553 316.0775 313.553 316.0775 313.553 
C 316.0775 313.553 316.0775 313.553 316.0775 313.553 
C 316.0775 313.553 316.0775 313.553 316.0775 313.553 
C 316.0775 313.553 316.0775 313.553 316.0775 313.553 
C 316.0775 313.553 316.0775 313.553 316.0775 313.553 
C 316.0775 313.553 316.0775 313.553 316.0775 313.553 
C 316.0775 313.553 316.0775 313.553 316.0775 313.553 
C 316.0775 313.553 316.0775 313.553 316.0775 313.553 
C 316.0775 313.553 316.0775 313.553 316.0775 313.553 
C 316.0775 313.553 316.0775 313.553 316.0775 313.553 
C 316.0775 313.553 316.0775 313.553 316.0775 313.553 
C 316.0775 313.553 316.0775 313.553 316.0775 313.553 
z
"/>
  </clipPath>
 </defs>
</svg>
