<?xml version="1.0" encoding="utf-8" standalone="no"?>
<!DOCTYPE svg PUBLIC "-//W3C//DTD SVG 1.1//EN"
  "http://www.w3.org/Graphics/SVG/1.1/DTD/svg11.dtd">
<svg xmlns:xlink="http://www.w3.org/1999/xlink" width="856.77375pt" height="496.34875pt" viewBox="0 0 856.77375 496.34875" xmlns="http://www.w3.org/2000/svg" version="1.1">
 <metadata>
  <rdf:RDF xmlns:dc="http://purl.org/dc/elements/1.1/" xmlns:cc="http://creativecommons.org/ns#" xmlns:rdf="http://www.w3.org/1999/02/22-rdf-syntax-ns#">
   <cc:Work>
    <dc:type rdf:resource="http://purl.org/dc/dcmitype/StillImage"/>
    <dc:date>2026-04-17T11:17:56.642491</dc:date>
    <dc:format>image/svg+xml</dc:format>
    <dc:creator>
     <cc:Agent>
      <dc:title>Matplotlib v3.10.8, https://matplotlib.org/</dc:title>
     </cc:Agent>
    </dc:creator>
   </cc:Work>
  </rdf:RDF>
 </metadata>
 <defs>
  <style type="text/css">*{stroke-linejoin: round; stroke-linecap: butt}</style>
 </defs>
 <g id="figure_1">
  <g id="patch_1">
   <path d="M -0 496.34875 
L 856.77375 496.34875 
L 856.77375 0 
L -0 0 
z
" style="fill: #f8f9fa"/>
  </g>
  <g id="axes_1">
   <g id="patch_2">
    <path d="M 44.2625 458.820625 
L 849.57375 458.820625 
L 849.57375 24.684375 
L 44.2625 24.684375 
z
" style="fill: #f8f9fa"/>
   </g>
   <g id="FillBetweenPolyCollection_1">
    <defs>
     <path id="mef77759872" d="M 80.867557 -74.69621 
L 80.867557 -443.898196 
L 84.546457 -432.451297 
L 88.225357 -438.253303 
L 91.904257 -445.183595 
L 95.583158 -420.289339 
L 99.262058 -416.713231 
L 102.940958 -435.134283 
L 106.619858 -421.818657 
L 110.298758 -403.399601 
L 113.977658 -412.249692 
L 117.656559 -396.711407 
L 121.335459 -393.365522 
L 125.014359 -398.656365 
L 128.693259 -369.328404 
L 132.372159 -368.412995 
L 136.05106 -379.332052 
L 139.72996 -370.760767 
L 143.40886 -383.748605 
L 147.08776 -365.911517 
L 150.76666 -356.804408 
L 154.44556 -388.680865 
L 158.124461 -365.275955 
L 161.803361 -365.935123 
L 165.482261 -345.013458 
L 169.161161 -352.851151 
L 172.840061 -357.999234 
L 176.518962 -339.971483 
L 180.197862 -355.737587 
L 183.876762 -341.235056 
L 187.555662 -342.325839 
L 191.234562 -335.956252 
L 194.913462 -363.080918 
L 198.592363 -337.941424 
L 202.271263 -322.779692 
L 205.950163 -343.053735 
L 209.629063 -315.857928 
L 213.307963 -330.738951 
L 216.986864 -302.088789 
L 220.665764 -307.366226 
L 224.344664 -323.490805 
L 228.023564 -327.738598 
L 231.702464 -318.592789 
L 235.381364 -312.866057 
L 239.060265 -308.396829 
L 242.739165 -291.94624 
L 246.418065 -298.961872 
L 250.096965 -299.957693 
L 253.775865 -316.216561 
L 257.454766 -305.489374 
L 261.133666 -277.922212 
L 264.812566 -301.151818 
L 268.491466 -290.554042 
L 272.170366 -285.03354 
L 275.849267 -298.670962 
L 279.528167 -301.809073 
L 283.207067 -298.687582 
L 286.885967 -275.362949 
L 290.564867 -279.912347 
L 294.243767 -285.822328 
L 297.922668 -291.801288 
L 301.601568 -272.391757 
L 305.280468 -274.169196 
L 308.959368 -261.269347 
L 312.638268 -258.449242 
L 316.317169 -281.056958 
L 319.996069 -285.94999 
L 323.674969 -266.990841 
L 327.353869 -278.364056 
L 331.032769 -268.965917 
L 334.711669 -255.170904 
L 338.39057 -265.769092 
L 342.06947 -278.446582 
L 345.74837 -257.845155 
L 349.42727 -275.692335 
L 353.10617 -223.525343 
L 356.785071 -263.700092 
L 360.463971 -253.331413 
L 364.142871 -247.20371 
L 367.821771 -250.498505 
L 371.500671 -223.907425 
L 375.179571 -243.909592 
L 378.858472 -249.509206 
L 382.537372 -261.711785 
L 386.216272 -236.196692 
L 389.895172 -231.350965 
L 393.574072 -233.748756 
L 397.252973 -249.605986 
L 400.931873 -241.220654 
L 404.610773 -229.560043 
L 408.289673 -240.935751 
L 411.968573 -234.661298 
L 415.647473 -243.992158 
L 419.326374 -222.560784 
L 423.005274 -225.902819 
L 426.684174 -223.946956 
L 430.363074 -209.815141 
L 434.041974 -229.971157 
L 437.720875 -228.414259 
L 441.399775 -224.197431 
L 445.078675 -220.191115 
L 448.757575 -204.805497 
L 452.436475 -215.770766 
L 456.115375 -215.650437 
L 459.794276 -209.036271 
L 463.473176 -215.758781 
L 467.152076 -221.578279 
L 470.830976 -238.509531 
L 474.509876 -216.788981 
L 478.188777 -216.806554 
L 481.867677 -211.812654 
L 485.546577 -188.522172 
L 489.225477 -210.47979 
L 492.904377 -210.591154 
L 496.583277 -238.755584 
L 500.262178 -205.690484 
L 503.941078 -210.765648 
L 507.619978 -205.8018 
L 511.298878 -191.191772 
L 514.977778 -218.304514 
L 518.656679 -212.712158 
L 522.335579 -212.336053 
L 526.014479 -190.911392 
L 529.693379 -218.074855 
L 533.372279 -183.302829 
L 537.051179 -206.570682 
L 540.73008 -225.186325 
L 544.40898 -185.888253 
L 548.08788 -190.245928 
L 551.76678 -197.539487 
L 555.44568 -189.478794 
L 559.124581 -176.051603 
L 562.803481 -194.914101 
L 566.482381 -180.492378 
L 570.161281 -198.364334 
L 573.840181 -180.786999 
L 577.519081 -209.977548 
L 581.197982 -181.035839 
L 584.876882 -185.93233 
L 588.555782 -199.001675 
L 592.234682 -173.581933 
L 595.913582 -190.575275 
L 599.592483 -202.992893 
L 603.271383 -167.062377 
L 606.950283 -188.12106 
L 610.629183 -188.402759 
L 614.308083 -194.100047 
L 617.986983 -169.046445 
L 621.665884 -167.429373 
L 625.344784 -189.13538 
L 629.023684 -185.820828 
L 632.702584 -184.674168 
L 636.381484 -185.259268 
L 640.060385 -172.26309 
L 643.739285 -182.745066 
L 647.418185 -182.926013 
L 651.097085 -170.181405 
L 654.775985 -200.87552 
L 658.454886 -183.489371 
L 662.133786 -162.802493 
L 665.812686 -184.651486 
L 669.491586 -164.388067 
L 673.170486 -185.2077 
L 676.849386 -189.202823 
L 680.528287 -164.744863 
L 684.207187 -185.853099 
L 687.886087 -178.703435 
L 691.564987 -183.180299 
L 695.243887 -195.719273 
L 698.922788 -169.319226 
L 702.601688 -162.704623 
L 706.280588 -160.606176 
L 709.959488 -161.049431 
L 713.638388 -169.548999 
L 717.317288 -174.174557 
L 720.996189 -172.961669 
L 724.675089 -179.19896 
L 728.353989 -168.920424 
L 732.032889 -185.943337 
L 735.711789 -164.731016 
L 739.39069 -200.45988 
L 743.06959 -174.701989 
L 746.74849 -156.354218 
L 750.42739 -153.375338 
L 754.10629 -171.794338 
L 757.78519 -162.866402 
L 761.464091 -173.838662 
L 765.142991 -170.55166 
L 768.821891 -163.573188 
L 772.500791 -153.840281 
L 776.179691 -145.394077 
L 779.858592 -157.973512 
L 783.537492 -173.397257 
L 787.216392 -165.275968 
L 790.895292 -147.261747 
L 794.574192 -164.102764 
L 798.253092 -166.3383 
L 801.931993 -150.644789 
L 805.610893 -162.881626 
L 809.289793 -161.404872 
L 812.968693 -146.546629 
L 812.968693 -74.69621 
L 812.968693 -74.69621 
L 809.289793 -74.69621 
L 805.610893 -74.69621 
L 801.931993 -74.69621 
L 798.253092 -74.69621 
L 794.574192 -74.69621 
L 790.895292 -74.69621 
L 787.216392 -74.69621 
L 783.537492 -74.69621 
L 779.858592 -74.69621 
L 776.179691 -74.69621 
L 772.500791 -74.69621 
L 768.821891 -74.69621 
L 765.142991 -74.69621 
L 761.464091 -74.69621 
L 757.78519 -74.69621 
L 754.10629 -74.69621 
L 750.42739 -74.69621 
L 746.74849 -74.69621 
L 743.06959 -74.69621 
L 739.39069 -74.69621 
L 735.711789 -74.69621 
L 732.032889 -74.69621 
L 728.353989 -74.69621 
L 724.675089 -74.69621 
L 720.996189 -74.69621 
L 717.317288 -74.69621 
L 713.638388 -74.69621 
L 709.959488 -74.69621 
L 706.280588 -74.69621 
L 702.601688 -74.69621 
L 698.922788 -74.69621 
L 695.243887 -74.69621 
L 691.564987 -74.69621 
L 687.886087 -74.69621 
L 684.207187 -74.69621 
L 680.528287 -74.69621 
L 676.849386 -74.69621 
L 673.170486 -74.69621 
L 669.491586 -74.69621 
L 665.812686 -74.69621 
L 662.133786 -74.69621 
L 658.454886 -74.69621 
L 654.775985 -74.69621 
L 651.097085 -74.69621 
L 647.418185 -74.69621 
L 643.739285 -74.69621 
L 640.060385 -74.69621 
L 636.381484 -74.69621 
L 632.702584 -74.69621 
L 629.023684 -74.69621 
L 625.344784 -74.69621 
L 621.665884 -74.69621 
L 617.986983 -74.69621 
L 614.308083 -74.69621 
L 610.629183 -74.69621 
L 606.950283 -74.69621 
L 603.271383 -74.69621 
L 599.592483 -74.69621 
L 595.913582 -74.69621 
L 592.234682 -74.69621 
L 588.555782 -74.69621 
L 584.876882 -74.69621 
L 581.197982 -74.69621 
L 577.519081 -74.69621 
L 573.840181 -74.69621 
L 570.161281 -74.69621 
L 566.482381 -74.69621 
L 562.803481 -74.69621 
L 559.124581 -74.69621 
L 555.44568 -74.69621 
L 551.76678 -74.69621 
L 548.08788 -74.69621 
L 544.40898 -74.69621 
L 540.73008 -74.69621 
L 537.051179 -74.69621 
L 533.372279 -74.69621 
L 529.693379 -74.69621 
L 526.014479 -74.69621 
L 522.335579 -74.69621 
L 518.656679 -74.69621 
L 514.977778 -74.69621 
L 511.298878 -74.69621 
L 507.619978 -74.69621 
L 503.941078 -74.69621 
L 500.262178 -74.69621 
L 496.583277 -74.69621 
L 492.904377 -74.69621 
L 489.225477 -74.69621 
L 485.546577 -74.69621 
L 481.867677 -74.69621 
L 478.188777 -74.69621 
L 474.509876 -74.69621 
L 470.830976 -74.69621 
L 467.152076 -74.69621 
L 463.473176 -74.69621 
L 459.794276 -74.69621 
L 456.115375 -74.69621 
L 452.436475 -74.69621 
L 448.757575 -74.69621 
L 445.078675 -74.69621 
L 441.399775 -74.69621 
L 437.720875 -74.69621 
L 434.041974 -74.69621 
L 430.363074 -74.69621 
L 426.684174 -74.69621 
L 423.005274 -74.69621 
L 419.326374 -74.69621 
L 415.647473 -74.69621 
L 411.968573 -74.69621 
L 408.289673 -74.69621 
L 404.610773 -74.69621 
L 400.931873 -74.69621 
L 397.252973 -74.69621 
L 393.574072 -74.69621 
L 389.895172 -74.69621 
L 386.216272 -74.69621 
L 382.537372 -74.69621 
L 378.858472 -74.69621 
L 375.179571 -74.69621 
L 371.500671 -74.69621 
L 367.821771 -74.69621 
L 364.142871 -74.69621 
L 360.463971 -74.69621 
L 356.785071 -74.69621 
L 353.10617 -74.69621 
L 349.42727 -74.69621 
L 345.74837 -74.69621 
L 342.06947 -74.69621 
L 338.39057 -74.69621 
L 334.711669 -74.69621 
L 331.032769 -74.69621 
L 327.353869 -74.69621 
L 323.674969 -74.69621 
L 319.996069 -74.69621 
L 316.317169 -74.69621 
L 312.638268 -74.69621 
L 308.959368 -74.69621 
L 305.280468 -74.69621 
L 301.601568 -74.69621 
L 297.922668 -74.69621 
L 294.243767 -74.69621 
L 290.564867 -74.69621 
L 286.885967 -74.69621 
L 283.207067 -74.69621 
L 279.528167 -74.69621 
L 275.849267 -74.69621 
L 272.170366 -74.69621 
L 268.491466 -74.69621 
L 264.812566 -74.69621 
L 261.133666 -74.69621 
L 257.454766 -74.69621 
L 253.775865 -74.69621 
L 250.096965 -74.69621 
L 246.418065 -74.69621 
L 242.739165 -74.69621 
L 239.060265 -74.69621 
L 235.381364 -74.69621 
L 231.702464 -74.69621 
L 228.023564 -74.69621 
L 224.344664 -74.69621 
L 220.665764 -74.69621 
L 216.986864 -74.69621 
L 213.307963 -74.69621 
L 209.629063 -74.69621 
L 205.950163 -74.69621 
L 202.271263 -74.69621 
L 198.592363 -74.69621 
L 194.913462 -74.69621 
L 191.234562 -74.69621 
L 187.555662 -74.69621 
L 183.876762 -74.69621 
L 180.197862 -74.69621 
L 176.518962 -74.69621 
L 172.840061 -74.69621 
L 169.161161 -74.69621 
L 165.482261 -74.69621 
L 161.803361 -74.69621 
L 158.124461 -74.69621 
L 154.44556 -74.69621 
L 150.76666 -74.69621 
L 147.08776 -74.69621 
L 143.40886 -74.69621 
L 139.72996 -74.69621 
L 136.05106 -74.69621 
L 132.372159 -74.69621 
L 128.693259 -74.69621 
L 125.014359 -74.69621 
L 121.335459 -74.69621 
L 117.656559 -74.69621 
L 113.977658 -74.69621 
L 110.298758 -74.69621 
L 106.619858 -74.69621 
L 102.940958 -74.69621 
L 99.262058 -74.69621 
L 95.583158 -74.69621 
L 91.904257 -74.69621 
L 88.225357 -74.69621 
L 84.546457 -74.69621 
L 80.867557 -74.69621 
z
" style="stroke: #3498db; stroke-opacity: 0.08"/>
    </defs>
    <g clip-path="url(#p100c44db1c)">
     <use xlink:href="#mef77759872" x="0" y="496.34875" style="fill: #3498db; fill-opacity: 0.08; stroke: #3498db; stroke-opacity: 0.08"/>
    </g>
   </g>
   <g id="FillBetweenPolyCollection_2">
    <defs>
     <path id="m00d9747d34" d="M 80.867557 -74.69621 
L 80.867557 -169.824842 
L 84.546457 -170.60434 
L 88.225357 -175.282235 
L 91.904257 -173.315889 
L 95.583158 -142.299475 
L 99.262058 -146.075327 
L 102.940958 -162.145715 
L 106.619858 -160.642299 
L 110.298758 -159.198753 
L 113.977658 -198.175777 
L 117.656559 -157.043247 
L 121.335459 -162.5055 
L 125.014359 -158.960774 
L 128.693259 -153.977288 
L 132.372159 -140.98076 
L 136.05106 -152.717561 
L 139.72996 -132.930092 
L 143.40886 -138.200632 
L 147.08776 -133.997294 
L 150.76666 -139.693705 
L 154.44556 -165.576886 
L 158.124461 -113.824488 
L 161.803361 -143.635647 
L 165.482261 -114.722861 
L 169.161161 -127.474198 
L 172.840061 -145.332344 
L 176.518962 -131.909603 
L 180.197862 -117.086291 
L 183.876762 -120.496229 
L 187.555662 -136.424793 
L 191.234562 -118.415825 
L 194.913462 -128.957434 
L 198.592363 -125.985935 
L 202.271263 -116.660948 
L 205.950163 -149.637314 
L 209.629063 -130.506391 
L 213.307963 -97.481735 
L 216.986864 -123.439171 
L 220.665764 -112.369506 
L 224.344664 -129.916321 
L 228.023564 -109.232809 
L 231.702464 -116.684267 
L 235.381364 -123.447757 
L 239.060265 -127.090888 
L 242.739165 -101.368589 
L 246.418065 -111.15413 
L 250.096965 -108.771632 
L 253.775865 -105.943332 
L 257.454766 -134.57033 
L 261.133666 -117.457547 
L 264.812566 -96.66031 
L 268.491466 -122.419516 
L 272.170366 -136.393954 
L 275.849267 -122.60873 
L 279.528167 -91.134112 
L 283.207067 -103.095908 
L 286.885967 -123.737203 
L 290.564867 -99.284851 
L 294.243767 -112.688436 
L 297.922668 -116.167329 
L 301.601568 -95.052073 
L 305.280468 -105.047712 
L 308.959368 -66.03322 
L 312.638268 -92.385803 
L 316.317169 -101.253688 
L 319.996069 -88.73877 
L 323.674969 -123.149912 
L 327.353869 -85.625504 
L 331.032769 -97.172513 
L 334.711669 -103.651913 
L 338.39057 -119.095439 
L 342.06947 -83.85021 
L 345.74837 -114.909157 
L 349.42727 -100.553872 
L 353.10617 -88.157859 
L 356.785071 -105.252656 
L 360.463971 -101.693751 
L 364.142871 -91.650471 
L 367.821771 -99.402172 
L 371.500671 -93.539793 
L 375.179571 -99.233148 
L 378.858472 -105.536028 
L 382.537372 -116.388776 
L 386.216272 -81.877144 
L 389.895172 -122.366547 
L 393.574072 -72.598153 
L 397.252973 -94.086584 
L 400.931873 -102.745994 
L 404.610773 -98.730894 
L 408.289673 -87.501848 
L 411.968573 -92.237857 
L 415.647473 -88.511655 
L 419.326374 -87.073161 
L 423.005274 -104.227204 
L 426.684174 -98.002584 
L 430.363074 -85.035836 
L 434.041974 -104.064231 
L 437.720875 -96.647659 
L 441.399775 -102.527004 
L 445.078675 -100.072363 
L 448.757575 -82.182157 
L 452.436475 -85.209398 
L 456.115375 -100.81546 
L 459.794276 -98.939633 
L 463.473176 -91.083401 
L 467.152076 -92.547202 
L 470.830976 -106.389094 
L 474.509876 -83.558164 
L 478.188777 -97.145786 
L 481.867677 -87.881144 
L 485.546577 -87.503947 
L 489.225477 -103.255434 
L 492.904377 -99.763802 
L 496.583277 -99.441014 
L 500.262178 -105.22183 
L 503.941078 -89.499969 
L 507.619978 -97.333371 
L 511.298878 -85.156366 
L 514.977778 -92.675354 
L 518.656679 -87.016912 
L 522.335579 -89.611418 
L 526.014479 -95.490071 
L 529.693379 -78.230099 
L 533.372279 -113.320496 
L 537.051179 -75.666955 
L 540.73008 -73.00625 
L 544.40898 -101.588247 
L 548.08788 -97.016905 
L 551.76678 -94.856242 
L 555.44568 -94.777678 
L 559.124581 -86.895332 
L 562.803481 -76.056541 
L 566.482381 -87.714506 
L 570.161281 -78.479133 
L 573.840181 -98.36475 
L 577.519081 -84.6643 
L 581.197982 -76.338139 
L 584.876882 -82.330515 
L 588.555782 -91.112019 
L 592.234682 -79.182135 
L 595.913582 -75.948606 
L 599.592483 -88.750748 
L 603.271383 -88.666215 
L 606.950283 -79.465339 
L 610.629183 -79.803914 
L 614.308083 -88.221506 
L 617.986983 -67.788986 
L 621.665884 -68.190247 
L 625.344784 -76.443005 
L 629.023684 -82.46969 
L 632.702584 -88.732446 
L 636.381484 -102.746051 
L 640.060385 -95.186148 
L 643.739285 -82.786544 
L 647.418185 -84.41391 
L 651.097085 -72.430096 
L 654.775985 -84.267284 
L 658.454886 -80.922727 
L 662.133786 -88.251605 
L 665.812686 -74.258794 
L 669.491586 -90.491065 
L 673.170486 -102.691084 
L 676.849386 -82.751578 
L 680.528287 -88.865778 
L 684.207187 -92.293205 
L 687.886087 -79.017691 
L 691.564987 -86.526018 
L 695.243887 -83.904871 
L 698.922788 -84.875454 
L 702.601688 -74.276393 
L 706.280588 -83.874266 
L 709.959488 -89.550447 
L 713.638388 -101.034606 
L 717.317288 -95.026046 
L 720.996189 -109.427143 
L 724.675089 -74.018671 
L 728.353989 -93.818293 
L 732.032889 -85.427651 
L 735.711789 -109.669758 
L 739.39069 -73.326161 
L 743.06959 -72.898962 
L 746.74849 -75.762606 
L 750.42739 -57.261591 
L 754.10629 -76.565089 
L 757.78519 -73.696572 
L 761.464091 -84.665235 
L 765.142991 -86.940434 
L 768.821891 -105.475835 
L 772.500791 -94.228616 
L 776.179691 -75.699279 
L 779.858592 -71.768677 
L 783.537492 -88.562919 
L 787.216392 -66.587685 
L 790.895292 -104.706907 
L 794.574192 -96.778029 
L 798.253092 -76.784759 
L 801.931993 -61.691069 
L 805.610893 -98.787842 
L 809.289793 -80.978186 
L 812.968693 -97.31821 
L 812.968693 -74.69621 
L 812.968693 -74.69621 
L 809.289793 -74.69621 
L 805.610893 -74.69621 
L 801.931993 -74.69621 
L 798.253092 -74.69621 
L 794.574192 -74.69621 
L 790.895292 -74.69621 
L 787.216392 -74.69621 
L 783.537492 -74.69621 
L 779.858592 -74.69621 
L 776.179691 -74.69621 
L 772.500791 -74.69621 
L 768.821891 -74.69621 
L 765.142991 -74.69621 
L 761.464091 -74.69621 
L 757.78519 -74.69621 
L 754.10629 -74.69621 
L 750.42739 -74.69621 
L 746.74849 -74.69621 
L 743.06959 -74.69621 
L 739.39069 -74.69621 
L 735.711789 -74.69621 
L 732.032889 -74.69621 
L 728.353989 -74.69621 
L 724.675089 -74.69621 
L 720.996189 -74.69621 
L 717.317288 -74.69621 
L 713.638388 -74.69621 
L 709.959488 -74.69621 
L 706.280588 -74.69621 
L 702.601688 -74.69621 
L 698.922788 -74.69621 
L 695.243887 -74.69621 
L 691.564987 -74.69621 
L 687.886087 -74.69621 
L 684.207187 -74.69621 
L 680.528287 -74.69621 
L 676.849386 -74.69621 
L 673.170486 -74.69621 
L 669.491586 -74.69621 
L 665.812686 -74.69621 
L 662.133786 -74.69621 
L 658.454886 -74.69621 
L 654.775985 -74.69621 
L 651.097085 -74.69621 
L 647.418185 -74.69621 
L 643.739285 -74.69621 
L 640.060385 -74.69621 
L 636.381484 -74.69621 
L 632.702584 -74.69621 
L 629.023684 -74.69621 
L 625.344784 -74.69621 
L 621.665884 -74.69621 
L 617.986983 -74.69621 
L 614.308083 -74.69621 
L 610.629183 -74.69621 
L 606.950283 -74.69621 
L 603.271383 -74.69621 
L 599.592483 -74.69621 
L 595.913582 -74.69621 
L 592.234682 -74.69621 
L 588.555782 -74.69621 
L 584.876882 -74.69621 
L 581.197982 -74.69621 
L 577.519081 -74.69621 
L 573.840181 -74.69621 
L 570.161281 -74.69621 
L 566.482381 -74.69621 
L 562.803481 -74.69621 
L 559.124581 -74.69621 
L 555.44568 -74.69621 
L 551.76678 -74.69621 
L 548.08788 -74.69621 
L 544.40898 -74.69621 
L 540.73008 -74.69621 
L 537.051179 -74.69621 
L 533.372279 -74.69621 
L 529.693379 -74.69621 
L 526.014479 -74.69621 
L 522.335579 -74.69621 
L 518.656679 -74.69621 
L 514.977778 -74.69621 
L 511.298878 -74.69621 
L 507.619978 -74.69621 
L 503.941078 -74.69621 
L 500.262178 -74.69621 
L 496.583277 -74.69621 
L 492.904377 -74.69621 
L 489.225477 -74.69621 
L 485.546577 -74.69621 
L 481.867677 -74.69621 
L 478.188777 -74.69621 
L 474.509876 -74.69621 
L 470.830976 -74.69621 
L 467.152076 -74.69621 
L 463.473176 -74.69621 
L 459.794276 -74.69621 
L 456.115375 -74.69621 
L 452.436475 -74.69621 
L 448.757575 -74.69621 
L 445.078675 -74.69621 
L 441.399775 -74.69621 
L 437.720875 -74.69621 
L 434.041974 -74.69621 
L 430.363074 -74.69621 
L 426.684174 -74.69621 
L 423.005274 -74.69621 
L 419.326374 -74.69621 
L 415.647473 -74.69621 
L 411.968573 -74.69621 
L 408.289673 -74.69621 
L 404.610773 -74.69621 
L 400.931873 -74.69621 
L 397.252973 -74.69621 
L 393.574072 -74.69621 
L 389.895172 -74.69621 
L 386.216272 -74.69621 
L 382.537372 -74.69621 
L 378.858472 -74.69621 
L 375.179571 -74.69621 
L 371.500671 -74.69621 
L 367.821771 -74.69621 
L 364.142871 -74.69621 
L 360.463971 -74.69621 
L 356.785071 -74.69621 
L 353.10617 -74.69621 
L 349.42727 -74.69621 
L 345.74837 -74.69621 
L 342.06947 -74.69621 
L 338.39057 -74.69621 
L 334.711669 -74.69621 
L 331.032769 -74.69621 
L 327.353869 -74.69621 
L 323.674969 -74.69621 
L 319.996069 -74.69621 
L 316.317169 -74.69621 
L 312.638268 -74.69621 
L 308.959368 -74.69621 
L 305.280468 -74.69621 
L 301.601568 -74.69621 
L 297.922668 -74.69621 
L 294.243767 -74.69621 
L 290.564867 -74.69621 
L 286.885967 -74.69621 
L 283.207067 -74.69621 
L 279.528167 -74.69621 
L 275.849267 -74.69621 
L 272.170366 -74.69621 
L 268.491466 -74.69621 
L 264.812566 -74.69621 
L 261.133666 -74.69621 
L 257.454766 -74.69621 
L 253.775865 -74.69621 
L 250.096965 -74.69621 
L 246.418065 -74.69621 
L 242.739165 -74.69621 
L 239.060265 -74.69621 
L 235.381364 -74.69621 
L 231.702464 -74.69621 
L 228.023564 -74.69621 
L 224.344664 -74.69621 
L 220.665764 -74.69621 
L 216.986864 -74.69621 
L 213.307963 -74.69621 
L 209.629063 -74.69621 
L 205.950163 -74.69621 
L 202.271263 -74.69621 
L 198.592363 -74.69621 
L 194.913462 -74.69621 
L 191.234562 -74.69621 
L 187.555662 -74.69621 
L 183.876762 -74.69621 
L 180.197862 -74.69621 
L 176.518962 -74.69621 
L 172.840061 -74.69621 
L 169.161161 -74.69621 
L 165.482261 -74.69621 
L 161.803361 -74.69621 
L 158.124461 -74.69621 
L 154.44556 -74.69621 
L 150.76666 -74.69621 
L 147.08776 -74.69621 
L 143.40886 -74.69621 
L 139.72996 -74.69621 
L 136.05106 -74.69621 
L 132.372159 -74.69621 
L 128.693259 -74.69621 
L 125.014359 -74.69621 
L 121.335459 -74.69621 
L 117.656559 -74.69621 
L 113.977658 -74.69621 
L 110.298758 -74.69621 
L 106.619858 -74.69621 
L 102.940958 -74.69621 
L 99.262058 -74.69621 
L 95.583158 -74.69621 
L 91.904257 -74.69621 
L 88.225357 -74.69621 
L 84.546457 -74.69621 
L 80.867557 -74.69621 
z
" style="stroke: #e74c3c; stroke-opacity: 0.08"/>
    </defs>
    <g clip-path="url(#p100c44db1c)">
     <use xlink:href="#m00d9747d34" x="0" y="496.34875" style="fill: #e74c3c; fill-opacity: 0.08; stroke: #e74c3c; stroke-opacity: 0.08"/>
    </g>
   </g>
   <g id="FillBetweenPolyCollection_3">
    <defs>
     <path id="m45b93efd1d" d="M 80.867557 -74.69621 
L 80.867557 -442.794807 
L 84.546457 -449.689676 
L 88.225357 -451.930909 
L 91.904257 -447.429767 
L 95.583158 -436.476975 
L 99.262058 -444.600593 
L 102.940958 -419.33888 
L 106.619858 -425.811753 
L 110.298758 -424.330481 
L 113.977658 -424.506916 
L 117.656559 -422.363989 
L 121.335459 -395.667991 
L 125.014359 -386.308405 
L 128.693259 -416.008799 
L 132.372159 -400.285568 
L 136.05106 -382.983374 
L 139.72996 -406.665572 
L 143.40886 -385.18836 
L 147.08776 -394.024109 
L 150.76666 -376.58114 
L 154.44556 -396.784794 
L 158.124461 -389.216194 
L 161.803361 -361.135159 
L 165.482261 -372.149096 
L 169.161161 -364.491237 
L 172.840061 -369.590936 
L 176.518962 -337.735868 
L 180.197862 -354.16979 
L 183.876762 -355.17499 
L 187.555662 -317.616423 
L 191.234562 -321.179171 
L 194.913462 -307.460603 
L 198.592363 -325.578314 
L 202.271263 -334.265225 
L 205.950163 -340.5513 
L 209.629063 -320.090832 
L 213.307963 -335.785749 
L 216.986864 -296.281118 
L 220.665764 -289.330838 
L 224.344664 -306.286522 
L 228.023564 -308.657588 
L 231.702464 -300.70301 
L 235.381364 -273.201878 
L 239.060265 -294.324797 
L 242.739165 -276.824312 
L 246.418065 -297.976261 
L 250.096965 -291.598547 
L 253.775865 -273.111757 
L 257.454766 -275.636875 
L 261.133666 -266.439774 
L 264.812566 -275.945934 
L 268.491466 -285.746087 
L 272.170366 -259.763262 
L 275.849267 -275.348025 
L 279.528167 -260.410353 
L 283.207067 -254.84924 
L 286.885967 -260.804212 
L 290.564867 -247.252282 
L 294.243767 -250.800689 
L 297.922668 -240.751942 
L 301.601568 -276.821701 
L 305.280468 -251.276917 
L 308.959368 -240.22377 
L 312.638268 -249.160762 
L 316.317169 -243.11593 
L 319.996069 -239.735939 
L 323.674969 -247.81088 
L 327.353869 -247.53962 
L 331.032769 -229.968488 
L 334.711669 -227.469799 
L 338.39057 -229.188557 
L 342.06947 -202.755553 
L 345.74837 -210.411675 
L 349.42727 -243.461026 
L 353.10617 -245.01207 
L 356.785071 -220.292834 
L 360.463971 -228.523206 
L 364.142871 -223.571859 
L 367.821771 -255.362797 
L 371.500671 -229.952406 
L 375.179571 -213.183411 
L 378.858472 -201.521116 
L 382.537372 -192.02151 
L 386.216272 -212.336219 
L 389.895172 -199.142496 
L 393.574072 -189.529274 
L 397.252973 -197.390288 
L 400.931873 -190.616449 
L 404.610773 -222.648485 
L 408.289673 -211.431416 
L 411.968573 -199.216867 
L 415.647473 -215.80586 
L 419.326374 -197.42192 
L 423.005274 -184.674283 
L 426.684174 -212.176206 
L 430.363074 -198.915972 
L 434.041974 -178.508594 
L 437.720875 -187.45433 
L 441.399775 -177.86951 
L 445.078675 -170.459075 
L 448.757575 -197.159886 
L 452.436475 -207.828693 
L 456.115375 -166.564229 
L 459.794276 -189.111363 
L 463.473176 -173.236254 
L 467.152076 -174.04984 
L 470.830976 -171.625969 
L 474.509876 -167.204783 
L 478.188777 -177.134837 
L 481.867677 -165.38646 
L 485.546577 -177.634791 
L 489.225477 -172.682146 
L 492.904377 -169.342529 
L 496.583277 -160.208002 
L 500.262178 -163.187346 
L 503.941078 -178.30411 
L 507.619978 -174.226932 
L 511.298878 -155.345812 
L 514.977778 -167.414547 
L 518.656679 -174.353871 
L 522.335579 -144.105964 
L 526.014479 -169.966588 
L 529.693379 -154.452009 
L 533.372279 -168.480137 
L 537.051179 -151.443241 
L 540.73008 -137.956832 
L 544.40898 -139.239964 
L 548.08788 -158.674049 
L 551.76678 -160.396731 
L 555.44568 -145.476983 
L 559.124581 -163.340067 
L 562.803481 -134.689997 
L 566.482381 -153.212017 
L 570.161281 -138.569496 
L 573.840181 -144.568584 
L 577.519081 -152.274144 
L 581.197982 -140.535107 
L 584.876882 -145.557796 
L 588.555782 -161.668094 
L 592.234682 -141.784216 
L 595.913582 -158.178149 
L 599.592483 -133.687281 
L 603.271383 -153.090505 
L 606.950283 -163.451041 
L 610.629183 -115.408624 
L 614.308083 -135.025159 
L 617.986983 -151.009681 
L 621.665884 -140.925441 
L 625.344784 -147.245928 
L 629.023684 -134.818821 
L 632.702584 -142.566052 
L 636.381484 -139.028725 
L 640.060385 -154.455104 
L 643.739285 -142.810341 
L 647.418185 -143.238346 
L 651.097085 -133.594125 
L 654.775985 -132.114616 
L 658.454886 -132.226316 
L 662.133786 -141.691482 
L 665.812686 -131.28047 
L 669.491586 -139.353671 
L 673.170486 -160.447055 
L 676.849386 -145.351256 
L 680.528287 -130.349076 
L 684.207187 -148.336313 
L 687.886087 -128.358976 
L 691.564987 -108.137333 
L 695.243887 -120.126391 
L 698.922788 -109.208169 
L 702.601688 -127.133654 
L 706.280588 -131.151449 
L 709.959488 -150.76973 
L 713.638388 -133.984445 
L 717.317288 -126.932695 
L 720.996189 -139.191092 
L 724.675089 -101.952483 
L 728.353989 -131.150677 
L 732.032889 -137.21371 
L 735.711789 -109.570253 
L 739.39069 -140.911935 
L 743.06959 -130.763878 
L 746.74849 -121.244636 
L 750.42739 -133.544743 
L 754.10629 -152.991142 
L 757.78519 -127.326012 
L 761.464091 -127.757471 
L 765.142991 -118.824716 
L 768.821891 -113.73604 
L 772.500791 -133.720539 
L 776.179691 -112.953066 
L 779.858592 -123.837253 
L 783.537492 -116.846893 
L 787.216392 -128.09176 
L 790.895292 -126.000815 
L 794.574192 -134.195181 
L 798.253092 -115.137675 
L 801.931993 -117.727124 
L 805.610893 -108.831849 
L 809.289793 -114.99348 
L 812.968693 -124.63549 
L 812.968693 -74.69621 
L 812.968693 -74.69621 
L 809.289793 -74.69621 
L 805.610893 -74.69621 
L 801.931993 -74.69621 
L 798.253092 -74.69621 
L 794.574192 -74.69621 
L 790.895292 -74.69621 
L 787.216392 -74.69621 
L 783.537492 -74.69621 
L 779.858592 -74.69621 
L 776.179691 -74.69621 
L 772.500791 -74.69621 
L 768.821891 -74.69621 
L 765.142991 -74.69621 
L 761.464091 -74.69621 
L 757.78519 -74.69621 
L 754.10629 -74.69621 
L 750.42739 -74.69621 
L 746.74849 -74.69621 
L 743.06959 -74.69621 
L 739.39069 -74.69621 
L 735.711789 -74.69621 
L 732.032889 -74.69621 
L 728.353989 -74.69621 
L 724.675089 -74.69621 
L 720.996189 -74.69621 
L 717.317288 -74.69621 
L 713.638388 -74.69621 
L 709.959488 -74.69621 
L 706.280588 -74.69621 
L 702.601688 -74.69621 
L 698.922788 -74.69621 
L 695.243887 -74.69621 
L 691.564987 -74.69621 
L 687.886087 -74.69621 
L 684.207187 -74.69621 
L 680.528287 -74.69621 
L 676.849386 -74.69621 
L 673.170486 -74.69621 
L 669.491586 -74.69621 
L 665.812686 -74.69621 
L 662.133786 -74.69621 
L 658.454886 -74.69621 
L 654.775985 -74.69621 
L 651.097085 -74.69621 
L 647.418185 -74.69621 
L 643.739285 -74.69621 
L 640.060385 -74.69621 
L 636.381484 -74.69621 
L 632.702584 -74.69621 
L 629.023684 -74.69621 
L 625.344784 -74.69621 
L 621.665884 -74.69621 
L 617.986983 -74.69621 
L 614.308083 -74.69621 
L 610.629183 -74.69621 
L 606.950283 -74.69621 
L 603.271383 -74.69621 
L 599.592483 -74.69621 
L 595.913582 -74.69621 
L 592.234682 -74.69621 
L 588.555782 -74.69621 
L 584.876882 -74.69621 
L 581.197982 -74.69621 
L 577.519081 -74.69621 
L 573.840181 -74.69621 
L 570.161281 -74.69621 
L 566.482381 -74.69621 
L 562.803481 -74.69621 
L 559.124581 -74.69621 
L 555.44568 -74.69621 
L 551.76678 -74.69621 
L 548.08788 -74.69621 
L 544.40898 -74.69621 
L 540.73008 -74.69621 
L 537.051179 -74.69621 
L 533.372279 -74.69621 
L 529.693379 -74.69621 
L 526.014479 -74.69621 
L 522.335579 -74.69621 
L 518.656679 -74.69621 
L 514.977778 -74.69621 
L 511.298878 -74.69621 
L 507.619978 -74.69621 
L 503.941078 -74.69621 
L 500.262178 -74.69621 
L 496.583277 -74.69621 
L 492.904377 -74.69621 
L 489.225477 -74.69621 
L 485.546577 -74.69621 
L 481.867677 -74.69621 
L 478.188777 -74.69621 
L 474.509876 -74.69621 
L 470.830976 -74.69621 
L 467.152076 -74.69621 
L 463.473176 -74.69621 
L 459.794276 -74.69621 
L 456.115375 -74.69621 
L 452.436475 -74.69621 
L 448.757575 -74.69621 
L 445.078675 -74.69621 
L 441.399775 -74.69621 
L 437.720875 -74.69621 
L 434.041974 -74.69621 
L 430.363074 -74.69621 
L 426.684174 -74.69621 
L 423.005274 -74.69621 
L 419.326374 -74.69621 
L 415.647473 -74.69621 
L 411.968573 -74.69621 
L 408.289673 -74.69621 
L 404.610773 -74.69621 
L 400.931873 -74.69621 
L 397.252973 -74.69621 
L 393.574072 -74.69621 
L 389.895172 -74.69621 
L 386.216272 -74.69621 
L 382.537372 -74.69621 
L 378.858472 -74.69621 
L 375.179571 -74.69621 
L 371.500671 -74.69621 
L 367.821771 -74.69621 
L 364.142871 -74.69621 
L 360.463971 -74.69621 
L 356.785071 -74.69621 
L 353.10617 -74.69621 
L 349.42727 -74.69621 
L 345.74837 -74.69621 
L 342.06947 -74.69621 
L 338.39057 -74.69621 
L 334.711669 -74.69621 
L 331.032769 -74.69621 
L 327.353869 -74.69621 
L 323.674969 -74.69621 
L 319.996069 -74.69621 
L 316.317169 -74.69621 
L 312.638268 -74.69621 
L 308.959368 -74.69621 
L 305.280468 -74.69621 
L 301.601568 -74.69621 
L 297.922668 -74.69621 
L 294.243767 -74.69621 
L 290.564867 -74.69621 
L 286.885967 -74.69621 
L 283.207067 -74.69621 
L 279.528167 -74.69621 
L 275.849267 -74.69621 
L 272.170366 -74.69621 
L 268.491466 -74.69621 
L 264.812566 -74.69621 
L 261.133666 -74.69621 
L 257.454766 -74.69621 
L 253.775865 -74.69621 
L 250.096965 -74.69621 
L 246.418065 -74.69621 
L 242.739165 -74.69621 
L 239.060265 -74.69621 
L 235.381364 -74.69621 
L 231.702464 -74.69621 
L 228.023564 -74.69621 
L 224.344664 -74.69621 
L 220.665764 -74.69621 
L 216.986864 -74.69621 
L 213.307963 -74.69621 
L 209.629063 -74.69621 
L 205.950163 -74.69621 
L 202.271263 -74.69621 
L 198.592363 -74.69621 
L 194.913462 -74.69621 
L 191.234562 -74.69621 
L 187.555662 -74.69621 
L 183.876762 -74.69621 
L 180.197862 -74.69621 
L 176.518962 -74.69621 
L 172.840061 -74.69621 
L 169.161161 -74.69621 
L 165.482261 -74.69621 
L 161.803361 -74.69621 
L 158.124461 -74.69621 
L 154.44556 -74.69621 
L 150.76666 -74.69621 
L 147.08776 -74.69621 
L 143.40886 -74.69621 
L 139.72996 -74.69621 
L 136.05106 -74.69621 
L 132.372159 -74.69621 
L 128.693259 -74.69621 
L 125.014359 -74.69621 
L 121.335459 -74.69621 
L 117.656559 -74.69621 
L 113.977658 -74.69621 
L 110.298758 -74.69621 
L 106.619858 -74.69621 
L 102.940958 -74.69621 
L 99.262058 -74.69621 
L 95.583158 -74.69621 
L 91.904257 -74.69621 
L 88.225357 -74.69621 
L 84.546457 -74.69621 
L 80.867557 -74.69621 
z
" style="stroke: #2ecc71; stroke-opacity: 0.08"/>
    </defs>
    <g clip-path="url(#p100c44db1c)">
     <use xlink:href="#m45b93efd1d" x="0" y="496.34875" style="fill: #2ecc71; fill-opacity: 0.08; stroke: #2ecc71; stroke-opacity: 0.08"/>
    </g>
   </g>
   <g id="FillBetweenPolyCollection_4">
    <defs>
     <path id="m0348aa49a5" d="M 80.867557 -74.69621 
L 80.867557 -344.145711 
L 84.546457 -319.815404 
L 88.225357 -337.571262 
L 91.904257 -339.584519 
L 95.583158 -324.371131 
L 99.262058 -338.343113 
L 102.940958 -302.572363 
L 106.619858 -293.250783 
L 110.298758 -283.223937 
L 113.977658 -319.366746 
L 117.656559 -305.732601 
L 121.335459 -293.750129 
L 125.014359 -294.480818 
L 128.693259 -274.189394 
L 132.372159 -314.201471 
L 136.05106 -282.987752 
L 139.72996 -279.630978 
L 143.40886 -284.027717 
L 147.08776 -278.050043 
L 150.76666 -271.972467 
L 154.44556 -256.77661 
L 158.124461 -269.186503 
L 161.803361 -283.442949 
L 165.482261 -274.173122 
L 169.161161 -274.444959 
L 172.840061 -246.285848 
L 176.518962 -237.856059 
L 180.197862 -245.719022 
L 183.876762 -245.364677 
L 187.555662 -255.42705 
L 191.234562 -219.222868 
L 194.913462 -255.802179 
L 198.592363 -232.984907 
L 202.271263 -227.382101 
L 205.950163 -217.988274 
L 209.629063 -207.936148 
L 213.307963 -235.702609 
L 216.986864 -224.428341 
L 220.665764 -205.76406 
L 224.344664 -203.57777 
L 228.023564 -213.102039 
L 231.702464 -235.318111 
L 235.381364 -209.949042 
L 239.060265 -192.906921 
L 242.739165 -206.174885 
L 246.418065 -203.926076 
L 250.096965 -172.688057 
L 253.775865 -202.820873 
L 257.454766 -198.853993 
L 261.133666 -208.280019 
L 264.812566 -220.467051 
L 268.491466 -209.982321 
L 272.170366 -191.378049 
L 275.849267 -179.555135 
L 279.528167 -222.450458 
L 283.207067 -190.386453 
L 286.885967 -188.237977 
L 290.564867 -186.203536 
L 294.243767 -187.345939 
L 297.922668 -181.678049 
L 301.601568 -174.983809 
L 305.280468 -173.836046 
L 308.959368 -178.612043 
L 312.638268 -171.005724 
L 316.317169 -167.554218 
L 319.996069 -176.09531 
L 323.674969 -170.365474 
L 327.353869 -190.327927 
L 331.032769 -138.716626 
L 334.711669 -182.735652 
L 338.39057 -183.339845 
L 342.06947 -141.90709 
L 345.74837 -161.633841 
L 349.42727 -160.08037 
L 353.10617 -146.351947 
L 356.785071 -152.809357 
L 360.463971 -147.634291 
L 364.142871 -181.165094 
L 367.821771 -170.170197 
L 371.500671 -173.145748 
L 375.179571 -165.416065 
L 378.858472 -141.955758 
L 382.537372 -148.236914 
L 386.216272 -159.491088 
L 389.895172 -137.767685 
L 393.574072 -160.208002 
L 397.252973 -147.696223 
L 400.931873 -145.113459 
L 404.610773 -157.319486 
L 408.289673 -153.167549 
L 411.968573 -142.511238 
L 415.647473 -160.023414 
L 419.326374 -132.022366 
L 423.005274 -151.703034 
L 426.684174 -150.577181 
L 430.363074 -138.814095 
L 434.041974 -145.688247 
L 437.720875 -125.785659 
L 441.399775 -151.323904 
L 445.078675 -137.117391 
L 448.757575 -132.259053 
L 452.436475 -150.531017 
L 456.115375 -128.561039 
L 459.794276 -119.305692 
L 463.473176 -116.792916 
L 467.152076 -142.267318 
L 470.830976 -118.734101 
L 474.509876 -154.795443 
L 478.188777 -107.674323 
L 481.867677 -152.755023 
L 485.546577 -134.121283 
L 489.225477 -129.755971 
L 492.904377 -123.7006 
L 496.583277 -134.510743 
L 500.262178 -128.614439 
L 503.941078 -141.828373 
L 507.619978 -129.265678 
L 511.298878 -129.123454 
L 514.977778 -122.332484 
L 518.656679 -125.48511 
L 522.335579 -129.350135 
L 526.014479 -104.378398 
L 529.693379 -108.22801 
L 533.372279 -133.023845 
L 537.051179 -125.579027 
L 540.73008 -120.776446 
L 544.40898 -122.728662 
L 548.08788 -126.223351 
L 551.76678 -114.998972 
L 555.44568 -111.637074 
L 559.124581 -122.964246 
L 562.803481 -108.290362 
L 566.482381 -124.626364 
L 570.161281 -98.62854 
L 573.840181 -131.263657 
L 577.519081 -124.096908 
L 581.197982 -121.053271 
L 584.876882 -129.435606 
L 588.555782 -137.293601 
L 592.234682 -129.00991 
L 595.913582 -94.048899 
L 599.592483 -100.456045 
L 603.271383 -108.001072 
L 606.950283 -115.505813 
L 610.629183 -121.087723 
L 614.308083 -105.671678 
L 617.986983 -116.361742 
L 621.665884 -104.604658 
L 625.344784 -106.000984 
L 629.023684 -96.035114 
L 632.702584 -101.553606 
L 636.381484 -96.038148 
L 640.060385 -100.264755 
L 643.739285 -124.516914 
L 647.418185 -99.955046 
L 651.097085 -143.009798 
L 654.775985 -116.811435 
L 658.454886 -112.779624 
L 662.133786 -99.85809 
L 665.812686 -118.440272 
L 669.491586 -102.710537 
L 673.170486 -110.878388 
L 676.849386 -140.120946 
L 680.528287 -107.695942 
L 684.207187 -122.507794 
L 687.886087 -99.821367 
L 691.564987 -107.654803 
L 695.243887 -129.264596 
L 698.922788 -99.98908 
L 702.601688 -129.277985 
L 706.280588 -115.664872 
L 709.959488 -100.051856 
L 713.638388 -114.285858 
L 717.317288 -118.176106 
L 720.996189 -113.70599 
L 724.675089 -86.948386 
L 728.353989 -96.938483 
L 732.032889 -102.5319 
L 735.711789 -104.417857 
L 739.39069 -112.627003 
L 743.06959 -107.061672 
L 746.74849 -88.545063 
L 750.42739 -109.117956 
L 754.10629 -111.714383 
L 757.78519 -110.909911 
L 761.464091 -117.030772 
L 765.142991 -113.858914 
L 768.821891 -109.141893 
L 772.500791 -102.556174 
L 776.179691 -83.123174 
L 779.858592 -108.260833 
L 783.537492 -105.405419 
L 787.216392 -106.013032 
L 790.895292 -87.105406 
L 794.574192 -89.314076 
L 798.253092 -114.993647 
L 801.931993 -101.609836 
L 805.610893 -110.186536 
L 809.289793 -102.128836 
L 812.968693 -101.998636 
L 812.968693 -74.69621 
L 812.968693 -74.69621 
L 809.289793 -74.69621 
L 805.610893 -74.69621 
L 801.931993 -74.69621 
L 798.253092 -74.69621 
L 794.574192 -74.69621 
L 790.895292 -74.69621 
L 787.216392 -74.69621 
L 783.537492 -74.69621 
L 779.858592 -74.69621 
L 776.179691 -74.69621 
L 772.500791 -74.69621 
L 768.821891 -74.69621 
L 765.142991 -74.69621 
L 761.464091 -74.69621 
L 757.78519 -74.69621 
L 754.10629 -74.69621 
L 750.42739 -74.69621 
L 746.74849 -74.69621 
L 743.06959 -74.69621 
L 739.39069 -74.69621 
L 735.711789 -74.69621 
L 732.032889 -74.69621 
L 728.353989 -74.69621 
L 724.675089 -74.69621 
L 720.996189 -74.69621 
L 717.317288 -74.69621 
L 713.638388 -74.69621 
L 709.959488 -74.69621 
L 706.280588 -74.69621 
L 702.601688 -74.69621 
L 698.922788 -74.69621 
L 695.243887 -74.69621 
L 691.564987 -74.69621 
L 687.886087 -74.69621 
L 684.207187 -74.69621 
L 680.528287 -74.69621 
L 676.849386 -74.69621 
L 673.170486 -74.69621 
L 669.491586 -74.69621 
L 665.812686 -74.69621 
L 662.133786 -74.69621 
L 658.454886 -74.69621 
L 654.775985 -74.69621 
L 651.097085 -74.69621 
L 647.418185 -74.69621 
L 643.739285 -74.69621 
L 640.060385 -74.69621 
L 636.381484 -74.69621 
L 632.702584 -74.69621 
L 629.023684 -74.69621 
L 625.344784 -74.69621 
L 621.665884 -74.69621 
L 617.986983 -74.69621 
L 614.308083 -74.69621 
L 610.629183 -74.69621 
L 606.950283 -74.69621 
L 603.271383 -74.69621 
L 599.592483 -74.69621 
L 595.913582 -74.69621 
L 592.234682 -74.69621 
L 588.555782 -74.69621 
L 584.876882 -74.69621 
L 581.197982 -74.69621 
L 577.519081 -74.69621 
L 573.840181 -74.69621 
L 570.161281 -74.69621 
L 566.482381 -74.69621 
L 562.803481 -74.69621 
L 559.124581 -74.69621 
L 555.44568 -74.69621 
L 551.76678 -74.69621 
L 548.08788 -74.69621 
L 544.40898 -74.69621 
L 540.73008 -74.69621 
L 537.051179 -74.69621 
L 533.372279 -74.69621 
L 529.693379 -74.69621 
L 526.014479 -74.69621 
L 522.335579 -74.69621 
L 518.656679 -74.69621 
L 514.977778 -74.69621 
L 511.298878 -74.69621 
L 507.619978 -74.69621 
L 503.941078 -74.69621 
L 500.262178 -74.69621 
L 496.583277 -74.69621 
L 492.904377 -74.69621 
L 489.225477 -74.69621 
L 485.546577 -74.69621 
L 481.867677 -74.69621 
L 478.188777 -74.69621 
L 474.509876 -74.69621 
L 470.830976 -74.69621 
L 467.152076 -74.69621 
L 463.473176 -74.69621 
L 459.794276 -74.69621 
L 456.115375 -74.69621 
L 452.436475 -74.69621 
L 448.757575 -74.69621 
L 445.078675 -74.69621 
L 441.399775 -74.69621 
L 437.720875 -74.69621 
L 434.041974 -74.69621 
L 430.363074 -74.69621 
L 426.684174 -74.69621 
L 423.005274 -74.69621 
L 419.326374 -74.69621 
L 415.647473 -74.69621 
L 411.968573 -74.69621 
L 408.289673 -74.69621 
L 404.610773 -74.69621 
L 400.931873 -74.69621 
L 397.252973 -74.69621 
L 393.574072 -74.69621 
L 389.895172 -74.69621 
L 386.216272 -74.69621 
L 382.537372 -74.69621 
L 378.858472 -74.69621 
L 375.179571 -74.69621 
L 371.500671 -74.69621 
L 367.821771 -74.69621 
L 364.142871 -74.69621 
L 360.463971 -74.69621 
L 356.785071 -74.69621 
L 353.10617 -74.69621 
L 349.42727 -74.69621 
L 345.74837 -74.69621 
L 342.06947 -74.69621 
L 338.39057 -74.69621 
L 334.711669 -74.69621 
L 331.032769 -74.69621 
L 327.353869 -74.69621 
L 323.674969 -74.69621 
L 319.996069 -74.69621 
L 316.317169 -74.69621 
L 312.638268 -74.69621 
L 308.959368 -74.69621 
L 305.280468 -74.69621 
L 301.601568 -74.69621 
L 297.922668 -74.69621 
L 294.243767 -74.69621 
L 290.564867 -74.69621 
L 286.885967 -74.69621 
L 283.207067 -74.69621 
L 279.528167 -74.69621 
L 275.849267 -74.69621 
L 272.170366 -74.69621 
L 268.491466 -74.69621 
L 264.812566 -74.69621 
L 261.133666 -74.69621 
L 257.454766 -74.69621 
L 253.775865 -74.69621 
L 250.096965 -74.69621 
L 246.418065 -74.69621 
L 242.739165 -74.69621 
L 239.060265 -74.69621 
L 235.381364 -74.69621 
L 231.702464 -74.69621 
L 228.023564 -74.69621 
L 224.344664 -74.69621 
L 220.665764 -74.69621 
L 216.986864 -74.69621 
L 213.307963 -74.69621 
L 209.629063 -74.69621 
L 205.950163 -74.69621 
L 202.271263 -74.69621 
L 198.592363 -74.69621 
L 194.913462 -74.69621 
L 191.234562 -74.69621 
L 187.555662 -74.69621 
L 183.876762 -74.69621 
L 180.197862 -74.69621 
L 176.518962 -74.69621 
L 172.840061 -74.69621 
L 169.161161 -74.69621 
L 165.482261 -74.69621 
L 161.803361 -74.69621 
L 158.124461 -74.69621 
L 154.44556 -74.69621 
L 150.76666 -74.69621 
L 147.08776 -74.69621 
L 143.40886 -74.69621 
L 139.72996 -74.69621 
L 136.05106 -74.69621 
L 132.372159 -74.69621 
L 128.693259 -74.69621 
L 125.014359 -74.69621 
L 121.335459 -74.69621 
L 117.656559 -74.69621 
L 113.977658 -74.69621 
L 110.298758 -74.69621 
L 106.619858 -74.69621 
L 102.940958 -74.69621 
L 99.262058 -74.69621 
L 95.583158 -74.69621 
L 91.904257 -74.69621 
L 88.225357 -74.69621 
L 84.546457 -74.69621 
L 80.867557 -74.69621 
z
" style="stroke: #9b59b6; stroke-opacity: 0.08"/>
    </defs>
    <g clip-path="url(#p100c44db1c)">
     <use xlink:href="#m0348aa49a5" x="0" y="496.34875" style="fill: #9b59b6; fill-opacity: 0.08; stroke: #9b59b6; stroke-opacity: 0.08"/>
    </g>
   </g>
   <g id="matplotlib.axis_1">
    <g id="xtick_1">
     <g id="line2d_1">
      <path d="M 80.867557 458.820625 
L 80.867557 24.684375 
" clip-path="url(#p100c44db1c)" style="fill: none; stroke: #b0b0b0; stroke-opacity: 0.3; stroke-width: 0.8; stroke-linecap: square"/>
     </g>
     <g id="line2d_2">
      <defs>
       <path id="m5983e47f88" d="M 0 0 
L 0 3.5 
" style="stroke: #000000; stroke-width: 0.8"/>
      </defs>
      <g>
       <use xlink:href="#m5983e47f88" x="80.867557" y="458.820625" style="stroke: #000000; stroke-width: 0.8"/>
      </g>
     </g>
     <g id="text_1">
      <text style="font-size: 10px; font-family: 'SimHei', 'Microsoft YaHei', 'DejaVu Sans', sans-serif; text-anchor: middle" x="80.867557" y="472.695625" transform="rotate(-0 80.867557 472.695625)">0</text>
     </g>
    </g>
    <g id="xtick_2">
     <g id="line2d_3">
      <path d="M 172.840061 458.820625 
L 172.840061 24.684375 
" clip-path="url(#p100c44db1c)" style="fill: none; stroke: #b0b0b0; stroke-opacity: 0.3; stroke-width: 0.8; stroke-linecap: square"/>
     </g>
     <g id="line2d_4">
      <g>
       <use xlink:href="#m5983e47f88" x="172.840061" y="458.820625" style="stroke: #000000; stroke-width: 0.8"/>
      </g>
     </g>
     <g id="text_2">
      <text style="font-size: 10px; font-family: 'SimHei', 'Microsoft YaHei', 'DejaVu Sans', sans-serif; text-anchor: middle" x="172.840061" y="472.695625" transform="rotate(-0 172.840061 472.695625)">25</text>
     </g>
    </g>
    <g id="xtick_3">
     <g id="line2d_5">
      <path d="M 264.812566 458.820625 
L 264.812566 24.684375 
" clip-path="url(#p100c44db1c)" style="fill: none; stroke: #b0b0b0; stroke-opacity: 0.3; stroke-width: 0.8; stroke-linecap: square"/>
     </g>
     <g id="line2d_6">
      <g>
       <use xlink:href="#m5983e47f88" x="264.812566" y="458.820625" style="stroke: #000000; stroke-width: 0.8"/>
      </g>
     </g>
     <g id="text_3">
      <text style="font-size: 10px; font-family: 'SimHei', 'Microsoft YaHei', 'DejaVu Sans', sans-serif; text-anchor: middle" x="264.812566" y="472.695625" transform="rotate(-0 264.812566 472.695625)">50</text>
     </g>
    </g>
    <g id="xtick_4">
     <g id="line2d_7">
      <path d="M 356.785071 458.820625 
L 356.785071 24.684375 
" clip-path="url(#p100c44db1c)" style="fill: none; stroke: #b0b0b0; stroke-opacity: 0.3; stroke-width: 0.8; stroke-linecap: square"/>
     </g>
     <g id="line2d_8">
      <g>
       <use xlink:href="#m5983e47f88" x="356.785071" y="458.820625" style="stroke: #000000; stroke-width: 0.8"/>
      </g>
     </g>
     <g id="text_4">
      <text style="font-size: 10px; font-family: 'SimHei', 'Microsoft YaHei', 'DejaVu Sans', sans-serif; text-anchor: middle" x="356.785071" y="472.695625" transform="rotate(-0 356.785071 472.695625)">75</text>
     </g>
    </g>
    <g id="xtick_5">
     <g id="line2d_9">
      <path d="M 448.757575 458.820625 
L 448.757575 24.684375 
" clip-path="url(#p100c44db1c)" style="fill: none; stroke: #b0b0b0; stroke-opacity: 0.3; stroke-width: 0.8; stroke-linecap: square"/>
     </g>
     <g id="line2d_10">
      <g>
       <use xlink:href="#m5983e47f88" x="448.757575" y="458.820625" style="stroke: #000000; stroke-width: 0.8"/>
      </g>
     </g>
     <g id="text_5">
      <text style="font-size: 10px; font-family: 'SimHei', 'Microsoft YaHei', 'DejaVu Sans', sans-serif; text-anchor: middle" x="448.757575" y="472.695625" transform="rotate(-0 448.757575 472.695625)">100</text>
     </g>
    </g>
    <g id="xtick_6">
     <g id="line2d_11">
      <path d="M 540.73008 458.820625 
L 540.73008 24.684375 
" clip-path="url(#p100c44db1c)" style="fill: none; stroke: #b0b0b0; stroke-opacity: 0.3; stroke-width: 0.8; stroke-linecap: square"/>
     </g>
     <g id="line2d_12">
      <g>
       <use xlink:href="#m5983e47f88" x="540.73008" y="458.820625" style="stroke: #000000; stroke-width: 0.8"/>
      </g>
     </g>
     <g id="text_6">
      <text style="font-size: 10px; font-family: 'SimHei', 'Microsoft YaHei', 'DejaVu Sans', sans-serif; text-anchor: middle" x="540.73008" y="472.695625" transform="rotate(-0 540.73008 472.695625)">125</text>
     </g>
    </g>
    <g id="xtick_7">
     <g id="line2d_13">
      <path d="M 632.702584 458.820625 
L 632.702584 24.684375 
" clip-path="url(#p100c44db1c)" style="fill: none; stroke: #b0b0b0; stroke-opacity: 0.3; stroke-width: 0.8; stroke-linecap: square"/>
     </g>
     <g id="line2d_14">
      <g>
       <use xlink:href="#m5983e47f88" x="632.702584" y="458.820625" style="stroke: #000000; stroke-width: 0.8"/>
      </g>
     </g>
     <g id="text_7">
      <text style="font-size: 10px; font-family: 'SimHei', 'Microsoft YaHei', 'DejaVu Sans', sans-serif; text-anchor: middle" x="632.702584" y="472.695625" transform="rotate(-0 632.702584 472.695625)">150</text>
     </g>
    </g>
    <g id="xtick_8">
     <g id="line2d_15">
      <path d="M 724.675089 458.820625 
L 724.675089 24.684375 
" clip-path="url(#p100c44db1c)" style="fill: none; stroke: #b0b0b0; stroke-opacity: 0.3; stroke-width: 0.8; stroke-linecap: square"/>
     </g>
     <g id="line2d_16">
      <g>
       <use xlink:href="#m5983e47f88" x="724.675089" y="458.820625" style="stroke: #000000; stroke-width: 0.8"/>
      </g>
     </g>
     <g id="text_8">
      <text style="font-size: 10px; font-family: 'SimHei', 'Microsoft YaHei', 'DejaVu Sans', sans-serif; text-anchor: middle" x="724.675089" y="472.695625" transform="rotate(-0 724.675089 472.695625)">175</text>
     </g>
    </g>
    <g id="xtick_9">
     <g id="line2d_17">
      <path d="M 816.647593 458.820625 
L 816.647593 24.684375 
" clip-path="url(#p100c44db1c)" style="fill: none; stroke: #b0b0b0; stroke-opacity: 0.3; stroke-width: 0.8; stroke-linecap: square"/>
     </g>
     <g id="line2d_18">
      <g>
       <use xlink:href="#m5983e47f88" x="816.647593" y="458.820625" style="stroke: #000000; stroke-width: 0.8"/>
      </g>
     </g>
     <g id="text_9">
      <text style="font-size: 10px; font-family: 'SimHei', 'Microsoft YaHei', 'DejaVu Sans', sans-serif; text-anchor: middle" x="816.647593" y="472.695625" transform="rotate(-0 816.647593 472.695625)">200</text>
     </g>
    </g>
    <g id="text_10">
     <text style="font-size: 12px; font-family: 'SimHei', 'Microsoft YaHei', 'DejaVu Sans', sans-serif; text-anchor: middle" x="446.918125" y="487.64875" transform="rotate(-0 446.918125 487.64875)">Training Step / 训练步数</text>
    </g>
   </g>
   <g id="matplotlib.axis_2">
    <g id="ytick_1">
     <g id="line2d_19">
      <path d="M 44.2625 421.65254 
L 849.57375 421.65254 
" clip-path="url(#p100c44db1c)" style="fill: none; stroke: #b0b0b0; stroke-opacity: 0.3; stroke-width: 0.8; stroke-linecap: square"/>
     </g>
     <g id="line2d_20">
      <defs>
       <path id="m721be69b2a" d="M 0 0 
L -3.5 0 
" style="stroke: #000000; stroke-width: 0.8"/>
      </defs>
      <g>
       <use xlink:href="#m721be69b2a" x="44.2625" y="421.65254" style="stroke: #000000; stroke-width: 0.8"/>
      </g>
     </g>
     <g id="text_11">
      <text style="font-size: 10px; font-family: 'SimHei', 'Microsoft YaHei', 'DejaVu Sans', sans-serif; text-anchor: end" x="37.2625" y="425.09004" transform="rotate(-0 37.2625 425.09004)">0.0</text>
     </g>
    </g>
    <g id="ytick_2">
     <g id="line2d_21">
      <path d="M 44.2625 361.121103 
L 849.57375 361.121103 
" clip-path="url(#p100c44db1c)" style="fill: none; stroke: #b0b0b0; stroke-opacity: 0.3; stroke-width: 0.8; stroke-linecap: square"/>
     </g>
     <g id="line2d_22">
      <g>
       <use xlink:href="#m721be69b2a" x="44.2625" y="361.121103" style="stroke: #000000; stroke-width: 0.8"/>
      </g>
     </g>
     <g id="text_12">
      <text style="font-size: 10px; font-family: 'SimHei', 'Microsoft YaHei', 'DejaVu Sans', sans-serif; text-anchor: end" x="37.2625" y="364.558603" transform="rotate(-0 37.2625 364.558603)">0.5</text>
     </g>
    </g>
    <g id="ytick_3">
     <g id="line2d_23">
      <path d="M 44.2625 300.589666 
L 849.57375 300.589666 
" clip-path="url(#p100c44db1c)" style="fill: none; stroke: #b0b0b0; stroke-opacity: 0.3; stroke-width: 0.8; stroke-linecap: square"/>
     </g>
     <g id="line2d_24">
      <g>
       <use xlink:href="#m721be69b2a" x="44.2625" y="300.589666" style="stroke: #000000; stroke-width: 0.8"/>
      </g>
     </g>
     <g id="text_13">
      <text style="font-size: 10px; font-family: 'SimHei', 'Microsoft YaHei', 'DejaVu Sans', sans-serif; text-anchor: end" x="37.2625" y="304.027166" transform="rotate(-0 37.2625 304.027166)">1.0</text>
     </g>
    </g>
    <g id="ytick_4">
     <g id="line2d_25">
      <path d="M 44.2625 240.058229 
L 849.57375 240.058229 
" clip-path="url(#p100c44db1c)" style="fill: none; stroke: #b0b0b0; stroke-opacity: 0.3; stroke-width: 0.8; stroke-linecap: square"/>
     </g>
     <g id="line2d_26">
      <g>
       <use xlink:href="#m721be69b2a" x="44.2625" y="240.058229" style="stroke: #000000; stroke-width: 0.8"/>
      </g>
     </g>
     <g id="text_14">
      <text style="font-size: 10px; font-family: 'SimHei', 'Microsoft YaHei', 'DejaVu Sans', sans-serif; text-anchor: end" x="37.2625" y="243.495729" transform="rotate(-0 37.2625 243.495729)">1.5</text>
     </g>
    </g>
    <g id="ytick_5">
     <g id="line2d_27">
      <path d="M 44.2625 179.526792 
L 849.57375 179.526792 
" clip-path="url(#p100c44db1c)" style="fill: none; stroke: #b0b0b0; stroke-opacity: 0.3; stroke-width: 0.8; stroke-linecap: square"/>
     </g>
     <g id="line2d_28">
      <g>
       <use xlink:href="#m721be69b2a" x="44.2625" y="179.526792" style="stroke: #000000; stroke-width: 0.8"/>
      </g>
     </g>
     <g id="text_15">
      <text style="font-size: 10px; font-family: 'SimHei', 'Microsoft YaHei', 'DejaVu Sans', sans-serif; text-anchor: end" x="37.2625" y="182.964292" transform="rotate(-0 37.2625 182.964292)">2.0</text>
     </g>
    </g>
    <g id="ytick_6">
     <g id="line2d_29">
      <path d="M 44.2625 118.995355 
L 849.57375 118.995355 
" clip-path="url(#p100c44db1c)" style="fill: none; stroke: #b0b0b0; stroke-opacity: 0.3; stroke-width: 0.8; stroke-linecap: square"/>
     </g>
     <g id="line2d_30">
      <g>
       <use xlink:href="#m721be69b2a" x="44.2625" y="118.995355" style="stroke: #000000; stroke-width: 0.8"/>
      </g>
     </g>
     <g id="text_16">
      <text style="font-size: 10px; font-family: 'SimHei', 'Microsoft YaHei', 'DejaVu Sans', sans-serif; text-anchor: end" x="37.2625" y="122.432855" transform="rotate(-0 37.2625 122.432855)">2.5</text>
     </g>
    </g>
    <g id="ytick_7">
     <g id="line2d_31">
      <path d="M 44.2625 58.463918 
L 849.57375 58.463918 
" clip-path="url(#p100c44db1c)" style="fill: none; stroke: #b0b0b0; stroke-opacity: 0.3; stroke-width: 0.8; stroke-linecap: square"/>
     </g>
     <g id="line2d_32">
      <g>
       <use xlink:href="#m721be69b2a" x="44.2625" y="58.463918" style="stroke: #000000; stroke-width: 0.8"/>
      </g>
     </g>
     <g id="text_17">
      <text style="font-size: 10px; font-family: 'SimHei', 'Microsoft YaHei', 'DejaVu Sans', sans-serif; text-anchor: end" x="37.2625" y="61.901418" transform="rotate(-0 37.2625 61.901418)">3.0</text>
     </g>
    </g>
    <g id="text_18">
     <text style="font-size: 12px; font-family: 'SimHei', 'Microsoft YaHei', 'DejaVu Sans', sans-serif; text-anchor: middle" x="16.7625" y="241.7525" transform="rotate(-90 16.7625 241.7525)">Loss / 损失</text>
    </g>
   </g>
   <g id="line2d_33">
    <path d="M 80.867557 231.241059 
L 95.583158 144.111633 
L 99.262058 122.514289 
L 106.619858 83.291024 
L 110.298758 87.595434 
L 113.977658 91.708136 
L 117.656559 95.341782 
L 121.335459 100.626588 
L 125.014359 104.858916 
L 128.693259 106.727741 
L 132.372159 111.384963 
L 136.05106 115.110532 
L 143.40886 122.962844 
L 147.08776 125.543655 
L 150.76666 129.103258 
L 154.44556 131.96451 
L 158.124461 133.8374 
L 161.803361 135.576543 
L 165.482261 138.468263 
L 169.161161 138.980253 
L 172.840061 142.034065 
L 176.518962 144.90952 
L 180.197862 145.826232 
L 183.876762 150.681094 
L 187.555662 152.983561 
L 191.234562 157.239984 
L 194.913462 159.749799 
L 202.271263 163.724531 
L 205.950163 165.149777 
L 209.629063 168.007879 
L 213.307963 170.197095 
L 216.986864 173.555735 
L 220.665764 176.022027 
L 224.344664 180.230242 
L 228.023564 181.678566 
L 231.702464 182.831254 
L 235.381364 187.173355 
L 239.060265 188.153763 
L 242.739165 190.832756 
L 246.418065 191.969773 
L 250.096965 192.549457 
L 253.775865 193.994906 
L 257.454766 195.93164 
L 261.133666 198.81363 
L 264.812566 201.010544 
L 268.491466 202.51551 
L 272.170366 202.525174 
L 279.528167 206.015748 
L 283.207067 209.678896 
L 286.885967 212.814904 
L 290.564867 212.605921 
L 294.243767 213.619377 
L 297.922668 215.190257 
L 301.601568 215.634889 
L 305.280468 217.615225 
L 308.959368 220.724437 
L 312.638268 222.919003 
L 316.317169 222.713427 
L 319.996069 224.184573 
L 323.674969 224.859906 
L 327.353869 229.411636 
L 331.032769 229.99108 
L 334.711669 231.380266 
L 338.39057 232.317975 
L 342.06947 232.848024 
L 345.74837 236.657993 
L 349.42727 239.460686 
L 356.785071 241.73628 
L 360.463971 243.920895 
L 364.142871 245.508891 
L 367.821771 247.64358 
L 371.500671 249.566286 
L 375.179571 250.674586 
L 378.858472 253.750072 
L 382.537372 252.589378 
L 386.216272 254.525298 
L 389.895172 255.147915 
L 397.252973 258.430489 
L 400.931873 258.427854 
L 404.610773 260.700817 
L 408.289673 262.003354 
L 411.968573 264.223189 
L 419.326374 265.767129 
L 423.005274 267.69668 
L 426.684174 269.952361 
L 430.363074 271.657043 
L 434.041974 273.025294 
L 437.720875 274.703759 
L 441.399775 275.57596 
L 448.757575 276.326255 
L 452.436475 276.932673 
L 456.115375 277.741626 
L 459.794276 279.161158 
L 467.152076 281.648789 
L 470.830976 280.678246 
L 474.509876 281.644954 
L 478.188777 281.247611 
L 481.867677 281.912209 
L 485.546577 283.542786 
L 489.225477 282.924903 
L 492.904377 283.128012 
L 496.583277 283.74416 
L 500.262178 286.917369 
L 503.941078 286.831644 
L 507.619978 289.065226 
L 511.298878 289.414691 
L 514.977778 286.970414 
L 518.656679 288.60985 
L 522.335579 289.966198 
L 526.014479 292.713938 
L 529.693379 293.794717 
L 533.372279 296.108987 
L 540.73008 297.548127 
L 544.40898 298.877472 
L 548.08788 301.005816 
L 551.76678 301.163049 
L 555.44568 301.82142 
L 559.124581 303.964255 
L 562.803481 302.917665 
L 570.161281 307.424318 
L 573.840181 306.284009 
L 577.519081 307.829579 
L 581.197982 308.457474 
L 584.876882 308.52921 
L 588.555782 307.32598 
L 592.234682 309.050491 
L 595.913582 309.921358 
L 599.592483 310.536621 
L 603.271383 310.201033 
L 606.950283 311.887925 
L 610.629183 311.606363 
L 614.308083 312.517645 
L 617.986983 313.601419 
L 621.665884 312.978481 
L 625.344784 314.338072 
L 629.023684 314.47923 
L 632.702584 313.384097 
L 636.381484 315.072002 
L 640.060385 315.322087 
L 643.739285 317.302885 
L 647.418185 316.225468 
L 651.097085 314.773905 
L 654.775985 316.399939 
L 658.454886 316.397788 
L 662.133786 316.795837 
L 665.812686 316.934435 
L 669.491586 315.370689 
L 673.170486 316.265745 
L 676.849386 317.613838 
L 680.528287 318.252187 
L 684.207187 320.907259 
L 687.886087 321.836617 
L 691.564987 321.07848 
L 695.243887 321.857801 
L 698.922788 320.870408 
L 702.601688 321.956226 
L 706.280588 322.173525 
L 709.959488 322.174448 
L 713.638388 321.200663 
L 717.317288 321.467426 
L 720.996189 323.255831 
L 724.675089 326.07876 
L 728.353989 325.913753 
L 732.032889 325.902968 
L 735.711789 325.020802 
L 739.39069 324.38732 
L 743.06959 324.785708 
L 746.74849 326.141326 
L 750.42739 327.979165 
L 754.10629 329.394195 
L 757.78519 329.09574 
L 761.464091 330.473564 
L 765.142991 331.638182 
L 768.821891 334.06199 
L 772.500791 334.619569 
L 776.179691 335.000198 
L 779.858592 334.366445 
L 783.537492 335.059076 
L 787.216392 336.147061 
L 794.574192 349.146921 
L 798.253092 355.072053 
L 801.931993 360.348324 
L 805.610893 365.061516 
L 809.289793 370.613336 
L 812.968693 377.193406 
L 812.968693 377.193406 
" clip-path="url(#p100c44db1c)" style="fill: none; stroke: #3498db; stroke-width: 2.5; stroke-linecap: square"/>
   </g>
   <g id="line2d_34">
    <path d="M 80.867557 374.811177 
L 84.546457 369.177674 
L 88.225357 360.945703 
L 91.904257 355.455901 
L 95.583158 349.601948 
L 99.262058 343.98431 
L 102.940958 338.698905 
L 106.619858 334.279935 
L 110.298758 335.420421 
L 121.335459 343.025384 
L 125.014359 343.199102 
L 128.693259 341.898998 
L 132.372159 345.120413 
L 136.05106 346.25419 
L 139.72996 349.219249 
L 143.40886 353.932688 
L 147.08776 354.713414 
L 150.76666 356.753141 
L 154.44556 359.544773 
L 158.124461 361.776844 
L 161.803361 362.080575 
L 165.482261 364.367357 
L 169.161161 364.632201 
L 172.840061 365.446514 
L 176.518962 366.602271 
L 180.197862 365.939364 
L 183.876762 368.277397 
L 187.555662 369.366913 
L 191.234562 370.713345 
L 194.913462 370.870236 
L 198.592363 370.707427 
L 202.271263 373.114063 
L 205.950163 374.129085 
L 213.307963 373.265344 
L 216.986864 375.602424 
L 220.665764 376.086537 
L 228.023564 378.768431 
L 231.702464 377.574472 
L 239.060265 381.976195 
L 242.739165 380.313676 
L 246.418065 379.450024 
L 250.096965 378.767409 
L 253.775865 381.35289 
L 257.454766 381.762017 
L 261.133666 381.291821 
L 264.812566 382.902681 
L 268.491466 383.862845 
L 272.170366 382.876262 
L 275.849267 383.949732 
L 279.528167 384.197994 
L 283.207067 386.858668 
L 286.885967 389.67097 
L 290.564867 390.751227 
L 294.243767 391.27933 
L 297.922668 391.230637 
L 301.601568 394.6152 
L 305.280468 396.310948 
L 308.959368 395.476428 
L 312.638268 394.409792 
L 316.317169 397.068925 
L 319.996069 396.027305 
L 323.674969 396.836276 
L 327.353869 398.703574 
L 331.032769 398.023535 
L 334.711669 398.247132 
L 338.39057 396.539316 
L 342.06947 396.071558 
L 345.74837 396.585817 
L 349.42727 395.886192 
L 353.10617 397.060451 
L 356.785071 395.009566 
L 360.463971 396.029257 
L 364.142871 394.781615 
L 367.821771 397.881434 
L 371.500671 397.199009 
L 375.179571 398.009887 
L 382.537372 398.175153 
L 389.895172 399.921612 
L 393.574072 400.226766 
L 400.931873 399.607578 
L 404.610773 400.554066 
L 408.289673 400.652185 
L 411.968573 401.96826 
L 415.647473 400.591603 
L 419.326374 402.077882 
L 423.005274 401.438948 
L 426.684174 402.03076 
L 430.363074 402.159463 
L 434.041974 402.145547 
L 437.720875 401.906777 
L 441.399775 401.886154 
L 445.078675 400.694324 
L 448.757575 400.928657 
L 452.436475 401.400752 
L 456.115375 402.075515 
L 459.794276 401.910974 
L 463.473176 401.964894 
L 467.152076 401.757151 
L 470.830976 401.962883 
L 474.509876 401.619586 
L 478.188777 401.131732 
L 481.867677 400.323467 
L 485.546577 401.367406 
L 489.225477 401.785025 
L 496.583277 402.251843 
L 500.262178 402.978445 
L 503.941078 403.333649 
L 507.619978 402.255335 
L 511.298878 403.069614 
L 514.977778 404.036127 
L 522.335579 404.3304 
L 526.014479 404.636051 
L 529.693379 405.332328 
L 533.372279 405.50597 
L 537.051179 406.924426 
L 540.73008 406.753883 
L 544.40898 407.700298 
L 548.08788 406.943775 
L 551.76678 407.273583 
L 555.44568 408.550378 
L 559.124581 408.277017 
L 562.803481 409.757583 
L 570.161281 409.32708 
L 573.840181 410.182913 
L 577.519081 410.739626 
L 584.876882 412.763937 
L 588.555782 412.675526 
L 592.234682 413.226696 
L 595.913582 414.528313 
L 599.592483 414.664055 
L 603.271383 415.723726 
L 606.950283 415.452516 
L 610.629183 413.691989 
L 614.308083 412.834946 
L 617.986983 413.389978 
L 621.665884 413.041193 
L 629.023684 413.574658 
L 632.702584 414.090891 
L 636.381484 413.505139 
L 640.060385 413.874814 
L 643.739285 413.72351 
L 647.418185 411.396704 
L 651.097085 410.425948 
L 654.775985 409.597763 
L 658.454886 408.942862 
L 662.133786 409.590513 
L 665.812686 410.671848 
L 669.491586 411.423933 
L 673.170486 411.284673 
L 676.849386 411.960507 
L 680.528287 411.197562 
L 684.207187 410.845352 
L 687.886087 409.50456 
L 691.564987 409.05293 
L 695.243887 406.708374 
L 698.922788 407.806533 
L 702.601688 408.398053 
L 706.280588 408.219648 
L 709.959488 406.832716 
L 713.638388 408.097185 
L 717.317288 408.505101 
L 720.996189 409.222661 
L 724.675089 410.99888 
L 728.353989 411.552904 
L 739.39069 411.712829 
L 743.06959 411.416747 
L 746.74849 411.469909 
L 750.42739 413.718433 
L 754.10629 413.868433 
L 757.78519 414.218791 
L 761.464091 415.474789 
L 765.142991 415.805646 
L 768.821891 414.242188 
L 772.500791 413.983135 
L 776.179691 414.921237 
L 779.858592 412.15282 
L 783.537492 411.858614 
L 787.216392 410.283838 
L 790.895292 410.94844 
L 794.574192 411.764721 
L 798.253092 413.816696 
L 801.931993 415.118856 
L 805.610893 415.185728 
L 809.289793 414.990559 
L 812.968693 415.915006 
L 812.968693 415.915006 
" clip-path="url(#p100c44db1c)" style="fill: none; stroke: #e74c3c; stroke-width: 2.5; stroke-linecap: square"/>
   </g>
   <g id="line2d_35">
    <path d="M 80.867557 226.952295 
L 91.904257 157.144778 
L 99.262058 114.972513 
L 102.940958 92.21834 
L 106.619858 70.512383 
L 110.298758 74.499812 
L 113.977658 77.368085 
L 117.656559 81.817589 
L 121.335459 85.377966 
L 125.014359 89.371022 
L 128.693259 92.558741 
L 132.372159 94.566921 
L 136.05106 98.878693 
L 139.72996 102.357452 
L 143.40886 106.358498 
L 147.08776 109.876701 
L 150.76666 113.738843 
L 154.44556 115.881417 
L 158.124461 119.937004 
L 161.803361 125.448281 
L 165.482261 129.568561 
L 169.161161 136.182225 
L 176.518962 144.140154 
L 180.197862 146.542143 
L 183.876762 151.655074 
L 187.555662 155.217104 
L 191.234562 159.540706 
L 194.913462 165.061924 
L 198.592363 168.942238 
L 202.271263 173.004461 
L 205.950163 175.473318 
L 209.629063 180.871179 
L 213.307963 184.927859 
L 216.986864 187.647333 
L 220.665764 189.194193 
L 224.344664 190.251664 
L 228.023564 193.749434 
L 231.702464 197.657991 
L 235.381364 202.598759 
L 239.060265 205.541752 
L 242.739165 208.87773 
L 246.418065 211.312254 
L 250.096965 212.244441 
L 253.775865 215.302853 
L 257.454766 218.890076 
L 261.133666 221.549996 
L 264.812566 223.279969 
L 268.491466 226.181576 
L 272.170366 228.586401 
L 275.849267 229.996705 
L 279.528167 232.684813 
L 283.207067 234.877346 
L 286.885967 236.64242 
L 290.564867 238.197343 
L 297.922668 243.140356 
L 301.601568 243.955266 
L 305.280468 246.980568 
L 308.959368 249.176605 
L 312.638268 250.887317 
L 316.317169 254.757228 
L 319.996069 257.213269 
L 323.674969 257.702579 
L 327.353869 257.418571 
L 331.032769 261.187162 
L 334.711669 262.704076 
L 338.39057 263.814203 
L 342.06947 263.400734 
L 345.74837 264.278303 
L 349.42727 266.048471 
L 353.10617 269.134455 
L 356.785071 272.835663 
L 360.463971 274.011147 
L 364.142871 275.899634 
L 367.821771 278.543586 
L 371.500671 278.901271 
L 378.858472 281.608455 
L 382.537372 283.847166 
L 386.216272 285.25223 
L 389.895172 286.100053 
L 393.574072 287.843382 
L 397.252973 292.55595 
L 400.931873 293.74103 
L 404.610773 294.692193 
L 408.289673 296.226361 
L 411.968573 296.530839 
L 415.647473 298.82862 
L 419.326374 300.740848 
L 423.005274 300.232141 
L 426.684174 299.536247 
L 430.363074 301.139728 
L 434.041974 303.375536 
L 437.720875 305.921881 
L 441.399775 307.599682 
L 445.078675 310.545008 
L 448.757575 312.559484 
L 452.436475 313.062114 
L 456.115375 316.18143 
L 459.794276 317.600176 
L 463.473176 317.988606 
L 470.830976 320.373493 
L 474.509876 320.858275 
L 478.188777 322.115327 
L 481.867677 324.355444 
L 485.546577 325.103338 
L 489.225477 326.549793 
L 492.904377 326.475285 
L 496.583277 328.471543 
L 500.262178 328.582169 
L 503.941078 329.432354 
L 507.619978 330.009334 
L 511.298878 330.938882 
L 514.977778 333.584079 
L 518.656679 335.813558 
L 522.335579 336.52479 
L 526.014479 336.512208 
L 529.693379 337.692899 
L 533.372279 338.690501 
L 537.051179 341.326297 
L 540.73008 341.46855 
L 548.08788 345.377239 
L 551.76678 344.832694 
L 555.44568 346.794793 
L 559.124581 347.38774 
L 562.803481 347.841876 
L 566.482381 348.485811 
L 570.161281 347.137724 
L 577.519081 347.880139 
L 581.197982 347.676518 
L 588.555782 351.568736 
L 592.234682 350.480757 
L 595.913582 351.299862 
L 599.592483 350.721433 
L 606.950283 352.018624 
L 610.629183 352.119049 
L 614.308083 351.525895 
L 617.986983 352.783079 
L 621.665884 352.686137 
L 625.344784 354.325072 
L 629.023684 354.429916 
L 636.381484 357.271499 
L 640.060385 356.213376 
L 643.739285 355.924809 
L 647.418185 355.29565 
L 651.097085 355.000596 
L 654.775985 356.127053 
L 658.454886 355.225887 
L 662.133786 356.173025 
L 665.812686 358.232451 
L 673.170486 362.761177 
L 676.849386 363.834823 
L 680.528287 363.997668 
L 684.207187 362.753994 
L 687.886087 362.636785 
L 691.564987 363.620704 
L 695.243887 363.09333 
L 698.922788 365.586742 
L 702.601688 367.539834 
L 706.280588 368.082337 
L 709.959488 369.467592 
L 713.638388 369.962551 
L 717.317288 369.802224 
L 724.675089 368.033847 
L 728.353989 365.114982 
L 732.032889 365.102158 
L 735.711789 365.328423 
L 739.39069 367.458091 
L 743.06959 368.807985 
L 746.74849 368.355462 
L 750.42739 370.104663 
L 754.10629 368.645679 
L 757.78519 369.599264 
L 761.464091 370.207394 
L 765.142991 369.112023 
L 768.821891 369.559807 
L 772.500791 370.601554 
L 776.179691 370.836055 
L 779.858592 372.483581 
L 783.537492 375.016758 
L 787.216392 375.196127 
L 790.895292 378.733544 
L 794.574192 381.675444 
L 798.253092 384.2781 
L 801.931993 388.213055 
L 805.610893 390.763512 
L 809.289793 394.039581 
L 812.968693 396.849627 
L 812.968693 396.849627 
" clip-path="url(#p100c44db1c)" style="fill: none; stroke: #2ecc71; stroke-width: 2.5; stroke-linecap: square"/>
   </g>
   <g id="line2d_36">
    <path d="M 80.867557 288.180233 
L 84.546457 274.278384 
L 88.225357 257.967015 
L 91.904257 242.564589 
L 99.262058 213.308687 
L 102.940958 200.009142 
L 106.619858 184.042125 
L 110.298758 188.119322 
L 113.977658 190.798284 
L 117.656559 194.367853 
L 121.335459 198.470152 
L 125.014359 201.963396 
L 128.693259 207.401163 
L 132.372159 209.626887 
L 139.72996 210.88413 
L 143.40886 213.878916 
L 147.08776 217.842033 
L 150.76666 221.568304 
L 154.44556 224.81909 
L 158.124461 226.740738 
L 161.803361 230.659033 
L 165.482261 234.910025 
L 169.161161 236.498612 
L 176.518962 243.279329 
L 180.197862 246.878275 
L 183.876762 250.134306 
L 187.555662 252.366565 
L 191.234562 256.300873 
L 198.592363 265.585956 
L 202.271263 267.79821 
L 205.950163 267.967406 
L 209.629063 270.352072 
L 213.307963 273.849255 
L 216.986864 277.132733 
L 220.665764 278.152519 
L 224.344664 283.693461 
L 231.702464 287.60627 
L 235.381364 288.253487 
L 239.060265 287.418094 
L 242.739165 289.132779 
L 246.418065 291.336132 
L 250.096965 293.083394 
L 253.775865 291.825215 
L 257.454766 293.339587 
L 261.133666 296.478263 
L 264.812566 298.061296 
L 268.491466 298.432028 
L 272.170366 300.065151 
L 275.849267 301.994635 
L 279.528167 301.918103 
L 283.207067 303.532025 
L 286.885967 305.388576 
L 290.564867 308.103629 
L 294.243767 311.061745 
L 297.922668 313.702869 
L 301.601568 313.772877 
L 308.959368 319.143098 
L 312.638268 319.612872 
L 316.317169 322.701597 
L 319.996069 324.339577 
L 323.674969 326.157282 
L 327.353869 328.512355 
L 331.032769 329.990652 
L 334.711669 331.737436 
L 338.39057 331.567232 
L 342.06947 331.622934 
L 345.74837 331.250165 
L 349.42727 331.962115 
L 353.10617 333.856096 
L 356.785071 336.662164 
L 360.463971 335.2772 
L 364.142871 338.275064 
L 367.821771 339.817187 
L 371.500671 339.431245 
L 375.179571 340.532603 
L 378.858472 340.716662 
L 382.537372 340.262289 
L 386.216272 340.94883 
L 389.895172 340.122889 
L 393.574072 343.39907 
L 397.252973 344.630215 
L 400.931873 346.134786 
L 404.610773 347.90825 
L 408.289673 347.659418 
L 411.968573 349.156168 
L 415.647473 349.700647 
L 419.326374 349.744 
L 423.005274 351.607263 
L 426.684174 351.418277 
L 430.363074 352.521772 
L 437.720875 357.481 
L 441.399775 357.497262 
L 445.078675 360.249882 
L 448.757575 358.731677 
L 452.436475 361.666925 
L 456.115375 361.521735 
L 459.794276 361.83459 
L 463.473176 362.896741 
L 467.152076 363.035745 
L 470.830976 364.156623 
L 474.509876 364.723486 
L 478.188777 364.085531 
L 481.867677 365.503221 
L 485.546577 365.465726 
L 489.225477 365.26394 
L 492.904377 364.684461 
L 500.262178 366.502653 
L 503.941078 369.607148 
L 507.619978 367.91718 
L 511.298878 369.728913 
L 514.977778 370.618569 
L 518.656679 371.087056 
L 522.335579 370.918873 
L 526.014479 372.219658 
L 529.693379 373.351482 
L 533.372279 374.609091 
L 537.051179 376.007445 
L 540.73008 376.307251 
L 544.40898 377.887514 
L 548.08788 377.502277 
L 551.76678 377.852493 
L 555.44568 376.740834 
L 559.124581 375.326995 
L 566.482381 374.813619 
L 570.161281 376.595455 
L 573.840181 378.080296 
L 577.519081 379.295115 
L 581.197982 379.261325 
L 584.876882 378.631282 
L 588.555782 379.78412 
L 592.234682 379.246028 
L 595.913582 380.580809 
L 599.592483 380.089312 
L 603.271383 382.437882 
L 606.950283 383.940769 
L 610.629183 385.608443 
L 614.308083 387.553167 
L 617.986983 388.404946 
L 621.665884 390.341937 
L 625.344784 387.077877 
L 629.023684 385.987518 
L 632.702584 385.668948 
L 636.381484 386.712129 
L 643.739285 387.086035 
L 647.418185 387.451592 
L 651.097085 385.08384 
L 654.775985 384.970842 
L 658.454886 383.205997 
L 662.133786 383.32148 
L 665.812686 382.547036 
L 669.491586 380.613713 
L 673.170486 382.248902 
L 676.849386 380.294039 
L 680.528287 382.117035 
L 684.207187 383.23434 
L 687.886087 383.133924 
L 691.564987 381.912723 
L 695.243887 382.228342 
L 698.922788 383.279152 
L 702.601688 384.208479 
L 706.280588 386.714415 
L 709.959488 386.932954 
L 713.638388 387.591674 
L 717.317288 387.108987 
L 724.675089 389.726079 
L 728.353989 388.944392 
L 732.032889 390.16893 
L 735.711789 390.07787 
L 739.39069 389.1574 
L 743.06959 389.500331 
L 746.74849 390.54166 
L 750.42739 392.580514 
L 754.10629 391.159684 
L 757.78519 390.595222 
L 761.464091 390.363146 
L 765.142991 391.51731 
L 768.821891 393.071505 
L 772.500791 392.542707 
L 776.179691 391.671722 
L 779.858592 391.600483 
L 787.216392 392.833605 
L 790.895292 395.655909 
L 794.574192 398.266756 
L 798.253092 400.563134 
L 801.931993 402.420465 
L 805.610893 402.982263 
L 809.289793 405.219904 
L 812.968693 407.267185 
L 812.968693 407.267185 
" clip-path="url(#p100c44db1c)" style="fill: none; stroke: #9b59b6; stroke-width: 2.5; stroke-linecap: square"/>
   </g>
   <g id="patch_3">
    <path d="M 44.2625 458.820625 
L 44.2625 24.684375 
" style="fill: none; stroke: #000000; stroke-width: 0.8; stroke-linejoin: miter; stroke-linecap: square"/>
   </g>
   <g id="patch_4">
    <path d="M 849.57375 458.820625 
L 849.57375 24.684375 
" style="fill: none; stroke: #000000; stroke-width: 0.8; stroke-linejoin: miter; stroke-linecap: square"/>
   </g>
   <g id="patch_5">
    <path d="M 44.2625 458.820625 
L 849.57375 458.820625 
" style="fill: none; stroke: #000000; stroke-width: 0.8; stroke-linejoin: miter; stroke-linecap: square"/>
   </g>
   <g id="patch_6">
    <path d="M 44.2625 24.684375 
L 849.57375 24.684375 
" style="fill: none; stroke: #000000; stroke-width: 0.8; stroke-linejoin: miter; stroke-linecap: square"/>
   </g>
   <g id="text_19">
    <text style="font-weight: 700; font-size: 14px; font-family: 'SimHei', 'Microsoft YaHei', 'DejaVu Sans', sans-serif; text-anchor: middle" x="446.918125" y="18.684375" transform="rotate(-0 446.918125 18.684375)">Loss Curves Comparison / 损失曲线对比</text>
   </g>
   <g id="legend_1">
    <g id="patch_7">
     <path d="M 784.67375 91.784375 
L 841.87375 91.784375 
Q 844.07375 91.784375 844.07375 89.584375 
L 844.07375 32.384375 
Q 844.07375 30.184375 841.87375 30.184375 
L 784.67375 30.184375 
Q 782.47375 30.184375 782.47375 32.384375 
L 782.47375 89.584375 
Q 782.47375 91.784375 784.67375 91.784375 
z
" style="fill: #ffffff; opacity: 0.8; stroke: #cccccc; stroke-linejoin: miter"/>
    </g>
    <g id="line2d_37">
     <path d="M 786.87375 38.434375 
L 797.87375 38.434375 
L 808.87375 38.434375 
" style="fill: none; stroke: #3498db; stroke-width: 2.5; stroke-linecap: square"/>
    </g>
    <g id="text_20">
     <text style="font-size: 11px; font-family: 'SimHei', 'Microsoft YaHei', 'DejaVu Sans', sans-serif; text-anchor: start" x="817.67375" y="42.284375" transform="rotate(-0 817.67375 42.284375)">PPO</text>
    </g>
    <g id="line2d_38">
     <path d="M 786.87375 53.009375 
L 797.87375 53.009375 
L 808.87375 53.009375 
" style="fill: none; stroke: #e74c3c; stroke-width: 2.5; stroke-linecap: square"/>
    </g>
    <g id="text_21">
     <text style="font-size: 11px; font-family: 'SimHei', 'Microsoft YaHei', 'DejaVu Sans', sans-serif; text-anchor: start" x="817.67375" y="56.859375" transform="rotate(-0 817.67375 56.859375)">DPO</text>
    </g>
    <g id="line2d_39">
     <path d="M 786.87375 67.584375 
L 797.87375 67.584375 
L 808.87375 67.584375 
" style="fill: none; stroke: #2ecc71; stroke-width: 2.5; stroke-linecap: square"/>
    </g>
    <g id="text_22">
     <text style="font-size: 11px; font-family: 'SimHei', 'Microsoft YaHei', 'DejaVu Sans', sans-serif; text-anchor: start" x="817.67375" y="71.434375" transform="rotate(-0 817.67375 71.434375)">GRPO</text>
    </g>
    <g id="line2d_40">
     <path d="M 786.87375 82.159375 
L 797.87375 82.159375 
L 808.87375 82.159375 
" style="fill: none; stroke: #9b59b6; stroke-width: 2.5; stroke-linecap: square"/>
    </g>
    <g id="text_23">
     <text style="font-size: 11px; font-family: 'SimHei', 'Microsoft YaHei', 'DejaVu Sans', sans-serif; text-anchor: start" x="817.67375" y="86.009375" transform="rotate(-0 817.67375 86.009375)">DAPO</text>
    </g>
   </g>
  </g>
 </g>
 <defs>
  <clipPath id="p100c44db1c">
   <rect x="44.2625" y="24.684375" width="805.31125" height="434.13625"/>
  </clipPath>
 </defs>
</svg>
