<?xml version="1.0" encoding="utf-8" standalone="no"?>
<!DOCTYPE svg PUBLIC "-//W3C//DTD SVG 1.1//EN"
  "http://www.w3.org/Graphics/SVG/1.1/DTD/svg11.dtd">
<svg xmlns:xlink="http://www.w3.org/1999/xlink" width="856.508125pt" height="496.339063pt" viewBox="0 0 856.508125 496.339063" xmlns="http://www.w3.org/2000/svg" version="1.1">
 <metadata>
  <rdf:RDF xmlns:dc="http://purl.org/dc/elements/1.1/" xmlns:cc="http://creativecommons.org/ns#" xmlns:rdf="http://www.w3.org/1999/02/22-rdf-syntax-ns#">
   <cc:Work>
    <dc:type rdf:resource="http://purl.org/dc/dcmitype/StillImage"/>
    <dc:date>2026-04-17T11:17:57.150295</dc:date>
    <dc:format>image/svg+xml</dc:format>
    <dc:creator>
     <cc:Agent>
      <dc:title>Matplotlib v3.10.8, https://matplotlib.org/</dc:title>
     </cc:Agent>
    </dc:creator>
   </cc:Work>
  </rdf:RDF>
 </metadata>
 <defs>
  <style type="text/css">*{stroke-linejoin: round; stroke-linecap: butt}</style>
 </defs>
 <g id="figure_1">
  <g id="patch_1">
   <path d="M 0 496.339063 
L 856.508125 496.339063 
L 856.508125 0 
L 0 0 
z
" style="fill: #f8f9fa"/>
  </g>
  <g id="axes_1">
   <g id="patch_2">
    <path d="M 39.215625 458.810938 
L 849.308125 458.810938 
L 849.308125 24.629687 
L 39.215625 24.629687 
z
" style="fill: #f8f9fa"/>
   </g>
   <g id="FillBetweenPolyCollection_1">
    <defs>
     <path id="me3964fafcd" d="M 76.038011 -57.263636 
L 76.038011 -124.162513 
L 79.738754 -152.531232 
L 83.439496 -147.32047 
L 87.140238 -129.177451 
L 90.840981 -143.555362 
L 94.541723 -173.498007 
L 98.242465 -127.780407 
L 101.943208 -154.848409 
L 105.64395 -178.241121 
L 109.344692 -155.710329 
L 113.045435 -160.9523 
L 116.746177 -170.90251 
L 120.44692 -192.82076 
L 124.147662 -170.150089 
L 127.848404 -175.310679 
L 131.549147 -178.21018 
L 135.249889 -212.60333 
L 138.950631 -215.079495 
L 142.651374 -203.569561 
L 146.352116 -198.792726 
L 150.052858 -205.594418 
L 153.753601 -217.180218 
L 157.454343 -190.612531 
L 161.155085 -218.408045 
L 164.855828 -191.731717 
L 168.55657 -201.530587 
L 172.257312 -222.427715 
L 175.958055 -196.774529 
L 179.658797 -214.533082 
L 183.359539 -208.161755 
L 187.060282 -217.674457 
L 190.761024 -189.407528 
L 194.461767 -203.902435 
L 198.162509 -218.900977 
L 201.863251 -240.529866 
L 205.563994 -229.423359 
L 209.264736 -233.601295 
L 212.965478 -243.850012 
L 216.666221 -227.061954 
L 220.366963 -242.980546 
L 224.067705 -231.874903 
L 227.768448 -222.739723 
L 231.46919 -240.656405 
L 235.169932 -254.08637 
L 238.870675 -253.106609 
L 242.571417 -250.719838 
L 246.272159 -281.326422 
L 249.972902 -259.361633 
L 253.673644 -267.881622 
L 257.374386 -284.690826 
L 261.075129 -244.039253 
L 264.775871 -248.76412 
L 268.476613 -283.758508 
L 272.177356 -254.908485 
L 275.878098 -266.425358 
L 279.578841 -280.459458 
L 283.279583 -279.868406 
L 286.980325 -291.755099 
L 290.681068 -290.153864 
L 294.38181 -286.529351 
L 298.082552 -265.912238 
L 301.783295 -286.145498 
L 305.484037 -281.807337 
L 309.184779 -263.544925 
L 312.885522 -297.814063 
L 316.586264 -291.864267 
L 320.287006 -284.076931 
L 323.987749 -282.062141 
L 327.688491 -271.79809 
L 331.389233 -289.840786 
L 335.089976 -294.33318 
L 338.790718 -280.006138 
L 342.49146 -305.13339 
L 346.192203 -279.266006 
L 349.892945 -268.167238 
L 353.593687 -307.260963 
L 357.29443 -291.127586 
L 360.995172 -295.600169 
L 364.695915 -288.203615 
L 368.396657 -280.108249 
L 372.097399 -315.504973 
L 375.798142 -293.285748 
L 379.498884 -322.521683 
L 383.199626 -313.343085 
L 386.900369 -300.932013 
L 390.601111 -292.712644 
L 394.301853 -297.958942 
L 398.002596 -293.199885 
L 401.703338 -333.733266 
L 405.40408 -311.653855 
L 409.104823 -324.423628 
L 412.805565 -296.384866 
L 416.506307 -314.673156 
L 420.20705 -327.535529 
L 423.907792 -310.301625 
L 427.608534 -327.564978 
L 431.309277 -303.079935 
L 435.010019 -300.599614 
L 438.710761 -322.341717 
L 442.411504 -314.087333 
L 446.112246 -327.155296 
L 449.812989 -296.565438 
L 453.513731 -329.615178 
L 457.214473 -353.014762 
L 460.915216 -322.354908 
L 464.615958 -323.829013 
L 468.3167 -326.33073 
L 472.017443 -302.607317 
L 475.718185 -330.772002 
L 479.418927 -307.147015 
L 483.11967 -321.980858 
L 486.820412 -342.71187 
L 490.521154 -319.697321 
L 494.221897 -335.205157 
L 497.922639 -342.0131 
L 501.623381 -333.881998 
L 505.324124 -314.765207 
L 509.024866 -327.861609 
L 512.725608 -355.973255 
L 516.426351 -308.842429 
L 520.127093 -330.431699 
L 523.827835 -327.731873 
L 527.528578 -336.40098 
L 531.22932 -344.517477 
L 534.930063 -355.418546 
L 538.630805 -333.474612 
L 542.331547 -347.021409 
L 546.03229 -343.836406 
L 549.733032 -344.086146 
L 553.433774 -332.186835 
L 557.134517 -327.530288 
L 560.835259 -326.829855 
L 564.536001 -331.47194 
L 568.236744 -344.911136 
L 571.937486 -350.685103 
L 575.638228 -345.94249 
L 579.338971 -335.979177 
L 583.039713 -364.694508 
L 586.740455 -361.733392 
L 590.441198 -339.757227 
L 594.14194 -334.597062 
L 597.842682 -346.488451 
L 601.543425 -360.572144 
L 605.244167 -349.817296 
L 608.944909 -352.940647 
L 612.645652 -344.161874 
L 616.346394 -352.601754 
L 620.047137 -366.069093 
L 623.747879 -345.098458 
L 627.448621 -350.09963 
L 631.149364 -351.828958 
L 634.850106 -352.586409 
L 638.550848 -332.654666 
L 642.251591 -327.468739 
L 645.952333 -338.126207 
L 649.653075 -352.738505 
L 653.353818 -357.735823 
L 657.05456 -345.101917 
L 660.755302 -368.33293 
L 664.456045 -350.463622 
L 668.156787 -352.774179 
L 671.857529 -350.551476 
L 675.558272 -354.823967 
L 679.259014 -361.997906 
L 682.959756 -361.863894 
L 686.660499 -343.442214 
L 690.361241 -372.797324 
L 694.061983 -341.724978 
L 697.762726 -356.113464 
L 701.463468 -352.183125 
L 705.164211 -343.202299 
L 708.864953 -355.175711 
L 712.565695 -347.491708 
L 716.266438 -357.536985 
L 719.96718 -361.781994 
L 723.667922 -374.877171 
L 727.368665 -361.197104 
L 731.069407 -350.461064 
L 734.770149 -353.3647 
L 738.470892 -360.004286 
L 742.171634 -359.710315 
L 745.872376 -376.345736 
L 749.573119 -375.831945 
L 753.273861 -355.056164 
L 756.974603 -353.031171 
L 760.675346 -329.202142 
L 764.376088 -353.515255 
L 768.07683 -348.6098 
L 771.777573 -356.315538 
L 775.478315 -365.494423 
L 779.179058 -363.153075 
L 782.8798 -360.895169 
L 786.580542 -363.868838 
L 790.281285 -360.183674 
L 793.982027 -364.272893 
L 797.682769 -323.393961 
L 801.383512 -359.105822 
L 805.084254 -361.211829 
L 808.784996 -358.653783 
L 812.485739 -360.332901 
L 812.485739 -57.263636 
L 812.485739 -57.263636 
L 808.784996 -57.263636 
L 805.084254 -57.263636 
L 801.383512 -57.263636 
L 797.682769 -57.263636 
L 793.982027 -57.263636 
L 790.281285 -57.263636 
L 786.580542 -57.263636 
L 782.8798 -57.263636 
L 779.179058 -57.263636 
L 775.478315 -57.263636 
L 771.777573 -57.263636 
L 768.07683 -57.263636 
L 764.376088 -57.263636 
L 760.675346 -57.263636 
L 756.974603 -57.263636 
L 753.273861 -57.263636 
L 749.573119 -57.263636 
L 745.872376 -57.263636 
L 742.171634 -57.263636 
L 738.470892 -57.263636 
L 734.770149 -57.263636 
L 731.069407 -57.263636 
L 727.368665 -57.263636 
L 723.667922 -57.263636 
L 719.96718 -57.263636 
L 716.266438 -57.263636 
L 712.565695 -57.263636 
L 708.864953 -57.263636 
L 705.164211 -57.263636 
L 701.463468 -57.263636 
L 697.762726 -57.263636 
L 694.061983 -57.263636 
L 690.361241 -57.263636 
L 686.660499 -57.263636 
L 682.959756 -57.263636 
L 679.259014 -57.263636 
L 675.558272 -57.263636 
L 671.857529 -57.263636 
L 668.156787 -57.263636 
L 664.456045 -57.263636 
L 660.755302 -57.263636 
L 657.05456 -57.263636 
L 653.353818 -57.263636 
L 649.653075 -57.263636 
L 645.952333 -57.263636 
L 642.251591 -57.263636 
L 638.550848 -57.263636 
L 634.850106 -57.263636 
L 631.149364 -57.263636 
L 627.448621 -57.263636 
L 623.747879 -57.263636 
L 620.047137 -57.263636 
L 616.346394 -57.263636 
L 612.645652 -57.263636 
L 608.944909 -57.263636 
L 605.244167 -57.263636 
L 601.543425 -57.263636 
L 597.842682 -57.263636 
L 594.14194 -57.263636 
L 590.441198 -57.263636 
L 586.740455 -57.263636 
L 583.039713 -57.263636 
L 579.338971 -57.263636 
L 575.638228 -57.263636 
L 571.937486 -57.263636 
L 568.236744 -57.263636 
L 564.536001 -57.263636 
L 560.835259 -57.263636 
L 557.134517 -57.263636 
L 553.433774 -57.263636 
L 549.733032 -57.263636 
L 546.03229 -57.263636 
L 542.331547 -57.263636 
L 538.630805 -57.263636 
L 534.930063 -57.263636 
L 531.22932 -57.263636 
L 527.528578 -57.263636 
L 523.827835 -57.263636 
L 520.127093 -57.263636 
L 516.426351 -57.263636 
L 512.725608 -57.263636 
L 509.024866 -57.263636 
L 505.324124 -57.263636 
L 501.623381 -57.263636 
L 497.922639 -57.263636 
L 494.221897 -57.263636 
L 490.521154 -57.263636 
L 486.820412 -57.263636 
L 483.11967 -57.263636 
L 479.418927 -57.263636 
L 475.718185 -57.263636 
L 472.017443 -57.263636 
L 468.3167 -57.263636 
L 464.615958 -57.263636 
L 460.915216 -57.263636 
L 457.214473 -57.263636 
L 453.513731 -57.263636 
L 449.812989 -57.263636 
L 446.112246 -57.263636 
L 442.411504 -57.263636 
L 438.710761 -57.263636 
L 435.010019 -57.263636 
L 431.309277 -57.263636 
L 427.608534 -57.263636 
L 423.907792 -57.263636 
L 420.20705 -57.263636 
L 416.506307 -57.263636 
L 412.805565 -57.263636 
L 409.104823 -57.263636 
L 405.40408 -57.263636 
L 401.703338 -57.263636 
L 398.002596 -57.263636 
L 394.301853 -57.263636 
L 390.601111 -57.263636 
L 386.900369 -57.263636 
L 383.199626 -57.263636 
L 379.498884 -57.263636 
L 375.798142 -57.263636 
L 372.097399 -57.263636 
L 368.396657 -57.263636 
L 364.695915 -57.263636 
L 360.995172 -57.263636 
L 357.29443 -57.263636 
L 353.593687 -57.263636 
L 349.892945 -57.263636 
L 346.192203 -57.263636 
L 342.49146 -57.263636 
L 338.790718 -57.263636 
L 335.089976 -57.263636 
L 331.389233 -57.263636 
L 327.688491 -57.263636 
L 323.987749 -57.263636 
L 320.287006 -57.263636 
L 316.586264 -57.263636 
L 312.885522 -57.263636 
L 309.184779 -57.263636 
L 305.484037 -57.263636 
L 301.783295 -57.263636 
L 298.082552 -57.263636 
L 294.38181 -57.263636 
L 290.681068 -57.263636 
L 286.980325 -57.263636 
L 283.279583 -57.263636 
L 279.578841 -57.263636 
L 275.878098 -57.263636 
L 272.177356 -57.263636 
L 268.476613 -57.263636 
L 264.775871 -57.263636 
L 261.075129 -57.263636 
L 257.374386 -57.263636 
L 253.673644 -57.263636 
L 249.972902 -57.263636 
L 246.272159 -57.263636 
L 242.571417 -57.263636 
L 238.870675 -57.263636 
L 235.169932 -57.263636 
L 231.46919 -57.263636 
L 227.768448 -57.263636 
L 224.067705 -57.263636 
L 220.366963 -57.263636 
L 216.666221 -57.263636 
L 212.965478 -57.263636 
L 209.264736 -57.263636 
L 205.563994 -57.263636 
L 201.863251 -57.263636 
L 198.162509 -57.263636 
L 194.461767 -57.263636 
L 190.761024 -57.263636 
L 187.060282 -57.263636 
L 183.359539 -57.263636 
L 179.658797 -57.263636 
L 175.958055 -57.263636 
L 172.257312 -57.263636 
L 168.55657 -57.263636 
L 164.855828 -57.263636 
L 161.155085 -57.263636 
L 157.454343 -57.263636 
L 153.753601 -57.263636 
L 150.052858 -57.263636 
L 146.352116 -57.263636 
L 142.651374 -57.263636 
L 138.950631 -57.263636 
L 135.249889 -57.263636 
L 131.549147 -57.263636 
L 127.848404 -57.263636 
L 124.147662 -57.263636 
L 120.44692 -57.263636 
L 116.746177 -57.263636 
L 113.045435 -57.263636 
L 109.344692 -57.263636 
L 105.64395 -57.263636 
L 101.943208 -57.263636 
L 98.242465 -57.263636 
L 94.541723 -57.263636 
L 90.840981 -57.263636 
L 87.140238 -57.263636 
L 83.439496 -57.263636 
L 79.738754 -57.263636 
L 76.038011 -57.263636 
z
" style="stroke: #3498db; stroke-opacity: 0.08"/>
    </defs>
    <g clip-path="url(#pfb6b7238a1)">
     <use xlink:href="#me3964fafcd" x="0" y="496.339063" style="fill: #3498db; fill-opacity: 0.08; stroke: #3498db; stroke-opacity: 0.08"/>
    </g>
   </g>
   <g id="FillBetweenPolyCollection_2">
    <defs>
     <path id="mc5f833d25b" d="M 76.038011 -57.263636 
L 76.038011 -165.584259 
L 79.738754 -153.034447 
L 83.439496 -189.586707 
L 87.140238 -174.415382 
L 90.840981 -169.001737 
L 94.541723 -169.468103 
L 98.242465 -173.732402 
L 101.943208 -166.578992 
L 105.64395 -179.148064 
L 109.344692 -186.326585 
L 113.045435 -192.588561 
L 116.746177 -195.205438 
L 120.44692 -187.537069 
L 124.147662 -176.393515 
L 127.848404 -187.844572 
L 131.549147 -217.649077 
L 135.249889 -211.48638 
L 138.950631 -207.560566 
L 142.651374 -196.352614 
L 146.352116 -207.834066 
L 150.052858 -195.015857 
L 153.753601 -205.693561 
L 157.454343 -211.578287 
L 161.155085 -212.35684 
L 164.855828 -230.299432 
L 168.55657 -203.935179 
L 172.257312 -212.643599 
L 175.958055 -208.583733 
L 179.658797 -212.243218 
L 183.359539 -230.544726 
L 187.060282 -211.825771 
L 190.761024 -241.968923 
L 194.461767 -231.867015 
L 198.162509 -237.514322 
L 201.863251 -242.392194 
L 205.563994 -235.128978 
L 209.264736 -254.489535 
L 212.965478 -241.536789 
L 216.666221 -252.713546 
L 220.366963 -244.905647 
L 224.067705 -252.452918 
L 227.768448 -253.966857 
L 231.46919 -255.234104 
L 235.169932 -242.157292 
L 238.870675 -260.634895 
L 242.571417 -253.136805 
L 246.272159 -266.043923 
L 249.972902 -234.187814 
L 253.673644 -243.907325 
L 257.374386 -267.283416 
L 261.075129 -286.692635 
L 264.775871 -275.785042 
L 268.476613 -258.986637 
L 272.177356 -248.255188 
L 275.878098 -278.789503 
L 279.578841 -270.250058 
L 283.279583 -279.605308 
L 286.980325 -275.195377 
L 290.681068 -275.437632 
L 294.38181 -311.796442 
L 298.082552 -277.488995 
L 301.783295 -276.865388 
L 305.484037 -278.511706 
L 309.184779 -274.14778 
L 312.885522 -294.168176 
L 316.586264 -279.198677 
L 320.287006 -292.184038 
L 323.987749 -289.077503 
L 327.688491 -301.365824 
L 331.389233 -292.862107 
L 335.089976 -274.335938 
L 338.790718 -274.019158 
L 342.49146 -307.824501 
L 346.192203 -284.65361 
L 349.892945 -277.112394 
L 353.593687 -285.892579 
L 357.29443 -310.040055 
L 360.995172 -278.804735 
L 364.695915 -286.374942 
L 368.396657 -289.687212 
L 372.097399 -283.586949 
L 375.798142 -285.279232 
L 379.498884 -282.155476 
L 383.199626 -295.688414 
L 386.900369 -297.81299 
L 390.601111 -294.723403 
L 394.301853 -283.907144 
L 398.002596 -319.565502 
L 401.703338 -289.410424 
L 405.40408 -309.462247 
L 409.104823 -294.0221 
L 412.805565 -315.679916 
L 416.506307 -319.878438 
L 420.20705 -298.641895 
L 423.907792 -286.831792 
L 427.608534 -318.949506 
L 431.309277 -333.80135 
L 435.010019 -316.995761 
L 438.710761 -314.623129 
L 442.411504 -323.200372 
L 446.112246 -323.209651 
L 449.812989 -304.757009 
L 453.513731 -307.437697 
L 457.214473 -323.299284 
L 460.915216 -314.87293 
L 464.615958 -332.996895 
L 468.3167 -309.378545 
L 472.017443 -327.415924 
L 475.718185 -323.113652 
L 479.418927 -318.069964 
L 483.11967 -334.251176 
L 486.820412 -328.869131 
L 490.521154 -309.223794 
L 494.221897 -329.488819 
L 497.922639 -338.832564 
L 501.623381 -321.315161 
L 505.324124 -320.418104 
L 509.024866 -315.883739 
L 512.725608 -324.251777 
L 516.426351 -333.136676 
L 520.127093 -315.598958 
L 523.827835 -309.743079 
L 527.528578 -321.851654 
L 531.22932 -310.284022 
L 534.930063 -333.553974 
L 538.630805 -322.620286 
L 542.331547 -307.139034 
L 546.03229 -324.441 
L 549.733032 -326.743128 
L 553.433774 -334.861351 
L 557.134517 -328.154371 
L 560.835259 -352.709682 
L 564.536001 -324.498457 
L 568.236744 -330.368375 
L 571.937486 -330.276922 
L 575.638228 -328.510817 
L 579.338971 -333.988077 
L 583.039713 -339.144868 
L 586.740455 -349.091381 
L 590.441198 -314.582441 
L 594.14194 -327.634847 
L 597.842682 -328.738795 
L 601.543425 -345.696506 
L 605.244167 -330.522598 
L 608.944909 -312.418677 
L 612.645652 -336.520208 
L 616.346394 -335.392484 
L 620.047137 -338.273669 
L 623.747879 -323.968556 
L 627.448621 -357.355492 
L 631.149364 -333.175836 
L 634.850106 -335.104253 
L 638.550848 -326.871908 
L 642.251591 -326.794649 
L 645.952333 -323.587436 
L 649.653075 -333.814955 
L 653.353818 -327.332122 
L 657.05456 -363.73768 
L 660.755302 -316.722623 
L 664.456045 -326.102855 
L 668.156787 -335.080479 
L 671.857529 -348.225359 
L 675.558272 -335.448916 
L 679.259014 -348.763492 
L 682.959756 -329.080641 
L 686.660499 -341.864644 
L 690.361241 -362.300354 
L 694.061983 -330.031905 
L 697.762726 -346.89498 
L 701.463468 -344.576149 
L 705.164211 -315.333537 
L 708.864953 -335.485475 
L 712.565695 -356.323946 
L 716.266438 -344.600501 
L 719.96718 -328.663115 
L 723.667922 -351.684352 
L 727.368665 -337.867529 
L 731.069407 -348.129961 
L 734.770149 -348.532473 
L 738.470892 -330.802041 
L 742.171634 -353.873404 
L 745.872376 -332.520317 
L 749.573119 -329.133271 
L 753.273861 -334.388651 
L 756.974603 -341.005085 
L 760.675346 -346.644852 
L 764.376088 -336.24974 
L 768.07683 -354.61298 
L 771.777573 -348.870961 
L 775.478315 -337.697401 
L 779.179058 -356.848557 
L 782.8798 -360.27387 
L 786.580542 -345.334927 
L 790.281285 -344.099904 
L 793.982027 -325.571585 
L 797.682769 -342.102889 
L 801.383512 -343.645282 
L 805.084254 -350.230373 
L 808.784996 -345.417407 
L 812.485739 -350.506414 
L 812.485739 -57.263636 
L 812.485739 -57.263636 
L 808.784996 -57.263636 
L 805.084254 -57.263636 
L 801.383512 -57.263636 
L 797.682769 -57.263636 
L 793.982027 -57.263636 
L 790.281285 -57.263636 
L 786.580542 -57.263636 
L 782.8798 -57.263636 
L 779.179058 -57.263636 
L 775.478315 -57.263636 
L 771.777573 -57.263636 
L 768.07683 -57.263636 
L 764.376088 -57.263636 
L 760.675346 -57.263636 
L 756.974603 -57.263636 
L 753.273861 -57.263636 
L 749.573119 -57.263636 
L 745.872376 -57.263636 
L 742.171634 -57.263636 
L 738.470892 -57.263636 
L 734.770149 -57.263636 
L 731.069407 -57.263636 
L 727.368665 -57.263636 
L 723.667922 -57.263636 
L 719.96718 -57.263636 
L 716.266438 -57.263636 
L 712.565695 -57.263636 
L 708.864953 -57.263636 
L 705.164211 -57.263636 
L 701.463468 -57.263636 
L 697.762726 -57.263636 
L 694.061983 -57.263636 
L 690.361241 -57.263636 
L 686.660499 -57.263636 
L 682.959756 -57.263636 
L 679.259014 -57.263636 
L 675.558272 -57.263636 
L 671.857529 -57.263636 
L 668.156787 -57.263636 
L 664.456045 -57.263636 
L 660.755302 -57.263636 
L 657.05456 -57.263636 
L 653.353818 -57.263636 
L 649.653075 -57.263636 
L 645.952333 -57.263636 
L 642.251591 -57.263636 
L 638.550848 -57.263636 
L 634.850106 -57.263636 
L 631.149364 -57.263636 
L 627.448621 -57.263636 
L 623.747879 -57.263636 
L 620.047137 -57.263636 
L 616.346394 -57.263636 
L 612.645652 -57.263636 
L 608.944909 -57.263636 
L 605.244167 -57.263636 
L 601.543425 -57.263636 
L 597.842682 -57.263636 
L 594.14194 -57.263636 
L 590.441198 -57.263636 
L 586.740455 -57.263636 
L 583.039713 -57.263636 
L 579.338971 -57.263636 
L 575.638228 -57.263636 
L 571.937486 -57.263636 
L 568.236744 -57.263636 
L 564.536001 -57.263636 
L 560.835259 -57.263636 
L 557.134517 -57.263636 
L 553.433774 -57.263636 
L 549.733032 -57.263636 
L 546.03229 -57.263636 
L 542.331547 -57.263636 
L 538.630805 -57.263636 
L 534.930063 -57.263636 
L 531.22932 -57.263636 
L 527.528578 -57.263636 
L 523.827835 -57.263636 
L 520.127093 -57.263636 
L 516.426351 -57.263636 
L 512.725608 -57.263636 
L 509.024866 -57.263636 
L 505.324124 -57.263636 
L 501.623381 -57.263636 
L 497.922639 -57.263636 
L 494.221897 -57.263636 
L 490.521154 -57.263636 
L 486.820412 -57.263636 
L 483.11967 -57.263636 
L 479.418927 -57.263636 
L 475.718185 -57.263636 
L 472.017443 -57.263636 
L 468.3167 -57.263636 
L 464.615958 -57.263636 
L 460.915216 -57.263636 
L 457.214473 -57.263636 
L 453.513731 -57.263636 
L 449.812989 -57.263636 
L 446.112246 -57.263636 
L 442.411504 -57.263636 
L 438.710761 -57.263636 
L 435.010019 -57.263636 
L 431.309277 -57.263636 
L 427.608534 -57.263636 
L 423.907792 -57.263636 
L 420.20705 -57.263636 
L 416.506307 -57.263636 
L 412.805565 -57.263636 
L 409.104823 -57.263636 
L 405.40408 -57.263636 
L 401.703338 -57.263636 
L 398.002596 -57.263636 
L 394.301853 -57.263636 
L 390.601111 -57.263636 
L 386.900369 -57.263636 
L 383.199626 -57.263636 
L 379.498884 -57.263636 
L 375.798142 -57.263636 
L 372.097399 -57.263636 
L 368.396657 -57.263636 
L 364.695915 -57.263636 
L 360.995172 -57.263636 
L 357.29443 -57.263636 
L 353.593687 -57.263636 
L 349.892945 -57.263636 
L 346.192203 -57.263636 
L 342.49146 -57.263636 
L 338.790718 -57.263636 
L 335.089976 -57.263636 
L 331.389233 -57.263636 
L 327.688491 -57.263636 
L 323.987749 -57.263636 
L 320.287006 -57.263636 
L 316.586264 -57.263636 
L 312.885522 -57.263636 
L 309.184779 -57.263636 
L 305.484037 -57.263636 
L 301.783295 -57.263636 
L 298.082552 -57.263636 
L 294.38181 -57.263636 
L 290.681068 -57.263636 
L 286.980325 -57.263636 
L 283.279583 -57.263636 
L 279.578841 -57.263636 
L 275.878098 -57.263636 
L 272.177356 -57.263636 
L 268.476613 -57.263636 
L 264.775871 -57.263636 
L 261.075129 -57.263636 
L 257.374386 -57.263636 
L 253.673644 -57.263636 
L 249.972902 -57.263636 
L 246.272159 -57.263636 
L 242.571417 -57.263636 
L 238.870675 -57.263636 
L 235.169932 -57.263636 
L 231.46919 -57.263636 
L 227.768448 -57.263636 
L 224.067705 -57.263636 
L 220.366963 -57.263636 
L 216.666221 -57.263636 
L 212.965478 -57.263636 
L 209.264736 -57.263636 
L 205.563994 -57.263636 
L 201.863251 -57.263636 
L 198.162509 -57.263636 
L 194.461767 -57.263636 
L 190.761024 -57.263636 
L 187.060282 -57.263636 
L 183.359539 -57.263636 
L 179.658797 -57.263636 
L 175.958055 -57.263636 
L 172.257312 -57.263636 
L 168.55657 -57.263636 
L 164.855828 -57.263636 
L 161.155085 -57.263636 
L 157.454343 -57.263636 
L 153.753601 -57.263636 
L 150.052858 -57.263636 
L 146.352116 -57.263636 
L 142.651374 -57.263636 
L 138.950631 -57.263636 
L 135.249889 -57.263636 
L 131.549147 -57.263636 
L 127.848404 -57.263636 
L 124.147662 -57.263636 
L 120.44692 -57.263636 
L 116.746177 -57.263636 
L 113.045435 -57.263636 
L 109.344692 -57.263636 
L 105.64395 -57.263636 
L 101.943208 -57.263636 
L 98.242465 -57.263636 
L 94.541723 -57.263636 
L 90.840981 -57.263636 
L 87.140238 -57.263636 
L 83.439496 -57.263636 
L 79.738754 -57.263636 
L 76.038011 -57.263636 
z
" style="stroke: #e74c3c; stroke-opacity: 0.08"/>
    </defs>
    <g clip-path="url(#pfb6b7238a1)">
     <use xlink:href="#mc5f833d25b" x="0" y="496.339063" style="fill: #e74c3c; fill-opacity: 0.08; stroke: #e74c3c; stroke-opacity: 0.08"/>
    </g>
   </g>
   <g id="FillBetweenPolyCollection_3">
    <defs>
     <path id="m5fc8e834f4" d="M 76.038011 -57.263636 
L 76.038011 -135.586603 
L 79.738754 -115.798871 
L 83.439496 -121.13691 
L 87.140238 -116.120112 
L 90.840981 -136.420582 
L 94.541723 -152.866951 
L 98.242465 -124.725392 
L 101.943208 -142.215416 
L 105.64395 -155.035426 
L 109.344692 -169.129481 
L 113.045435 -167.792035 
L 116.746177 -171.296636 
L 120.44692 -168.829989 
L 124.147662 -181.350196 
L 127.848404 -191.720577 
L 131.549147 -162.999243 
L 135.249889 -196.074936 
L 138.950631 -189.95203 
L 142.651374 -188.513993 
L 146.352116 -169.251524 
L 150.052858 -185.598922 
L 153.753601 -226.048338 
L 157.454343 -200.930905 
L 161.155085 -199.614196 
L 164.855828 -210.522003 
L 168.55657 -210.381327 
L 172.257312 -224.069234 
L 175.958055 -243.973586 
L 179.658797 -221.916483 
L 183.359539 -233.903636 
L 187.060282 -221.357171 
L 190.761024 -256.335076 
L 194.461767 -243.333707 
L 198.162509 -231.005833 
L 201.863251 -257.670861 
L 205.563994 -264.025608 
L 209.264736 -254.340934 
L 212.965478 -235.472757 
L 216.666221 -279.195811 
L 220.366963 -264.143907 
L 224.067705 -277.042304 
L 227.768448 -258.951836 
L 231.46919 -263.278044 
L 235.169932 -271.839905 
L 238.870675 -286.28106 
L 242.571417 -277.027919 
L 246.272159 -262.588169 
L 249.972902 -283.095043 
L 253.673644 -301.750543 
L 257.374386 -285.231996 
L 261.075129 -288.182903 
L 264.775871 -273.650713 
L 268.476613 -274.084256 
L 272.177356 -285.339778 
L 275.878098 -291.117403 
L 279.578841 -298.292456 
L 283.279583 -301.014898 
L 286.980325 -320.175148 
L 290.681068 -303.592419 
L 294.38181 -317.531899 
L 298.082552 -306.154195 
L 301.783295 -325.815527 
L 305.484037 -287.819693 
L 309.184779 -304.825335 
L 312.885522 -325.518953 
L 316.586264 -313.383252 
L 320.287006 -328.282679 
L 323.987749 -323.381069 
L 327.688491 -331.724907 
L 331.389233 -329.330279 
L 335.089976 -331.624795 
L 338.790718 -342.982097 
L 342.49146 -338.433913 
L 346.192203 -340.013659 
L 349.892945 -329.813024 
L 353.593687 -324.036676 
L 357.29443 -324.524274 
L 360.995172 -342.827377 
L 364.695915 -305.969118 
L 368.396657 -320.879479 
L 372.097399 -326.329611 
L 375.798142 -336.213395 
L 379.498884 -308.92306 
L 383.199626 -356.816526 
L 386.900369 -350.164604 
L 390.601111 -367.980667 
L 394.301853 -358.125644 
L 398.002596 -358.925423 
L 401.703338 -374.714755 
L 405.40408 -342.034984 
L 409.104823 -331.981034 
L 412.805565 -348.322683 
L 416.506307 -342.305801 
L 420.20705 -350.185031 
L 423.907792 -341.726293 
L 427.608534 -362.156069 
L 431.309277 -362.51485 
L 435.010019 -357.043117 
L 438.710761 -362.084193 
L 442.411504 -357.613818 
L 446.112246 -369.282293 
L 449.812989 -362.038095 
L 453.513731 -358.941535 
L 457.214473 -374.170999 
L 460.915216 -379.031372 
L 464.615958 -380.825141 
L 468.3167 -353.7838 
L 472.017443 -360.094219 
L 475.718185 -346.937519 
L 479.418927 -365.292155 
L 483.11967 -373.945005 
L 486.820412 -368.157043 
L 490.521154 -393.672484 
L 494.221897 -366.428891 
L 497.922639 -358.999188 
L 501.623381 -379.602333 
L 505.324124 -375.313591 
L 509.024866 -380.821372 
L 512.725608 -378.579057 
L 516.426351 -378.552634 
L 520.127093 -350.87264 
L 523.827835 -368.278789 
L 527.528578 -370.56572 
L 531.22932 -374.119209 
L 534.930063 -373.553044 
L 538.630805 -384.503318 
L 542.331547 -387.374339 
L 546.03229 -367.213433 
L 549.733032 -389.607327 
L 553.433774 -388.982879 
L 557.134517 -388.121444 
L 560.835259 -366.109718 
L 564.536001 -388.944991 
L 568.236744 -385.202687 
L 571.937486 -396.270278 
L 575.638228 -406.671974 
L 579.338971 -404.841149 
L 583.039713 -387.668936 
L 586.740455 -386.801158 
L 590.441198 -394.895274 
L 594.14194 -374.442826 
L 597.842682 -370.899845 
L 601.543425 -383.097159 
L 605.244167 -403.856605 
L 608.944909 -385.713578 
L 612.645652 -408.143258 
L 616.346394 -357.153392 
L 620.047137 -371.983047 
L 623.747879 -389.953393 
L 627.448621 -402.503014 
L 631.149364 -391.435236 
L 634.850106 -391.5298 
L 638.550848 -391.616935 
L 642.251591 -372.337938 
L 645.952333 -407.737787 
L 649.653075 -386.052401 
L 653.353818 -407.67068 
L 657.05456 -394.133182 
L 660.755302 -408.144185 
L 664.456045 -399.810736 
L 668.156787 -394.76742 
L 671.857529 -399.102425 
L 675.558272 -379.07242 
L 679.259014 -397.133888 
L 682.959756 -417.958857 
L 686.660499 -413.392035 
L 690.361241 -386.220295 
L 694.061983 -404.40057 
L 697.762726 -401.617757 
L 701.463468 -408.741955 
L 705.164211 -400.371281 
L 708.864953 -396.735041 
L 712.565695 -415.770554 
L 716.266438 -402.696202 
L 719.96718 -415.428438 
L 723.667922 -412.331741 
L 727.368665 -397.03041 
L 731.069407 -399.18178 
L 734.770149 -424.575382 
L 738.470892 -403.993051 
L 742.171634 -392.85499 
L 745.872376 -387.810431 
L 749.573119 -414.11441 
L 753.273861 -404.597588 
L 756.974603 -393.416086 
L 760.675346 -411.227575 
L 764.376088 -405.28321 
L 768.07683 -383.687649 
L 771.777573 -410.867379 
L 775.478315 -420.007448 
L 779.179058 -434.923447 
L 782.8798 -404.866096 
L 786.580542 -407.441748 
L 790.281285 -424.112906 
L 793.982027 -407.075925 
L 797.682769 -408.549236 
L 801.383512 -397.881706 
L 805.084254 -388.91557 
L 808.784996 -416.755678 
L 812.485739 -390.73208 
L 812.485739 -57.263636 
L 812.485739 -57.263636 
L 808.784996 -57.263636 
L 805.084254 -57.263636 
L 801.383512 -57.263636 
L 797.682769 -57.263636 
L 793.982027 -57.263636 
L 790.281285 -57.263636 
L 786.580542 -57.263636 
L 782.8798 -57.263636 
L 779.179058 -57.263636 
L 775.478315 -57.263636 
L 771.777573 -57.263636 
L 768.07683 -57.263636 
L 764.376088 -57.263636 
L 760.675346 -57.263636 
L 756.974603 -57.263636 
L 753.273861 -57.263636 
L 749.573119 -57.263636 
L 745.872376 -57.263636 
L 742.171634 -57.263636 
L 738.470892 -57.263636 
L 734.770149 -57.263636 
L 731.069407 -57.263636 
L 727.368665 -57.263636 
L 723.667922 -57.263636 
L 719.96718 -57.263636 
L 716.266438 -57.263636 
L 712.565695 -57.263636 
L 708.864953 -57.263636 
L 705.164211 -57.263636 
L 701.463468 -57.263636 
L 697.762726 -57.263636 
L 694.061983 -57.263636 
L 690.361241 -57.263636 
L 686.660499 -57.263636 
L 682.959756 -57.263636 
L 679.259014 -57.263636 
L 675.558272 -57.263636 
L 671.857529 -57.263636 
L 668.156787 -57.263636 
L 664.456045 -57.263636 
L 660.755302 -57.263636 
L 657.05456 -57.263636 
L 653.353818 -57.263636 
L 649.653075 -57.263636 
L 645.952333 -57.263636 
L 642.251591 -57.263636 
L 638.550848 -57.263636 
L 634.850106 -57.263636 
L 631.149364 -57.263636 
L 627.448621 -57.263636 
L 623.747879 -57.263636 
L 620.047137 -57.263636 
L 616.346394 -57.263636 
L 612.645652 -57.263636 
L 608.944909 -57.263636 
L 605.244167 -57.263636 
L 601.543425 -57.263636 
L 597.842682 -57.263636 
L 594.14194 -57.263636 
L 590.441198 -57.263636 
L 586.740455 -57.263636 
L 583.039713 -57.263636 
L 579.338971 -57.263636 
L 575.638228 -57.263636 
L 571.937486 -57.263636 
L 568.236744 -57.263636 
L 564.536001 -57.263636 
L 560.835259 -57.263636 
L 557.134517 -57.263636 
L 553.433774 -57.263636 
L 549.733032 -57.263636 
L 546.03229 -57.263636 
L 542.331547 -57.263636 
L 538.630805 -57.263636 
L 534.930063 -57.263636 
L 531.22932 -57.263636 
L 527.528578 -57.263636 
L 523.827835 -57.263636 
L 520.127093 -57.263636 
L 516.426351 -57.263636 
L 512.725608 -57.263636 
L 509.024866 -57.263636 
L 505.324124 -57.263636 
L 501.623381 -57.263636 
L 497.922639 -57.263636 
L 494.221897 -57.263636 
L 490.521154 -57.263636 
L 486.820412 -57.263636 
L 483.11967 -57.263636 
L 479.418927 -57.263636 
L 475.718185 -57.263636 
L 472.017443 -57.263636 
L 468.3167 -57.263636 
L 464.615958 -57.263636 
L 460.915216 -57.263636 
L 457.214473 -57.263636 
L 453.513731 -57.263636 
L 449.812989 -57.263636 
L 446.112246 -57.263636 
L 442.411504 -57.263636 
L 438.710761 -57.263636 
L 435.010019 -57.263636 
L 431.309277 -57.263636 
L 427.608534 -57.263636 
L 423.907792 -57.263636 
L 420.20705 -57.263636 
L 416.506307 -57.263636 
L 412.805565 -57.263636 
L 409.104823 -57.263636 
L 405.40408 -57.263636 
L 401.703338 -57.263636 
L 398.002596 -57.263636 
L 394.301853 -57.263636 
L 390.601111 -57.263636 
L 386.900369 -57.263636 
L 383.199626 -57.263636 
L 379.498884 -57.263636 
L 375.798142 -57.263636 
L 372.097399 -57.263636 
L 368.396657 -57.263636 
L 364.695915 -57.263636 
L 360.995172 -57.263636 
L 357.29443 -57.263636 
L 353.593687 -57.263636 
L 349.892945 -57.263636 
L 346.192203 -57.263636 
L 342.49146 -57.263636 
L 338.790718 -57.263636 
L 335.089976 -57.263636 
L 331.389233 -57.263636 
L 327.688491 -57.263636 
L 323.987749 -57.263636 
L 320.287006 -57.263636 
L 316.586264 -57.263636 
L 312.885522 -57.263636 
L 309.184779 -57.263636 
L 305.484037 -57.263636 
L 301.783295 -57.263636 
L 298.082552 -57.263636 
L 294.38181 -57.263636 
L 290.681068 -57.263636 
L 286.980325 -57.263636 
L 283.279583 -57.263636 
L 279.578841 -57.263636 
L 275.878098 -57.263636 
L 272.177356 -57.263636 
L 268.476613 -57.263636 
L 264.775871 -57.263636 
L 261.075129 -57.263636 
L 257.374386 -57.263636 
L 253.673644 -57.263636 
L 249.972902 -57.263636 
L 246.272159 -57.263636 
L 242.571417 -57.263636 
L 238.870675 -57.263636 
L 235.169932 -57.263636 
L 231.46919 -57.263636 
L 227.768448 -57.263636 
L 224.067705 -57.263636 
L 220.366963 -57.263636 
L 216.666221 -57.263636 
L 212.965478 -57.263636 
L 209.264736 -57.263636 
L 205.563994 -57.263636 
L 201.863251 -57.263636 
L 198.162509 -57.263636 
L 194.461767 -57.263636 
L 190.761024 -57.263636 
L 187.060282 -57.263636 
L 183.359539 -57.263636 
L 179.658797 -57.263636 
L 175.958055 -57.263636 
L 172.257312 -57.263636 
L 168.55657 -57.263636 
L 164.855828 -57.263636 
L 161.155085 -57.263636 
L 157.454343 -57.263636 
L 153.753601 -57.263636 
L 150.052858 -57.263636 
L 146.352116 -57.263636 
L 142.651374 -57.263636 
L 138.950631 -57.263636 
L 135.249889 -57.263636 
L 131.549147 -57.263636 
L 127.848404 -57.263636 
L 124.147662 -57.263636 
L 120.44692 -57.263636 
L 116.746177 -57.263636 
L 113.045435 -57.263636 
L 109.344692 -57.263636 
L 105.64395 -57.263636 
L 101.943208 -57.263636 
L 98.242465 -57.263636 
L 94.541723 -57.263636 
L 90.840981 -57.263636 
L 87.140238 -57.263636 
L 83.439496 -57.263636 
L 79.738754 -57.263636 
L 76.038011 -57.263636 
z
" style="stroke: #2ecc71; stroke-opacity: 0.08"/>
    </defs>
    <g clip-path="url(#pfb6b7238a1)">
     <use xlink:href="#m5fc8e834f4" x="0" y="496.339063" style="fill: #2ecc71; fill-opacity: 0.08; stroke: #2ecc71; stroke-opacity: 0.08"/>
    </g>
   </g>
   <g id="FillBetweenPolyCollection_4">
    <defs>
     <path id="m28dec3ea27" d="M 76.038011 -57.263636 
L 76.038011 -150.848614 
L 79.738754 -133.127495 
L 83.439496 -151.056444 
L 87.140238 -148.621287 
L 90.840981 -172.276065 
L 94.541723 -166.823117 
L 98.242465 -191.630373 
L 101.943208 -159.998495 
L 105.64395 -182.703314 
L 109.344692 -182.978301 
L 113.045435 -190.350754 
L 116.746177 -210.626841 
L 120.44692 -202.933513 
L 124.147662 -186.503172 
L 127.848404 -210.91618 
L 131.549147 -203.725053 
L 135.249889 -207.143492 
L 138.950631 -229.390461 
L 142.651374 -213.597533 
L 146.352116 -220.158216 
L 150.052858 -228.920607 
L 153.753601 -243.627213 
L 157.454343 -242.942545 
L 161.155085 -236.780516 
L 164.855828 -239.881938 
L 168.55657 -232.72823 
L 172.257312 -240.953635 
L 175.958055 -245.583091 
L 179.658797 -254.942277 
L 183.359539 -283.791989 
L 187.060282 -255.067033 
L 190.761024 -262.747044 
L 194.461767 -244.764309 
L 198.162509 -279.582558 
L 201.863251 -256.438235 
L 205.563994 -267.389525 
L 209.264736 -293.60833 
L 212.965478 -258.688554 
L 216.666221 -287.825088 
L 220.366963 -298.981617 
L 224.067705 -310.323202 
L 227.768448 -283.618073 
L 231.46919 -289.729068 
L 235.169932 -321.354512 
L 238.870675 -301.895251 
L 242.571417 -295.796251 
L 246.272159 -298.4037 
L 249.972902 -297.685651 
L 253.673644 -306.370522 
L 257.374386 -326.94099 
L 261.075129 -326.753427 
L 264.775871 -304.211502 
L 268.476613 -322.995614 
L 272.177356 -317.700445 
L 275.878098 -333.959891 
L 279.578841 -324.729407 
L 283.279583 -333.043362 
L 286.980325 -328.639301 
L 290.681068 -306.239635 
L 294.38181 -334.900108 
L 298.082552 -320.939465 
L 301.783295 -346.953053 
L 305.484037 -331.629397 
L 309.184779 -334.275118 
L 312.885522 -343.137991 
L 316.586264 -351.857089 
L 320.287006 -344.552571 
L 323.987749 -367.898054 
L 327.688491 -369.574531 
L 331.389233 -371.941632 
L 335.089976 -350.109797 
L 338.790718 -336.666734 
L 342.49146 -370.540491 
L 346.192203 -352.383143 
L 349.892945 -359.263189 
L 353.593687 -367.743355 
L 357.29443 -342.360468 
L 360.995172 -382.476428 
L 364.695915 -374.767917 
L 368.396657 -369.809984 
L 372.097399 -377.550536 
L 375.798142 -374.808144 
L 379.498884 -370.770512 
L 383.199626 -366.896632 
L 386.900369 -362.919751 
L 390.601111 -376.394841 
L 394.301853 -378.432947 
L 398.002596 -388.217854 
L 401.703338 -378.749126 
L 405.40408 -367.206781 
L 409.104823 -359.610398 
L 412.805565 -378.026529 
L 416.506307 -380.258692 
L 420.20705 -380.425662 
L 423.907792 -364.25086 
L 427.608534 -396.453705 
L 431.309277 -397.391534 
L 435.010019 -375.608078 
L 438.710761 -396.063366 
L 442.411504 -398.732493 
L 446.112246 -388.664441 
L 449.812989 -377.710521 
L 453.513731 -409.279949 
L 457.214473 -395.351794 
L 460.915216 -388.606513 
L 464.615958 -401.694557 
L 468.3167 -412.675981 
L 472.017443 -388.057332 
L 475.718185 -403.076342 
L 479.418927 -418.838475 
L 483.11967 -382.906227 
L 486.820412 -390.437204 
L 490.521154 -390.57218 
L 494.221897 -396.545347 
L 497.922639 -396.618197 
L 501.623381 -403.420157 
L 505.324124 -390.648102 
L 509.024866 -393.673239 
L 512.725608 -405.391902 
L 516.426351 -404.269088 
L 520.127093 -413.510043 
L 523.827835 -408.548709 
L 527.528578 -413.492093 
L 531.22932 -391.127228 
L 534.930063 -400.808544 
L 538.630805 -428.127188 
L 542.331547 -411.227055 
L 546.03229 -416.032424 
L 549.733032 -410.879212 
L 553.433774 -413.23518 
L 557.134517 -405.886225 
L 560.835259 -451.973864 
L 564.536001 -404.912138 
L 568.236744 -409.691253 
L 571.937486 -381.565515 
L 575.638228 -424.364537 
L 579.338971 -404.947974 
L 583.039713 -411.29446 
L 586.740455 -406.140911 
L 590.441198 -411.247263 
L 594.14194 -409.933691 
L 597.842682 -413.248485 
L 601.543425 -413.547375 
L 605.244167 -412.74025 
L 608.944909 -412.977395 
L 612.645652 -431.068486 
L 616.346394 -426.335602 
L 620.047137 -426.787566 
L 623.747879 -407.743118 
L 627.448621 -431.954315 
L 631.149364 -430.813429 
L 634.850106 -410.968153 
L 638.550848 -436.214591 
L 642.251591 -410.099236 
L 645.952333 -396.543196 
L 649.653075 -432.155428 
L 653.353818 -417.841401 
L 657.05456 -431.300842 
L 660.755302 -410.861077 
L 664.456045 -405.082254 
L 668.156787 -435.272892 
L 671.857529 -403.93239 
L 675.558272 -402.378368 
L 679.259014 -398.292382 
L 682.959756 -388.15598 
L 686.660499 -409.471009 
L 690.361241 -396.191079 
L 694.061983 -422.032559 
L 697.762726 -395.91104 
L 701.463468 -409.85626 
L 705.164211 -451.177088 
L 708.864953 -427.605478 
L 712.565695 -424.342542 
L 716.266438 -404.518598 
L 719.96718 -421.234752 
L 723.667922 -424.983595 
L 727.368665 -405.390038 
L 731.069407 -426.363646 
L 734.770149 -439.346353 
L 738.470892 -421.104985 
L 742.171634 -423.12366 
L 745.872376 -401.214304 
L 749.573119 -409.121145 
L 753.273861 -438.769253 
L 756.974603 -418.354749 
L 760.675346 -415.330646 
L 764.376088 -418.359929 
L 768.07683 -426.156462 
L 771.777573 -413.139768 
L 775.478315 -428.718968 
L 779.179058 -411.074028 
L 782.8798 -436.824622 
L 786.580542 -415.043639 
L 790.281285 -443.70473 
L 793.982027 -427.920221 
L 797.682769 -418.062552 
L 801.383512 -439.280454 
L 805.084254 -412.032085 
L 808.784996 -422.100591 
L 812.485739 -428.804793 
L 812.485739 -57.263636 
L 812.485739 -57.263636 
L 808.784996 -57.263636 
L 805.084254 -57.263636 
L 801.383512 -57.263636 
L 797.682769 -57.263636 
L 793.982027 -57.263636 
L 790.281285 -57.263636 
L 786.580542 -57.263636 
L 782.8798 -57.263636 
L 779.179058 -57.263636 
L 775.478315 -57.263636 
L 771.777573 -57.263636 
L 768.07683 -57.263636 
L 764.376088 -57.263636 
L 760.675346 -57.263636 
L 756.974603 -57.263636 
L 753.273861 -57.263636 
L 749.573119 -57.263636 
L 745.872376 -57.263636 
L 742.171634 -57.263636 
L 738.470892 -57.263636 
L 734.770149 -57.263636 
L 731.069407 -57.263636 
L 727.368665 -57.263636 
L 723.667922 -57.263636 
L 719.96718 -57.263636 
L 716.266438 -57.263636 
L 712.565695 -57.263636 
L 708.864953 -57.263636 
L 705.164211 -57.263636 
L 701.463468 -57.263636 
L 697.762726 -57.263636 
L 694.061983 -57.263636 
L 690.361241 -57.263636 
L 686.660499 -57.263636 
L 682.959756 -57.263636 
L 679.259014 -57.263636 
L 675.558272 -57.263636 
L 671.857529 -57.263636 
L 668.156787 -57.263636 
L 664.456045 -57.263636 
L 660.755302 -57.263636 
L 657.05456 -57.263636 
L 653.353818 -57.263636 
L 649.653075 -57.263636 
L 645.952333 -57.263636 
L 642.251591 -57.263636 
L 638.550848 -57.263636 
L 634.850106 -57.263636 
L 631.149364 -57.263636 
L 627.448621 -57.263636 
L 623.747879 -57.263636 
L 620.047137 -57.263636 
L 616.346394 -57.263636 
L 612.645652 -57.263636 
L 608.944909 -57.263636 
L 605.244167 -57.263636 
L 601.543425 -57.263636 
L 597.842682 -57.263636 
L 594.14194 -57.263636 
L 590.441198 -57.263636 
L 586.740455 -57.263636 
L 583.039713 -57.263636 
L 579.338971 -57.263636 
L 575.638228 -57.263636 
L 571.937486 -57.263636 
L 568.236744 -57.263636 
L 564.536001 -57.263636 
L 560.835259 -57.263636 
L 557.134517 -57.263636 
L 553.433774 -57.263636 
L 549.733032 -57.263636 
L 546.03229 -57.263636 
L 542.331547 -57.263636 
L 538.630805 -57.263636 
L 534.930063 -57.263636 
L 531.22932 -57.263636 
L 527.528578 -57.263636 
L 523.827835 -57.263636 
L 520.127093 -57.263636 
L 516.426351 -57.263636 
L 512.725608 -57.263636 
L 509.024866 -57.263636 
L 505.324124 -57.263636 
L 501.623381 -57.263636 
L 497.922639 -57.263636 
L 494.221897 -57.263636 
L 490.521154 -57.263636 
L 486.820412 -57.263636 
L 483.11967 -57.263636 
L 479.418927 -57.263636 
L 475.718185 -57.263636 
L 472.017443 -57.263636 
L 468.3167 -57.263636 
L 464.615958 -57.263636 
L 460.915216 -57.263636 
L 457.214473 -57.263636 
L 453.513731 -57.263636 
L 449.812989 -57.263636 
L 446.112246 -57.263636 
L 442.411504 -57.263636 
L 438.710761 -57.263636 
L 435.010019 -57.263636 
L 431.309277 -57.263636 
L 427.608534 -57.263636 
L 423.907792 -57.263636 
L 420.20705 -57.263636 
L 416.506307 -57.263636 
L 412.805565 -57.263636 
L 409.104823 -57.263636 
L 405.40408 -57.263636 
L 401.703338 -57.263636 
L 398.002596 -57.263636 
L 394.301853 -57.263636 
L 390.601111 -57.263636 
L 386.900369 -57.263636 
L 383.199626 -57.263636 
L 379.498884 -57.263636 
L 375.798142 -57.263636 
L 372.097399 -57.263636 
L 368.396657 -57.263636 
L 364.695915 -57.263636 
L 360.995172 -57.263636 
L 357.29443 -57.263636 
L 353.593687 -57.263636 
L 349.892945 -57.263636 
L 346.192203 -57.263636 
L 342.49146 -57.263636 
L 338.790718 -57.263636 
L 335.089976 -57.263636 
L 331.389233 -57.263636 
L 327.688491 -57.263636 
L 323.987749 -57.263636 
L 320.287006 -57.263636 
L 316.586264 -57.263636 
L 312.885522 -57.263636 
L 309.184779 -57.263636 
L 305.484037 -57.263636 
L 301.783295 -57.263636 
L 298.082552 -57.263636 
L 294.38181 -57.263636 
L 290.681068 -57.263636 
L 286.980325 -57.263636 
L 283.279583 -57.263636 
L 279.578841 -57.263636 
L 275.878098 -57.263636 
L 272.177356 -57.263636 
L 268.476613 -57.263636 
L 264.775871 -57.263636 
L 261.075129 -57.263636 
L 257.374386 -57.263636 
L 253.673644 -57.263636 
L 249.972902 -57.263636 
L 246.272159 -57.263636 
L 242.571417 -57.263636 
L 238.870675 -57.263636 
L 235.169932 -57.263636 
L 231.46919 -57.263636 
L 227.768448 -57.263636 
L 224.067705 -57.263636 
L 220.366963 -57.263636 
L 216.666221 -57.263636 
L 212.965478 -57.263636 
L 209.264736 -57.263636 
L 205.563994 -57.263636 
L 201.863251 -57.263636 
L 198.162509 -57.263636 
L 194.461767 -57.263636 
L 190.761024 -57.263636 
L 187.060282 -57.263636 
L 183.359539 -57.263636 
L 179.658797 -57.263636 
L 175.958055 -57.263636 
L 172.257312 -57.263636 
L 168.55657 -57.263636 
L 164.855828 -57.263636 
L 161.155085 -57.263636 
L 157.454343 -57.263636 
L 153.753601 -57.263636 
L 150.052858 -57.263636 
L 146.352116 -57.263636 
L 142.651374 -57.263636 
L 138.950631 -57.263636 
L 135.249889 -57.263636 
L 131.549147 -57.263636 
L 127.848404 -57.263636 
L 124.147662 -57.263636 
L 120.44692 -57.263636 
L 116.746177 -57.263636 
L 113.045435 -57.263636 
L 109.344692 -57.263636 
L 105.64395 -57.263636 
L 101.943208 -57.263636 
L 98.242465 -57.263636 
L 94.541723 -57.263636 
L 90.840981 -57.263636 
L 87.140238 -57.263636 
L 83.439496 -57.263636 
L 79.738754 -57.263636 
L 76.038011 -57.263636 
z
" style="stroke: #9b59b6; stroke-opacity: 0.08"/>
    </defs>
    <g clip-path="url(#pfb6b7238a1)">
     <use xlink:href="#m28dec3ea27" x="0" y="496.339063" style="fill: #9b59b6; fill-opacity: 0.08; stroke: #9b59b6; stroke-opacity: 0.08"/>
    </g>
   </g>
   <g id="matplotlib.axis_1">
    <g id="xtick_1">
     <g id="line2d_1">
      <path d="M 76.038011 458.810938 
L 76.038011 24.629687 
" clip-path="url(#pfb6b7238a1)" style="fill: none; stroke: #b0b0b0; stroke-opacity: 0.3; stroke-width: 0.8; stroke-linecap: square"/>
     </g>
     <g id="line2d_2">
      <defs>
       <path id="m348fd8c4ba" d="M 0 0 
L 0 3.5 
" style="stroke: #000000; stroke-width: 0.8"/>
      </defs>
      <g>
       <use xlink:href="#m348fd8c4ba" x="76.038011" y="458.810938" style="stroke: #000000; stroke-width: 0.8"/>
      </g>
     </g>
     <g id="text_1">
      <text style="font-size: 10px; font-family: 'SimHei', 'Microsoft YaHei', 'DejaVu Sans', sans-serif; text-anchor: middle" x="76.038011" y="472.685938" transform="rotate(-0 76.038011 472.685938)">0</text>
     </g>
    </g>
    <g id="xtick_2">
     <g id="line2d_3">
      <path d="M 168.55657 458.810938 
L 168.55657 24.629687 
" clip-path="url(#pfb6b7238a1)" style="fill: none; stroke: #b0b0b0; stroke-opacity: 0.3; stroke-width: 0.8; stroke-linecap: square"/>
     </g>
     <g id="line2d_4">
      <g>
       <use xlink:href="#m348fd8c4ba" x="168.55657" y="458.810938" style="stroke: #000000; stroke-width: 0.8"/>
      </g>
     </g>
     <g id="text_2">
      <text style="font-size: 10px; font-family: 'SimHei', 'Microsoft YaHei', 'DejaVu Sans', sans-serif; text-anchor: middle" x="168.55657" y="472.685938" transform="rotate(-0 168.55657 472.685938)">25</text>
     </g>
    </g>
    <g id="xtick_3">
     <g id="line2d_5">
      <path d="M 261.075129 458.810938 
L 261.075129 24.629687 
" clip-path="url(#pfb6b7238a1)" style="fill: none; stroke: #b0b0b0; stroke-opacity: 0.3; stroke-width: 0.8; stroke-linecap: square"/>
     </g>
     <g id="line2d_6">
      <g>
       <use xlink:href="#m348fd8c4ba" x="261.075129" y="458.810938" style="stroke: #000000; stroke-width: 0.8"/>
      </g>
     </g>
     <g id="text_3">
      <text style="font-size: 10px; font-family: 'SimHei', 'Microsoft YaHei', 'DejaVu Sans', sans-serif; text-anchor: middle" x="261.075129" y="472.685938" transform="rotate(-0 261.075129 472.685938)">50</text>
     </g>
    </g>
    <g id="xtick_4">
     <g id="line2d_7">
      <path d="M 353.593687 458.810938 
L 353.593687 24.629687 
" clip-path="url(#pfb6b7238a1)" style="fill: none; stroke: #b0b0b0; stroke-opacity: 0.3; stroke-width: 0.8; stroke-linecap: square"/>
     </g>
     <g id="line2d_8">
      <g>
       <use xlink:href="#m348fd8c4ba" x="353.593687" y="458.810938" style="stroke: #000000; stroke-width: 0.8"/>
      </g>
     </g>
     <g id="text_4">
      <text style="font-size: 10px; font-family: 'SimHei', 'Microsoft YaHei', 'DejaVu Sans', sans-serif; text-anchor: middle" x="353.593687" y="472.685938" transform="rotate(-0 353.593687 472.685938)">75</text>
     </g>
    </g>
    <g id="xtick_5">
     <g id="line2d_9">
      <path d="M 446.112246 458.810938 
L 446.112246 24.629687 
" clip-path="url(#pfb6b7238a1)" style="fill: none; stroke: #b0b0b0; stroke-opacity: 0.3; stroke-width: 0.8; stroke-linecap: square"/>
     </g>
     <g id="line2d_10">
      <g>
       <use xlink:href="#m348fd8c4ba" x="446.112246" y="458.810938" style="stroke: #000000; stroke-width: 0.8"/>
      </g>
     </g>
     <g id="text_5">
      <text style="font-size: 10px; font-family: 'SimHei', 'Microsoft YaHei', 'DejaVu Sans', sans-serif; text-anchor: middle" x="446.112246" y="472.685938" transform="rotate(-0 446.112246 472.685938)">100</text>
     </g>
    </g>
    <g id="xtick_6">
     <g id="line2d_11">
      <path d="M 538.630805 458.810938 
L 538.630805 24.629687 
" clip-path="url(#pfb6b7238a1)" style="fill: none; stroke: #b0b0b0; stroke-opacity: 0.3; stroke-width: 0.8; stroke-linecap: square"/>
     </g>
     <g id="line2d_12">
      <g>
       <use xlink:href="#m348fd8c4ba" x="538.630805" y="458.810938" style="stroke: #000000; stroke-width: 0.8"/>
      </g>
     </g>
     <g id="text_6">
      <text style="font-size: 10px; font-family: 'SimHei', 'Microsoft YaHei', 'DejaVu Sans', sans-serif; text-anchor: middle" x="538.630805" y="472.685938" transform="rotate(-0 538.630805 472.685938)">125</text>
     </g>
    </g>
    <g id="xtick_7">
     <g id="line2d_13">
      <path d="M 631.149364 458.810938 
L 631.149364 24.629687 
" clip-path="url(#pfb6b7238a1)" style="fill: none; stroke: #b0b0b0; stroke-opacity: 0.3; stroke-width: 0.8; stroke-linecap: square"/>
     </g>
     <g id="line2d_14">
      <g>
       <use xlink:href="#m348fd8c4ba" x="631.149364" y="458.810938" style="stroke: #000000; stroke-width: 0.8"/>
      </g>
     </g>
     <g id="text_7">
      <text style="font-size: 10px; font-family: 'SimHei', 'Microsoft YaHei', 'DejaVu Sans', sans-serif; text-anchor: middle" x="631.149364" y="472.685938" transform="rotate(-0 631.149364 472.685938)">150</text>
     </g>
    </g>
    <g id="xtick_8">
     <g id="line2d_15">
      <path d="M 723.667922 458.810938 
L 723.667922 24.629687 
" clip-path="url(#pfb6b7238a1)" style="fill: none; stroke: #b0b0b0; stroke-opacity: 0.3; stroke-width: 0.8; stroke-linecap: square"/>
     </g>
     <g id="line2d_16">
      <g>
       <use xlink:href="#m348fd8c4ba" x="723.667922" y="458.810938" style="stroke: #000000; stroke-width: 0.8"/>
      </g>
     </g>
     <g id="text_8">
      <text style="font-size: 10px; font-family: 'SimHei', 'Microsoft YaHei', 'DejaVu Sans', sans-serif; text-anchor: middle" x="723.667922" y="472.685938" transform="rotate(-0 723.667922 472.685938)">175</text>
     </g>
    </g>
    <g id="xtick_9">
     <g id="line2d_17">
      <path d="M 816.186481 458.810938 
L 816.186481 24.629687 
" clip-path="url(#pfb6b7238a1)" style="fill: none; stroke: #b0b0b0; stroke-opacity: 0.3; stroke-width: 0.8; stroke-linecap: square"/>
     </g>
     <g id="line2d_18">
      <g>
       <use xlink:href="#m348fd8c4ba" x="816.186481" y="458.810938" style="stroke: #000000; stroke-width: 0.8"/>
      </g>
     </g>
     <g id="text_9">
      <text style="font-size: 10px; font-family: 'SimHei', 'Microsoft YaHei', 'DejaVu Sans', sans-serif; text-anchor: middle" x="816.186481" y="472.685938" transform="rotate(-0 816.186481 472.685938)">200</text>
     </g>
    </g>
    <g id="text_10">
     <text style="font-size: 12px; font-family: 'SimHei', 'Microsoft YaHei', 'DejaVu Sans', sans-serif; text-anchor: middle" x="444.261875" y="487.639063" transform="rotate(-0 444.261875 487.639063)">Training Step / 训练步数</text>
    </g>
   </g>
   <g id="matplotlib.axis_2">
    <g id="ytick_1">
     <g id="line2d_19">
      <path d="M 39.215625 439.075426 
L 849.308125 439.075426 
" clip-path="url(#pfb6b7238a1)" style="fill: none; stroke: #b0b0b0; stroke-opacity: 0.3; stroke-width: 0.8; stroke-linecap: square"/>
     </g>
     <g id="line2d_20">
      <defs>
       <path id="ma833e3c379" d="M 0 0 
L -3.5 0 
" style="stroke: #000000; stroke-width: 0.8"/>
      </defs>
      <g>
       <use xlink:href="#ma833e3c379" x="39.215625" y="439.075426" style="stroke: #000000; stroke-width: 0.8"/>
      </g>
     </g>
     <g id="text_11">
      <text style="font-size: 10px; font-family: 'SimHei', 'Microsoft YaHei', 'DejaVu Sans', sans-serif; text-anchor: end" x="32.215625" y="442.512926" transform="rotate(-0 32.215625 442.512926)">0</text>
     </g>
    </g>
    <g id="ytick_2">
     <g id="line2d_21">
      <path d="M 39.215625 359.16329 
L 849.308125 359.16329 
" clip-path="url(#pfb6b7238a1)" style="fill: none; stroke: #b0b0b0; stroke-opacity: 0.3; stroke-width: 0.8; stroke-linecap: square"/>
     </g>
     <g id="line2d_22">
      <g>
       <use xlink:href="#ma833e3c379" x="39.215625" y="359.16329" style="stroke: #000000; stroke-width: 0.8"/>
      </g>
     </g>
     <g id="text_12">
      <text style="font-size: 10px; font-family: 'SimHei', 'Microsoft YaHei', 'DejaVu Sans', sans-serif; text-anchor: end" x="32.215625" y="362.60079" transform="rotate(-0 32.215625 362.60079)">2</text>
     </g>
    </g>
    <g id="ytick_3">
     <g id="line2d_23">
      <path d="M 39.215625 279.251154 
L 849.308125 279.251154 
" clip-path="url(#pfb6b7238a1)" style="fill: none; stroke: #b0b0b0; stroke-opacity: 0.3; stroke-width: 0.8; stroke-linecap: square"/>
     </g>
     <g id="line2d_24">
      <g>
       <use xlink:href="#ma833e3c379" x="39.215625" y="279.251154" style="stroke: #000000; stroke-width: 0.8"/>
      </g>
     </g>
     <g id="text_13">
      <text style="font-size: 10px; font-family: 'SimHei', 'Microsoft YaHei', 'DejaVu Sans', sans-serif; text-anchor: end" x="32.215625" y="282.688654" transform="rotate(-0 32.215625 282.688654)">4</text>
     </g>
    </g>
    <g id="ytick_4">
     <g id="line2d_25">
      <path d="M 39.215625 199.339018 
L 849.308125 199.339018 
" clip-path="url(#pfb6b7238a1)" style="fill: none; stroke: #b0b0b0; stroke-opacity: 0.3; stroke-width: 0.8; stroke-linecap: square"/>
     </g>
     <g id="line2d_26">
      <g>
       <use xlink:href="#ma833e3c379" x="39.215625" y="199.339018" style="stroke: #000000; stroke-width: 0.8"/>
      </g>
     </g>
     <g id="text_14">
      <text style="font-size: 10px; font-family: 'SimHei', 'Microsoft YaHei', 'DejaVu Sans', sans-serif; text-anchor: end" x="32.215625" y="202.776518" transform="rotate(-0 32.215625 202.776518)">6</text>
     </g>
    </g>
    <g id="ytick_5">
     <g id="line2d_27">
      <path d="M 39.215625 119.426882 
L 849.308125 119.426882 
" clip-path="url(#pfb6b7238a1)" style="fill: none; stroke: #b0b0b0; stroke-opacity: 0.3; stroke-width: 0.8; stroke-linecap: square"/>
     </g>
     <g id="line2d_28">
      <g>
       <use xlink:href="#ma833e3c379" x="39.215625" y="119.426882" style="stroke: #000000; stroke-width: 0.8"/>
      </g>
     </g>
     <g id="text_15">
      <text style="font-size: 10px; font-family: 'SimHei', 'Microsoft YaHei', 'DejaVu Sans', sans-serif; text-anchor: end" x="32.215625" y="122.864382" transform="rotate(-0 32.215625 122.864382)">8</text>
     </g>
    </g>
    <g id="ytick_6">
     <g id="line2d_29">
      <path d="M 39.215625 39.514746 
L 849.308125 39.514746 
" clip-path="url(#pfb6b7238a1)" style="fill: none; stroke: #b0b0b0; stroke-opacity: 0.3; stroke-width: 0.8; stroke-linecap: square"/>
     </g>
     <g id="line2d_30">
      <g>
       <use xlink:href="#ma833e3c379" x="39.215625" y="39.514746" style="stroke: #000000; stroke-width: 0.8"/>
      </g>
     </g>
     <g id="text_16">
      <text style="font-size: 10px; font-family: 'SimHei', 'Microsoft YaHei', 'DejaVu Sans', sans-serif; text-anchor: end" x="32.215625" y="42.952246" transform="rotate(-0 32.215625 42.952246)">10</text>
     </g>
    </g>
    <g id="text_17">
     <text style="font-size: 12px; font-family: 'SimHei', 'Microsoft YaHei', 'DejaVu Sans', sans-serif; text-anchor: middle" x="16.715625" y="241.720312" transform="rotate(-90 16.715625 241.720312)">Reward / 奖励</text>
    </g>
   </g>
   <g id="line2d_31">
    <path d="M 76.038011 392.757775 
L 79.738754 384.69261 
L 83.439496 378.129497 
L 87.140238 371.216919 
L 90.840981 363.640994 
L 94.541723 354.603853 
L 98.242465 347.078089 
L 101.943208 339.208286 
L 105.64395 335.605109 
L 109.344692 331.600302 
L 113.045435 327.083034 
L 116.746177 322.12356 
L 120.44692 318.441069 
L 124.147662 316.301308 
L 127.848404 310.341321 
L 131.549147 307.957046 
L 135.249889 305.279251 
L 138.950631 302.877825 
L 142.651374 300.172606 
L 146.352116 296.737592 
L 150.052858 296.474008 
L 153.753601 293.515142 
L 157.454343 291.32507 
L 161.155085 288.694118 
L 164.855828 290.240505 
L 168.55657 290.985642 
L 172.257312 289.963548 
L 175.958055 287.181072 
L 179.658797 285.592476 
L 183.359539 284.497737 
L 187.060282 280.948572 
L 190.761024 280.371645 
L 194.461767 276.955056 
L 198.162509 274.932102 
L 201.863251 274.911301 
L 205.563994 271.985843 
L 209.264736 269.348957 
L 212.965478 266.352633 
L 216.666221 264.149608 
L 220.366963 258.021682 
L 224.067705 254.324402 
L 227.768448 251.059025 
L 231.46919 248.114961 
L 238.870675 246.129713 
L 242.571417 243.469147 
L 246.272159 241.612712 
L 249.972902 240.049724 
L 253.673644 236.810754 
L 257.374386 233.002175 
L 261.075129 229.595595 
L 264.775871 227.191096 
L 268.476613 224.962913 
L 272.177356 223.950086 
L 275.878098 223.628814 
L 279.578841 222.132434 
L 283.279583 222.421547 
L 286.980325 221.546665 
L 290.681068 218.358331 
L 294.38181 216.004143 
L 298.082552 216.117234 
L 301.783295 214.991261 
L 305.484037 213.430232 
L 309.184779 212.505317 
L 312.885522 212.496135 
L 316.586264 211.604249 
L 320.287006 212.330106 
L 323.987749 213.554247 
L 327.688491 210.797666 
L 331.389233 210.465526 
L 335.089976 209.546004 
L 338.790718 207.902092 
L 342.49146 209.082479 
L 346.192203 207.506432 
L 349.892945 206.892511 
L 357.29443 201.425542 
L 360.995172 200.686127 
L 364.695915 200.794162 
L 368.396657 199.597309 
L 372.097399 200.392876 
L 375.798142 196.761725 
L 379.498884 193.862618 
L 383.199626 192.71844 
L 386.900369 192.367954 
L 390.601111 191.096422 
L 394.301853 188.474294 
L 398.002596 186.461403 
L 401.703338 185.657402 
L 405.40408 185.004457 
L 409.104823 186.465928 
L 412.805565 185.866019 
L 416.506307 184.988998 
L 420.20705 182.692821 
L 423.907792 182.785721 
L 427.608534 180.358035 
L 431.309277 179.072602 
L 435.010019 178.359198 
L 438.710761 178.398839 
L 442.411504 176.402448 
L 446.112246 177.206838 
L 449.812989 176.991073 
L 453.513731 177.20138 
L 457.214473 177.573655 
L 460.915216 174.931526 
L 464.615958 173.658345 
L 468.3167 172.800783 
L 472.017443 170.939065 
L 475.718185 170.490618 
L 479.418927 169.2773 
L 483.11967 169.394205 
L 486.820412 169.196972 
L 490.521154 170.097804 
L 494.221897 169.657625 
L 497.922639 169.564215 
L 501.623381 167.311304 
L 505.324124 166.394939 
L 509.024866 163.176837 
L 512.725608 162.410587 
L 516.426351 162.123284 
L 520.127093 160.514012 
L 523.827835 159.921946 
L 527.528578 160.57703 
L 531.22932 161.000478 
L 534.930063 160.196168 
L 538.630805 159.955479 
L 542.331547 160.692954 
L 546.03229 157.903442 
L 549.733032 156.869389 
L 553.433774 156.319569 
L 557.134517 154.433334 
L 560.835259 153.285606 
L 564.536001 154.329694 
L 571.937486 154.290395 
L 575.638228 153.174679 
L 579.338971 152.792602 
L 583.039713 151.409015 
L 586.740455 150.300242 
L 590.441198 148.582116 
L 594.14194 146.275639 
L 601.543425 146.302182 
L 605.244167 145.909751 
L 608.944909 144.802602 
L 612.645652 146.938592 
L 616.346394 149.222902 
L 620.047137 149.331636 
L 623.747879 148.122207 
L 627.448621 147.372382 
L 631.149364 148.403731 
L 634.850106 147.169355 
L 638.550848 147.33449 
L 642.251591 146.760336 
L 645.952333 146.897022 
L 649.653075 147.646697 
L 653.353818 146.520067 
L 657.05456 145.735783 
L 660.755302 146.294899 
L 664.456045 144.947505 
L 668.156787 144.342817 
L 671.857529 142.433169 
L 675.558272 141.496041 
L 679.259014 142.131788 
L 682.959756 142.302462 
L 686.660499 142.143143 
L 690.361241 142.862872 
L 694.061983 142.108314 
L 697.762726 140.634781 
L 701.463468 139.925073 
L 705.164211 140.215933 
L 708.864953 140.79148 
L 712.565695 140.915454 
L 716.266438 139.830914 
L 719.96718 139.594353 
L 723.667922 137.320555 
L 727.368665 137.391042 
L 731.069407 137.334506 
L 734.770149 138.267849 
L 738.470892 138.378547 
L 742.171634 138.304007 
L 745.872376 138.385437 
L 749.573119 138.137942 
L 753.273861 138.919548 
L 756.974603 138.939677 
L 760.675346 138.045825 
L 764.376088 137.591227 
L 768.07683 137.306653 
L 771.777573 139.727744 
L 775.478315 140.877071 
L 779.179058 141.851746 
L 782.8798 141.611904 
L 786.580542 141.125122 
L 790.281285 159.254356 
L 801.383512 218.364335 
L 812.485739 279.547785 
L 812.485739 279.547785 
" clip-path="url(#pfb6b7238a1)" style="fill: none; stroke: #3498db; stroke-width: 2.5; stroke-linecap: square"/>
   </g>
   <g id="line2d_32">
    <path d="M 76.038011 378.855897 
L 79.738754 370.730268 
L 83.439496 362.126072 
L 94.541723 335.223395 
L 98.242465 327.281403 
L 101.943208 318.576007 
L 105.64395 315.105019 
L 109.344692 311.208224 
L 113.045435 310.009966 
L 116.746177 308.547484 
L 120.44692 305.958662 
L 124.147662 304.255479 
L 127.848404 302.124735 
L 131.549147 299.124782 
L 135.249889 296.910863 
L 138.950631 293.97934 
L 142.651374 293.222899 
L 146.352116 292.060355 
L 150.052858 290.657244 
L 153.753601 288.267264 
L 157.454343 285.420587 
L 161.155085 285.808807 
L 164.855828 283.776638 
L 168.55657 282.156208 
L 172.257312 279.412094 
L 175.958055 277.108219 
L 179.658797 274.434011 
L 183.359539 271.180946 
L 187.060282 269.183712 
L 190.761024 266.493265 
L 194.461767 265.519518 
L 198.162509 262.285002 
L 201.863251 259.530118 
L 205.563994 256.420093 
L 212.965478 252.41981 
L 216.666221 249.665741 
L 220.366963 248.060741 
L 224.067705 247.906021 
L 227.768448 247.479821 
L 231.46919 245.820406 
L 235.169932 242.382829 
L 238.870675 240.963129 
L 242.571417 239.799805 
L 246.272159 240.097029 
L 249.972902 237.838106 
L 253.673644 236.65163 
L 257.374386 234.9424 
L 261.075129 233.611648 
L 264.775871 231.392959 
L 268.476613 227.982189 
L 272.177356 226.358709 
L 275.878098 225.637279 
L 279.578841 222.682352 
L 283.279583 220.666322 
L 286.980325 218.874005 
L 290.681068 219.373602 
L 294.38181 218.280336 
L 298.082552 216.274278 
L 301.783295 212.733569 
L 305.484037 211.795395 
L 309.184779 211.523003 
L 312.885522 211.895413 
L 316.586264 209.720138 
L 320.287006 209.10574 
L 323.987749 211.41801 
L 327.688491 210.857771 
L 331.389233 208.646126 
L 335.089976 208.626591 
L 338.790718 207.811447 
L 342.49146 208.110178 
L 346.192203 207.817626 
L 357.29443 209.117909 
L 360.995172 208.78785 
L 364.695915 207.428686 
L 368.396657 206.769487 
L 372.097399 205.986753 
L 375.798142 205.669632 
L 379.498884 203.512976 
L 383.199626 202.971007 
L 386.900369 202.595017 
L 390.601111 199.85677 
L 394.301853 199.038973 
L 398.002596 199.229334 
L 401.703338 196.871831 
L 405.40408 193.637023 
L 409.104823 191.314337 
L 412.805565 190.052023 
L 416.506307 188.359531 
L 420.20705 186.460447 
L 423.907792 185.070456 
L 427.608534 185.878977 
L 431.309277 183.619719 
L 435.010019 183.259007 
L 438.710761 180.660687 
L 442.411504 181.080779 
L 446.112246 180.57828 
L 449.812989 178.946829 
L 453.513731 176.864285 
L 457.214473 175.844173 
L 460.915216 176.172988 
L 464.615958 176.691119 
L 472.017443 174.657927 
L 475.718185 174.784226 
L 479.418927 173.740153 
L 483.11967 173.177084 
L 486.820412 173.113584 
L 490.521154 171.896001 
L 494.221897 173.055864 
L 497.922639 173.031561 
L 501.623381 173.402513 
L 505.324124 174.257821 
L 509.024866 173.225554 
L 512.725608 174.000947 
L 516.426351 175.44962 
L 520.127093 174.435139 
L 527.528578 174.882933 
L 531.22932 174.426986 
L 534.930063 172.274214 
L 538.630805 171.699899 
L 542.331547 171.292126 
L 546.03229 171.482776 
L 549.733032 170.621986 
L 553.433774 169.005653 
L 557.134517 167.852772 
L 560.835259 165.265614 
L 564.536001 166.530383 
L 568.236744 166.196079 
L 575.638228 163.339061 
L 579.338971 163.087097 
L 583.039713 164.583275 
L 586.740455 164.025553 
L 590.441198 165.180032 
L 594.14194 164.261685 
L 597.842682 164.68834 
L 601.543425 162.883102 
L 605.244167 162.5721 
L 608.944909 162.497689 
L 612.645652 163.315886 
L 616.346394 164.802335 
L 620.047137 164.202002 
L 623.747879 163.789995 
L 627.448621 163.883773 
L 631.149364 162.681028 
L 634.850106 163.601026 
L 638.550848 162.688748 
L 642.251591 162.78473 
L 645.952333 161.929205 
L 649.653075 162.117521 
L 653.353818 160.464526 
L 657.05456 162.349516 
L 660.755302 161.770262 
L 664.456045 159.957188 
L 668.156787 159.746522 
L 675.558272 157.007252 
L 679.259014 158.239347 
L 682.959756 157.69579 
L 686.660499 158.190039 
L 690.361241 156.331514 
L 694.061983 156.16083 
L 697.762726 155.053905 
L 701.463468 155.744427 
L 705.164211 154.899024 
L 708.864953 154.914425 
L 712.565695 154.799665 
L 716.266438 153.999081 
L 719.96718 155.984417 
L 723.667922 156.044326 
L 727.368665 156.878081 
L 731.069407 157.116152 
L 734.770149 155.028731 
L 738.470892 154.97778 
L 742.171634 155.091844 
L 745.872376 154.807147 
L 749.573119 154.204861 
L 753.273861 153.860581 
L 756.974603 152.366825 
L 764.376088 152.848665 
L 768.07683 153.197362 
L 771.777573 153.982063 
L 775.478315 153.240399 
L 779.179058 151.833925 
L 786.580542 150.465253 
L 790.281285 169.757334 
L 793.982027 188.356408 
L 801.383512 227.620185 
L 805.084254 246.31577 
L 812.485739 286.48878 
L 812.485739 286.48878 
" clip-path="url(#pfb6b7238a1)" style="fill: none; stroke: #e74c3c; stroke-width: 2.5; stroke-linecap: square"/>
   </g>
   <g id="line2d_33">
    <path d="M 76.038011 399.957976 
L 79.738754 393.439857 
L 94.541723 363.573617 
L 98.242465 355.30118 
L 101.943208 346.337384 
L 105.64395 344.509875 
L 109.344692 339.158137 
L 113.045435 334.570462 
L 116.746177 329.744204 
L 124.147662 325.373343 
L 127.848404 318.61848 
L 131.549147 314.704114 
L 135.249889 311.732196 
L 142.651374 306.133408 
L 146.352116 302.615235 
L 150.052858 297.605662 
L 157.454343 292.089039 
L 164.855828 284.181168 
L 168.55657 280.622389 
L 172.257312 277.7896 
L 175.958055 271.894977 
L 179.658797 266.666532 
L 183.359539 264.780359 
L 187.060282 262.477568 
L 190.761024 257.172127 
L 194.461767 253.597334 
L 198.162509 249.153269 
L 201.863251 246.827762 
L 205.563994 245.540798 
L 209.264736 242.21257 
L 212.965478 238.720741 
L 216.666221 235.009358 
L 220.366963 234.592485 
L 224.067705 231.94173 
L 227.768448 227.225416 
L 231.46919 225.388007 
L 235.169932 223.77752 
L 238.870675 222.490202 
L 242.571417 219.916102 
L 246.272159 219.506504 
L 249.972902 217.708271 
L 253.673644 216.291594 
L 257.374386 213.48739 
L 261.075129 209.69425 
L 268.476613 205.494026 
L 272.177356 203.552275 
L 275.878098 199.337117 
L 283.279583 198.817155 
L 286.980325 196.131357 
L 290.681068 194.451334 
L 294.38181 190.809203 
L 298.082552 187.522749 
L 301.783295 184.430407 
L 305.484037 181.882882 
L 309.184779 179.660726 
L 312.885522 176.862913 
L 316.586264 175.645662 
L 320.287006 173.217579 
L 323.987749 172.398837 
L 327.688491 171.206672 
L 331.389233 171.292756 
L 335.089976 167.625577 
L 338.790718 167.549324 
L 342.49146 167.858623 
L 346.192203 166.995532 
L 349.892945 166.466818 
L 353.593687 167.430685 
L 357.29443 165.75791 
L 360.995172 164.368955 
L 364.695915 161.945231 
L 368.396657 160.935661 
L 372.097399 159.56956 
L 375.798142 157.256154 
L 379.498884 156.441356 
L 383.199626 155.911733 
L 386.900369 154.325172 
L 390.601111 154.359944 
L 394.301853 151.412216 
L 398.002596 150.022429 
L 401.703338 147.633998 
L 405.40408 145.880568 
L 409.104823 142.672564 
L 412.805565 142.321386 
L 416.506307 141.824772 
L 420.20705 141.737997 
L 423.907792 141.477167 
L 431.309277 141.512343 
L 435.010019 139.045917 
L 438.710761 135.789643 
L 442.411504 135.425569 
L 446.112246 134.239674 
L 449.812989 134.456175 
L 453.513731 132.885117 
L 457.214473 132.099188 
L 460.915216 131.723042 
L 464.615958 129.281084 
L 468.3167 128.991438 
L 472.017443 128.89908 
L 475.718185 128.211077 
L 479.418927 127.326044 
L 483.11967 125.867388 
L 486.820412 125.573518 
L 490.521154 125.605434 
L 494.221897 127.602267 
L 497.922639 126.635934 
L 501.623381 125.937834 
L 505.324124 124.125722 
L 509.024866 123.574996 
L 512.725608 122.871108 
L 516.426351 121.589955 
L 520.127093 123.353892 
L 523.827835 121.808663 
L 527.528578 119.80975 
L 531.22932 119.241809 
L 534.930063 119.855401 
L 542.331547 118.872251 
L 546.03229 117.691075 
L 549.733032 113.971119 
L 553.433774 111.533629 
L 557.134517 110.393414 
L 560.835259 109.547951 
L 564.536001 108.125135 
L 568.236744 108.795835 
L 571.937486 109.894135 
L 579.338971 107.885268 
L 583.039713 108.103221 
L 586.740455 106.768433 
L 590.441198 107.365522 
L 594.14194 108.496318 
L 601.543425 107.764089 
L 605.244167 108.779871 
L 608.944909 109.667294 
L 612.645652 109.404094 
L 616.346394 110.368309 
L 623.747879 108.73817 
L 627.448621 106.286781 
L 631.149364 105.551046 
L 634.850106 105.265207 
L 638.550848 104.325397 
L 642.251591 105.217119 
L 645.952333 102.420517 
L 653.353818 101.469193 
L 657.05456 100.438803 
L 660.755302 98.975017 
L 664.456045 99.328983 
L 668.156787 98.476741 
L 671.857529 96.524753 
L 675.558272 96.457809 
L 679.259014 95.503217 
L 682.959756 96.232259 
L 686.660499 94.789768 
L 690.361241 95.152967 
L 694.061983 94.111787 
L 697.762726 92.940832 
L 701.463468 93.078966 
L 705.164211 91.738342 
L 708.864953 89.908909 
L 712.565695 90.839963 
L 716.266438 92.209099 
L 719.96718 92.10309 
L 723.667922 91.455501 
L 727.368665 91.256846 
L 731.069407 92.27857 
L 734.770149 91.554817 
L 738.470892 90.984939 
L 742.171634 93.1238 
L 745.872376 92.579054 
L 749.573119 92.273787 
L 753.273861 90.767673 
L 760.675346 89.69463 
L 764.376088 89.725462 
L 768.07683 89.519937 
L 771.777573 88.473654 
L 775.478315 87.802235 
L 779.179058 89.482158 
L 782.8798 88.671619 
L 786.580542 88.850552 
L 793.982027 135.649453 
L 797.682769 157.411054 
L 805.084254 205.167558 
L 808.784996 230.344878 
L 812.485739 253.518376 
L 812.485739 253.518376 
" clip-path="url(#pfb6b7238a1)" style="fill: none; stroke: #2ecc71; stroke-width: 2.5; stroke-linecap: square"/>
   </g>
   <g id="line2d_34">
    <path d="M 76.038011 384.657239 
L 83.439496 367.913617 
L 87.140238 359.041142 
L 90.840981 348.816928 
L 94.541723 339.105603 
L 98.242465 330.489634 
L 101.943208 320.246131 
L 105.64395 316.721036 
L 109.344692 311.786636 
L 113.045435 306.564368 
L 116.746177 302.232618 
L 120.44692 299.040475 
L 124.147662 294.900642 
L 127.848404 291.434186 
L 131.549147 285.904583 
L 135.249889 282.299436 
L 138.950631 278.50586 
L 142.651374 275.680695 
L 146.352116 273.658909 
L 150.052858 270.815604 
L 153.753601 266.252997 
L 157.454343 261.394609 
L 161.155085 257.971811 
L 164.855828 254.264907 
L 168.55657 253.239984 
L 172.257312 248.840982 
L 175.958055 246.422314 
L 179.658797 243.85772 
L 183.359539 240.525645 
L 187.060282 239.475912 
L 190.761024 236.07294 
L 194.461767 232.132961 
L 198.162509 226.959963 
L 205.563994 221.172602 
L 209.264736 216.74512 
L 212.965478 215.538236 
L 216.666221 212.822955 
L 220.366963 210.445844 
L 224.067705 206.917755 
L 227.768448 205.131891 
L 231.46919 200.431707 
L 235.169932 196.474113 
L 238.870675 195.767235 
L 242.571417 191.480098 
L 246.272159 189.488408 
L 249.972902 187.156523 
L 253.673644 186.196109 
L 257.374386 182.90109 
L 261.075129 180.307074 
L 264.775871 181.314733 
L 268.476613 179.114409 
L 272.177356 177.438194 
L 275.878098 174.201571 
L 279.578841 171.938655 
L 283.279583 170.078348 
L 286.980325 168.998548 
L 290.681068 167.324971 
L 294.38181 164.635566 
L 298.082552 161.64207 
L 301.783295 158.183798 
L 305.484037 155.651682 
L 309.184779 153.959655 
L 312.885522 153.718097 
L 316.586264 150.924685 
L 320.287006 147.848451 
L 323.987749 146.224245 
L 327.688491 143.103986 
L 331.389233 143.410158 
L 335.089976 140.020356 
L 338.790718 137.320836 
L 346.192203 133.829807 
L 349.892945 131.812769 
L 353.593687 131.621272 
L 357.29443 131.799798 
L 360.995172 132.401257 
L 364.695915 130.648921 
L 368.396657 127.864507 
L 372.097399 126.686016 
L 375.798142 124.928284 
L 379.498884 124.398711 
L 383.199626 124.940908 
L 386.900369 122.563171 
L 390.601111 122.71102 
L 394.301853 122.333837 
L 398.002596 122.704445 
L 401.703338 121.444234 
L 405.40408 119.938674 
L 409.104823 119.61617 
L 412.805565 117.671721 
L 416.506307 115.284205 
L 420.20705 114.466232 
L 423.907792 114.514393 
L 427.608534 113.110254 
L 431.309277 112.003409 
L 435.010019 110.57676 
L 438.710761 107.77115 
L 442.411504 105.461186 
L 446.112246 104.941277 
L 449.812989 103.431231 
L 453.513731 99.792057 
L 457.214473 100.695222 
L 460.915216 101.158844 
L 464.615958 100.161237 
L 468.3167 100.129105 
L 472.017443 100.270059 
L 475.718185 99.286344 
L 479.418927 98.423839 
L 483.11967 99.464286 
L 486.820412 98.794946 
L 490.521154 97.750774 
L 494.221897 96.963075 
L 497.922639 97.238226 
L 501.623381 95.542576 
L 505.324124 96.339183 
L 509.024866 97.541179 
L 512.725608 94.526448 
L 516.426351 93.140458 
L 520.127093 91.443108 
L 523.827835 90.487517 
L 527.528578 89.379718 
L 531.22932 89.215314 
L 534.930063 85.12693 
L 538.630805 84.37767 
L 542.331547 84.091046 
L 546.03229 85.604618 
L 549.733032 84.880985 
L 557.134517 85.267543 
L 560.835259 84.266631 
L 564.536001 83.570716 
L 568.236744 84.783616 
L 571.937486 84.648854 
L 575.638228 84.814524 
L 579.338971 84.690454 
L 583.039713 84.70764 
L 586.740455 83.028823 
L 590.441198 84.73804 
L 594.14194 83.279678 
L 597.842682 83.409554 
L 601.543425 80.050301 
L 608.944909 79.219029 
L 612.645652 77.557687 
L 616.346394 77.293799 
L 620.047137 78.27407 
L 623.747879 76.792621 
L 627.448621 76.486426 
L 631.149364 75.302862 
L 634.850106 75.42814 
L 638.550848 75.954483 
L 642.251591 75.674189 
L 645.952333 77.167737 
L 649.653075 78.795017 
L 653.353818 79.425066 
L 657.05456 82.344955 
L 660.755302 83.767783 
L 671.857529 86.644269 
L 675.558272 85.756732 
L 679.259014 84.488621 
L 682.959756 83.837683 
L 690.361241 84.724401 
L 694.061983 83.647568 
L 697.762726 84.333521 
L 701.463468 84.236345 
L 705.164211 82.637326 
L 708.864953 79.900395 
L 712.565695 77.703794 
L 716.266438 76.793618 
L 719.96718 76.458736 
L 723.667922 77.319497 
L 727.368665 74.462283 
L 731.069407 73.895717 
L 734.770149 76.28548 
L 738.470892 76.901849 
L 742.171634 76.780921 
L 749.573119 75.707229 
L 753.273861 76.634534 
L 756.974603 74.538895 
L 760.675346 75.293562 
L 764.376088 75.003003 
L 768.07683 74.548654 
L 771.777573 74.886061 
L 775.478315 72.348318 
L 779.179058 72.154255 
L 782.8798 73.2655 
L 786.580542 72.56883 
L 793.982027 120.51305 
L 797.682769 145.105905 
L 801.383512 168.830981 
L 805.084254 193.594669 
L 808.784996 217.182029 
L 812.485739 242.486094 
L 812.485739 242.486094 
" clip-path="url(#pfb6b7238a1)" style="fill: none; stroke: #9b59b6; stroke-width: 2.5; stroke-linecap: square"/>
   </g>
   <g id="patch_3">
    <path d="M 39.215625 458.810938 
L 39.215625 24.629687 
" style="fill: none; stroke: #000000; stroke-width: 0.8; stroke-linejoin: miter; stroke-linecap: square"/>
   </g>
   <g id="patch_4">
    <path d="M 849.308125 458.810938 
L 849.308125 24.629687 
" style="fill: none; stroke: #000000; stroke-width: 0.8; stroke-linejoin: miter; stroke-linecap: square"/>
   </g>
   <g id="patch_5">
    <path d="M 39.215625 458.810938 
L 849.308125 458.810938 
" style="fill: none; stroke: #000000; stroke-width: 0.8; stroke-linejoin: miter; stroke-linecap: square"/>
   </g>
   <g id="patch_6">
    <path d="M 39.215625 24.629687 
L 849.308125 24.629687 
" style="fill: none; stroke: #000000; stroke-width: 0.8; stroke-linejoin: miter; stroke-linecap: square"/>
   </g>
   <g id="text_18">
    <text style="font-weight: 700; font-size: 14px; font-family: 'SimHei', 'Microsoft YaHei', 'DejaVu Sans', sans-serif; text-anchor: middle" x="444.261875" y="18.629687" transform="rotate(-0 444.261875 18.629687)">Reward Curves Comparison / 奖励曲线对比</text>
   </g>
   <g id="legend_1">
    <g id="patch_7">
     <path d="M 784.408125 453.310938 
L 841.608125 453.310938 
Q 843.808125 453.310938 843.808125 451.110938 
L 843.808125 393.910938 
Q 843.808125 391.710938 841.608125 391.710938 
L 784.408125 391.710938 
Q 782.208125 391.710938 782.208125 393.910938 
L 782.208125 451.110938 
Q 782.208125 453.310938 784.408125 453.310938 
z
" style="fill: #ffffff; opacity: 0.8; stroke: #cccccc; stroke-linejoin: miter"/>
    </g>
    <g id="line2d_35">
     <path d="M 786.608125 399.960938 
L 797.608125 399.960938 
L 808.608125 399.960938 
" style="fill: none; stroke: #3498db; stroke-width: 2.5; stroke-linecap: square"/>
    </g>
    <g id="text_19">
     <text style="font-size: 11px; font-family: 'SimHei', 'Microsoft YaHei', 'DejaVu Sans', sans-serif; text-anchor: start" x="817.408125" y="403.810938" transform="rotate(-0 817.408125 403.810938)">PPO</text>
    </g>
    <g id="line2d_36">
     <path d="M 786.608125 414.535937 
L 797.608125 414.535937 
L 808.608125 414.535937 
" style="fill: none; stroke: #e74c3c; stroke-width: 2.5; stroke-linecap: square"/>
    </g>
    <g id="text_20">
     <text style="font-size: 11px; font-family: 'SimHei', 'Microsoft YaHei', 'DejaVu Sans', sans-serif; text-anchor: start" x="817.408125" y="418.385938" transform="rotate(-0 817.408125 418.385938)">DPO</text>
    </g>
    <g id="line2d_37">
     <path d="M 786.608125 429.110937 
L 797.608125 429.110937 
L 808.608125 429.110937 
" style="fill: none; stroke: #2ecc71; stroke-width: 2.5; stroke-linecap: square"/>
    </g>
    <g id="text_21">
     <text style="font-size: 11px; font-family: 'SimHei', 'Microsoft YaHei', 'DejaVu Sans', sans-serif; text-anchor: start" x="817.408125" y="432.960938" transform="rotate(-0 817.408125 432.960938)">GRPO</text>
    </g>
    <g id="line2d_38">
     <path d="M 786.608125 443.685938 
L 797.608125 443.685938 
L 808.608125 443.685938 
" style="fill: none; stroke: #9b59b6; stroke-width: 2.5; stroke-linecap: square"/>
    </g>
    <g id="text_22">
     <text style="font-size: 11px; font-family: 'SimHei', 'Microsoft YaHei', 'DejaVu Sans', sans-serif; text-anchor: start" x="817.408125" y="447.535938" transform="rotate(-0 817.408125 447.535938)">DAPO</text>
    </g>
   </g>
  </g>
 </g>
 <defs>
  <clipPath id="pfb6b7238a1">
   <rect x="39.215625" y="24.629687" width="810.0925" height="434.18125"/>
  </clipPath>
 </defs>
</svg>
