<?xml version="1.0" encoding="utf-8" standalone="no"?>
<!DOCTYPE svg PUBLIC "-//W3C//DTD SVG 1.1//EN"
  "http://www.w3.org/Graphics/SVG/1.1/DTD/svg11.dtd">
<svg xmlns:xlink="http://www.w3.org/1999/xlink" width="493.821469pt" height="276.618438pt" viewBox="0 0 493.821469 276.618438" xmlns="http://www.w3.org/2000/svg" version="1.1">
 <metadata>
  <rdf:RDF xmlns:dc="http://purl.org/dc/elements/1.1/" xmlns:cc="http://creativecommons.org/ns#" xmlns:rdf="http://www.w3.org/1999/02/22-rdf-syntax-ns#">
   <cc:Work>
    <dc:type rdf:resource="http://purl.org/dc/dcmitype/StillImage"/>
    <dc:date>2026-04-17T11:18:53.731894</dc:date>
    <dc:format>image/svg+xml</dc:format>
    <dc:creator>
     <cc:Agent>
      <dc:title>Matplotlib v3.10.8, https://matplotlib.org/</dc:title>
     </cc:Agent>
    </dc:creator>
   </cc:Work>
  </rdf:RDF>
 </metadata>
 <defs>
  <style type="text/css">*{stroke-linejoin: round; stroke-linecap: butt}</style>
 </defs>
 <g id="figure_1">
  <g id="patch_1">
   <path d="M 0 276.618438 
L 493.821469 276.618438 
L 493.821469 0 
L 0 0 
z
" style="fill: #ffffff"/>
  </g>
  <g id="axes_1">
   <g id="patch_2">
    <path d="M 51.934531 238.598125 
L 472.305844 238.598125 
L 472.305844 22.318125 
L 51.934531 22.318125 
z
" style="fill: #ffffff"/>
   </g>
   <g id="FillBetweenPolyCollection_1">
    <defs>
     <path id="mfbfbe5998b" d="M 51.934531 -211.044312 
L 51.934531 -211.044312 
L 52.355323 -211.044312 
L 52.776115 -211.044312 
L 53.196908 -211.044312 
L 53.6177 -211.044312 
L 54.038492 -211.044312 
L 54.459284 -211.044312 
L 54.880076 -211.044312 
L 55.300868 -211.044312 
L 55.72166 -211.044312 
L 56.142452 -211.044312 
L 56.563244 -211.044312 
L 56.984037 -211.044312 
L 57.404829 -211.044312 
L 57.825621 -211.044312 
L 58.246413 -211.044312 
L 58.667205 -211.044312 
L 59.087997 -211.044312 
L 59.508789 -211.044312 
L 59.929581 -211.044312 
L 60.350373 -211.044312 
L 60.771165 -211.044312 
L 61.191958 -211.044312 
L 61.61275 -211.044312 
L 62.033542 -211.044312 
L 62.454334 -211.044312 
L 62.875126 -211.044312 
L 63.295918 -211.044312 
L 63.71671 -211.044312 
L 64.137502 -211.044312 
L 64.558294 -211.044312 
L 64.979086 -211.044312 
L 65.399879 -211.044312 
L 65.820671 -211.044312 
L 66.241463 -211.044312 
L 66.662255 -211.044312 
L 67.083047 -211.044312 
L 67.503839 -211.044312 
L 67.924631 -211.044312 
L 68.345423 -211.044312 
L 68.766215 -211.044312 
L 69.187008 -211.044312 
L 69.6078 -211.044312 
L 70.028592 -211.044312 
L 70.449384 -211.044312 
L 70.870176 -211.044312 
L 71.290968 -211.044312 
L 71.71176 -211.044312 
L 72.132552 -211.044312 
L 72.553344 -211.044312 
L 72.974136 -211.044312 
L 73.394929 -211.044312 
L 73.815721 -211.044312 
L 74.236513 -211.044312 
L 74.657305 -211.044312 
L 75.078097 -211.044312 
L 75.498889 -211.044312 
L 75.919681 -211.044312 
L 76.340473 -211.044312 
L 76.761265 -211.044312 
L 77.182058 -211.044312 
L 77.60285 -211.044312 
L 78.023642 -211.044312 
L 78.444434 -211.044312 
L 78.865226 -211.044312 
L 79.286018 -211.044312 
L 79.70681 -211.044312 
L 80.127602 -211.044312 
L 80.548394 -211.044312 
L 80.969186 -211.044312 
L 81.389979 -211.044312 
L 81.810771 -211.044312 
L 82.231563 -211.044312 
L 82.652355 -211.044312 
L 83.073147 -211.044312 
L 83.493939 -211.044312 
L 83.914731 -211.044312 
L 84.335523 -211.044312 
L 84.756315 -211.044312 
L 85.177108 -211.044312 
L 85.5979 -211.044312 
L 86.018692 -211.044312 
L 86.439484 -211.044312 
L 86.860276 -211.044312 
L 87.281068 -211.044312 
L 87.70186 -211.044312 
L 88.122652 -211.044312 
L 88.543444 -211.044312 
L 88.964236 -211.044312 
L 89.385029 -211.044312 
L 89.805821 -211.044312 
L 90.226613 -211.044312 
L 90.647405 -211.044312 
L 91.068197 -211.044312 
L 91.488989 -211.044312 
L 91.909781 -211.044312 
L 92.330573 -211.044312 
L 92.751365 -211.044312 
L 93.172158 -211.044312 
L 93.59295 -211.044312 
L 94.013742 -211.044312 
L 94.434534 -211.044312 
L 94.855326 -211.044312 
L 95.276118 -211.044312 
L 95.69691 -211.044312 
L 96.117702 -211.044312 
L 96.538494 -211.044312 
L 96.959286 -211.044312 
L 97.380079 -211.044312 
L 97.800871 -211.044312 
L 98.221663 -211.044312 
L 98.642455 -211.044312 
L 99.063247 -211.044312 
L 99.484039 -211.044312 
L 99.904831 -211.044312 
L 100.325623 -211.044312 
L 100.746415 -211.044312 
L 101.167207 -211.044312 
L 101.588 -211.044312 
L 102.008792 -211.044312 
L 102.429584 -211.044312 
L 102.850376 -211.044312 
L 103.271168 -211.044312 
L 103.69196 -211.044312 
L 104.112752 -211.044312 
L 104.533544 -211.044312 
L 104.954336 -211.044312 
L 105.375129 -211.044312 
L 105.795921 -211.044312 
L 106.216713 -211.044312 
L 106.637505 -211.044312 
L 107.058297 -211.044312 
L 107.479089 -211.044312 
L 107.899881 -211.044312 
L 108.320673 -211.044312 
L 108.741465 -211.044312 
L 109.162257 -211.044312 
L 109.58305 -211.044312 
L 110.003842 -211.044312 
L 110.424634 -211.044312 
L 110.845426 -211.044312 
L 111.266218 -211.044312 
L 111.68701 -211.044312 
L 112.107802 -211.044312 
L 112.528594 -211.044312 
L 112.949386 -211.044312 
L 113.370179 -211.044312 
L 113.790971 -211.044312 
L 114.211763 -211.044312 
L 114.632555 -211.044312 
L 115.053347 -211.044312 
L 115.474139 -211.044312 
L 115.894931 -211.044312 
L 116.315723 -211.044312 
L 116.736515 -211.044312 
L 117.157307 -211.044312 
L 117.5781 -211.044312 
L 117.998892 -211.044312 
L 118.419684 -211.044312 
L 118.840476 -211.044312 
L 119.261268 -211.044312 
L 119.68206 -211.044312 
L 120.102852 -211.044312 
L 120.523644 -211.044312 
L 120.944436 -211.044312 
L 121.365229 -211.044312 
L 121.786021 -211.044312 
L 122.206813 -211.044312 
L 122.627605 -211.044312 
L 123.048397 -211.044312 
L 123.469189 -211.044312 
L 123.889981 -211.044312 
L 124.310773 -211.044312 
L 124.731565 -211.044312 
L 125.152357 -211.044312 
L 125.57315 -211.044312 
L 125.993942 -211.044312 
L 126.414734 -211.044312 
L 126.835526 -211.044312 
L 127.256318 -211.044312 
L 127.67711 -211.044312 
L 128.097902 -211.044312 
L 128.518694 -211.044312 
L 128.939486 -211.044312 
L 129.360278 -211.044312 
L 129.781071 -211.044312 
L 130.201863 -211.044312 
L 130.622655 -211.044312 
L 131.043447 -211.044312 
L 131.464239 -211.044312 
L 131.885031 -211.044312 
L 132.305823 -211.044312 
L 132.726615 -211.044312 
L 133.147407 -211.044312 
L 133.5682 -211.044312 
L 133.988992 -211.044312 
L 134.409784 -211.044312 
L 134.830576 -211.044312 
L 135.251368 -211.044312 
L 135.67216 -211.044312 
L 136.092952 -211.044312 
L 136.513744 -211.044312 
L 136.934536 -211.044312 
L 137.355328 -211.044312 
L 137.776121 -211.044312 
L 138.196913 -211.044312 
L 138.617705 -211.044312 
L 139.038497 -211.044312 
L 139.459289 -211.044312 
L 139.880081 -211.044312 
L 140.300873 -211.044312 
L 140.721665 -211.044312 
L 141.142457 -211.044312 
L 141.56325 -211.044312 
L 141.984042 -211.044312 
L 142.404834 -211.044312 
L 142.825626 -211.044312 
L 143.246418 -211.044312 
L 143.66721 -211.044312 
L 144.088002 -211.044312 
L 144.508794 -211.044312 
L 144.929586 -211.044312 
L 145.350378 -211.044312 
L 145.771171 -211.044312 
L 146.191963 -211.044312 
L 146.612755 -211.044312 
L 147.033547 -211.044312 
L 147.454339 -211.044312 
L 147.875131 -211.044312 
L 148.295923 -211.044312 
L 148.716715 -211.044312 
L 149.137507 -211.044312 
L 149.5583 -211.044312 
L 149.979092 -211.044312 
L 150.399884 -211.044312 
L 150.820676 -211.044312 
L 151.241468 -211.044312 
L 151.66226 -211.044312 
L 152.083052 -211.044312 
L 152.503844 -211.044312 
L 152.924636 -211.044312 
L 153.345428 -211.044312 
L 153.766221 -211.044312 
L 154.187013 -211.044312 
L 154.607805 -211.044312 
L 155.028597 -211.044312 
L 155.449389 -211.044312 
L 155.870181 -211.044312 
L 156.290973 -211.044312 
L 156.711765 -211.044312 
L 157.132557 -211.044312 
L 157.55335 -211.044312 
L 157.974142 -211.044312 
L 158.394934 -211.044312 
L 158.815726 -211.044312 
L 159.236518 -211.044312 
L 159.65731 -211.044312 
L 160.078102 -211.044312 
L 160.498894 -211.044312 
L 160.919686 -211.044312 
L 161.340478 -211.044312 
L 161.761271 -211.044312 
L 162.182063 -211.044312 
L 162.602855 -211.044312 
L 163.023647 -211.044312 
L 163.444439 -211.044312 
L 163.865231 -211.044312 
L 164.286023 -211.044312 
L 164.706815 -211.044312 
L 165.127607 -211.044312 
L 165.548399 -211.044312 
L 165.969192 -211.044312 
L 166.389984 -211.044312 
L 166.810776 -211.044312 
L 167.231568 -211.044312 
L 167.65236 -211.044312 
L 168.073152 -211.044312 
L 168.493944 -211.044312 
L 168.914736 -211.044312 
L 169.335528 -211.044312 
L 169.756321 -211.044312 
L 170.177113 -211.044312 
L 170.597905 -211.044312 
L 171.018697 -211.044312 
L 171.439489 -211.044312 
L 171.860281 -211.044312 
L 172.281073 -211.044312 
L 172.701865 -211.044312 
L 173.122657 -211.044312 
L 173.543449 -211.044312 
L 173.964242 -211.044312 
L 174.385034 -211.044312 
L 174.805826 -211.044312 
L 175.226618 -211.044312 
L 175.64741 -211.044312 
L 176.068202 -211.044312 
L 176.488994 -211.044312 
L 176.909786 -211.044312 
L 177.330578 -211.044312 
L 177.751371 -211.044312 
L 178.172163 -211.044312 
L 178.592955 -211.044312 
L 179.013747 -211.044312 
L 179.434539 -211.044312 
L 179.855331 -211.044312 
L 180.276123 -211.044312 
L 180.696915 -211.044312 
L 181.117707 -211.044312 
L 181.538499 -211.044312 
L 181.959292 -211.044312 
L 182.380084 -211.044312 
L 182.800876 -211.044312 
L 183.221668 -211.044312 
L 183.64246 -211.044312 
L 184.063252 -211.044312 
L 184.484044 -211.044312 
L 184.904836 -211.044312 
L 185.325628 -211.044312 
L 185.746421 -211.044312 
L 186.167213 -211.044312 
L 186.588005 -211.044312 
L 187.008797 -211.044312 
L 187.429589 -211.044312 
L 187.850381 -211.044312 
L 188.271173 -211.044312 
L 188.691965 -211.044312 
L 189.112757 -211.044312 
L 189.533549 -211.044312 
L 189.954342 -211.044312 
L 190.375134 -211.044312 
L 190.795926 -211.044312 
L 191.216718 -211.044312 
L 191.63751 -211.044312 
L 192.058302 -211.044312 
L 192.479094 -211.044312 
L 192.899886 -211.044312 
L 193.320678 -211.044312 
L 193.741471 -211.044312 
L 194.162263 -211.044312 
L 194.583055 -211.044312 
L 195.003847 -211.044312 
L 195.424639 -211.044312 
L 195.845431 -211.044312 
L 196.266223 -211.044312 
L 196.687015 -211.044312 
L 197.107807 -211.044312 
L 197.528599 -211.044312 
L 197.949392 -211.044312 
L 198.370184 -211.044312 
L 198.790976 -211.044312 
L 199.211768 -211.044312 
L 199.63256 -211.044312 
L 200.053352 -211.044312 
L 200.474144 -211.044312 
L 200.894936 -211.044312 
L 201.315728 -211.044312 
L 201.73652 -211.044312 
L 202.157313 -211.044312 
L 202.578105 -211.044312 
L 202.998897 -211.044312 
L 203.419689 -211.044312 
L 203.840481 -211.044312 
L 204.261273 -211.044312 
L 204.682065 -211.044312 
L 205.102857 -211.044312 
L 205.523649 -211.044312 
L 205.944442 -211.044312 
L 206.365234 -211.044312 
L 206.786026 -211.044312 
L 207.206818 -211.044312 
L 207.62761 -211.044312 
L 208.048402 -211.044312 
L 208.469194 -211.044312 
L 208.889986 -211.044312 
L 209.310778 -211.044312 
L 209.73157 -211.044312 
L 210.152363 -211.044312 
L 210.573155 -211.044312 
L 210.993947 -211.044312 
L 211.414739 -211.044312 
L 211.835531 -211.044312 
L 212.256323 -211.044312 
L 212.677115 -211.044312 
L 213.097907 -211.044312 
L 213.518699 -211.044312 
L 213.939492 -211.044312 
L 214.360284 -211.044312 
L 214.781076 -211.044312 
L 215.201868 -211.044312 
L 215.62266 -211.044312 
L 216.043452 -211.044312 
L 216.464244 -211.044312 
L 216.885036 -211.044312 
L 217.305828 -211.044312 
L 217.72662 -211.044312 
L 218.147413 -211.044312 
L 218.568205 -211.044312 
L 218.988997 -211.044312 
L 219.409789 -211.044312 
L 219.830581 -211.044312 
L 220.251373 -211.044312 
L 220.672165 -211.044312 
L 221.092957 -211.044312 
L 221.513749 -211.044312 
L 221.934542 -211.044312 
L 222.355334 -211.044312 
L 222.776126 -211.044312 
L 223.196918 -211.044312 
L 223.61771 -211.044312 
L 224.038502 -211.044312 
L 224.459294 -211.044312 
L 224.880086 -211.044312 
L 225.300878 -211.044312 
L 225.72167 -211.044312 
L 226.142463 -211.044312 
L 226.563255 -211.044312 
L 226.984047 -211.044312 
L 227.404839 -211.044312 
L 227.825631 -211.044312 
L 228.246423 -211.044312 
L 228.667215 -211.044312 
L 229.088007 -211.044312 
L 229.508799 -211.044312 
L 229.929591 -211.044312 
L 230.350384 -211.044312 
L 230.771176 -211.044312 
L 231.191968 -211.044312 
L 231.61276 -211.044312 
L 232.033552 -211.044312 
L 232.454344 -211.044312 
L 232.875136 -211.044312 
L 233.295928 -211.044312 
L 233.71672 -211.044312 
L 234.137513 -211.044312 
L 234.558305 -211.044312 
L 234.979097 -211.044312 
L 235.399889 -211.044312 
L 235.820681 -211.044312 
L 236.241473 -211.044312 
L 236.662265 -211.044312 
L 237.083057 -211.044312 
L 237.503849 -211.044312 
L 237.924641 -211.044312 
L 238.345434 -211.044312 
L 238.766226 -211.044312 
L 239.187018 -211.044312 
L 239.60781 -211.044312 
L 240.028602 -211.044312 
L 240.449394 -211.044312 
L 240.870186 -211.044312 
L 241.290978 -211.044312 
L 241.71177 -211.044312 
L 242.132563 -211.044312 
L 242.553355 -211.044312 
L 242.974147 -211.044312 
L 243.394939 -211.044312 
L 243.815731 -211.044312 
L 244.236523 -211.044312 
L 244.657315 -211.044312 
L 245.078107 -211.044312 
L 245.498899 -211.044312 
L 245.919691 -211.044312 
L 246.340484 -211.044312 
L 246.761276 -211.044312 
L 247.182068 -211.044312 
L 247.60286 -211.044312 
L 248.023652 -211.044312 
L 248.444444 -211.044312 
L 248.865236 -211.044312 
L 249.286028 -211.044312 
L 249.70682 -211.044312 
L 250.127613 -211.044312 
L 250.548405 -211.044312 
L 250.969197 -211.044312 
L 251.389989 -211.044312 
L 251.810781 -211.044312 
L 252.231573 -211.044312 
L 252.652365 -211.044312 
L 253.073157 -211.044312 
L 253.493949 -211.044312 
L 253.914741 -211.044312 
L 254.335534 -211.044312 
L 254.756326 -211.044312 
L 255.177118 -211.044312 
L 255.59791 -211.044312 
L 256.018702 -211.044312 
L 256.439494 -211.044312 
L 256.860286 -211.044312 
L 257.281078 -211.044312 
L 257.70187 -211.044312 
L 258.122663 -211.044312 
L 258.543455 -211.044312 
L 258.964247 -211.044312 
L 259.385039 -211.044312 
L 259.805831 -211.044312 
L 260.226623 -211.044312 
L 260.647415 -211.044312 
L 261.068207 -211.044312 
L 261.488999 -211.044312 
L 261.909791 -211.044312 
L 262.330584 -211.044312 
L 262.751376 -211.044312 
L 263.172168 -211.044312 
L 263.59296 -211.044312 
L 264.013752 -211.044312 
L 264.434544 -211.044312 
L 264.855336 -211.044312 
L 265.276128 -211.044312 
L 265.69692 -211.044312 
L 266.117712 -211.044312 
L 266.538505 -211.044312 
L 266.959297 -211.044312 
L 267.380089 -211.044312 
L 267.800881 -211.044312 
L 268.221673 -211.044312 
L 268.642465 -211.044312 
L 269.063257 -211.044312 
L 269.484049 -211.044312 
L 269.904841 -211.044312 
L 270.325634 -211.044312 
L 270.746426 -211.044312 
L 271.167218 -211.044312 
L 271.58801 -211.044312 
L 272.008802 -211.044312 
L 272.429594 -211.044312 
L 272.850386 -211.044312 
L 273.271178 -211.044312 
L 273.69197 -211.044312 
L 274.112762 -211.044312 
L 274.533555 -211.044312 
L 274.954347 -211.044312 
L 275.375139 -211.044312 
L 275.795931 -211.044312 
L 276.216723 -211.044312 
L 276.637515 -211.044312 
L 277.058307 -211.044312 
L 277.479099 -211.044312 
L 277.899891 -211.044312 
L 278.320684 -211.044312 
L 278.741476 -211.044312 
L 279.162268 -211.044312 
L 279.58306 -211.044312 
L 280.003852 -211.044312 
L 280.424644 -211.044312 
L 280.845436 -211.044312 
L 281.266228 -211.044312 
L 281.68702 -211.044312 
L 282.107812 -211.044312 
L 282.528605 -211.044312 
L 282.949397 -211.044312 
L 283.370189 -211.044312 
L 283.790981 -211.044312 
L 284.211773 -211.044312 
L 284.632565 -211.044312 
L 285.053357 -211.044312 
L 285.474149 -211.044312 
L 285.894941 -211.044312 
L 286.315734 -211.044312 
L 286.736526 -211.044312 
L 287.157318 -211.044312 
L 287.57811 -211.044312 
L 287.998902 -211.044312 
L 288.419694 -211.044312 
L 288.840486 -211.044312 
L 289.261278 -211.044312 
L 289.68207 -211.044312 
L 290.102862 -211.044312 
L 290.523655 -211.044312 
L 290.944447 -211.044312 
L 291.365239 -211.044312 
L 291.786031 -211.044312 
L 292.206823 -211.044312 
L 292.627615 -211.044312 
L 293.048407 -211.044312 
L 293.469199 -211.044312 
L 293.889991 -211.044312 
L 294.310784 -211.044312 
L 294.731576 -211.044312 
L 295.152368 -211.044312 
L 295.57316 -211.044312 
L 295.993952 -211.044312 
L 296.414744 -211.044312 
L 296.835536 -211.044312 
L 297.256328 -211.044312 
L 297.67712 -211.044312 
L 298.097912 -211.044312 
L 298.518705 -211.044312 
L 298.939497 -211.044312 
L 299.360289 -211.044312 
L 299.781081 -211.044312 
L 300.201873 -211.044312 
L 300.622665 -211.044312 
L 301.043457 -211.044312 
L 301.464249 -211.044312 
L 301.885041 -211.044312 
L 302.305833 -211.044312 
L 302.726626 -211.044312 
L 303.147418 -211.044312 
L 303.56821 -211.044312 
L 303.989002 -211.044312 
L 304.409794 -211.044312 
L 304.830586 -211.044312 
L 305.251378 -211.044312 
L 305.67217 -211.044312 
L 306.092962 -211.044312 
L 306.513755 -211.044312 
L 306.934547 -211.044312 
L 307.355339 -211.044312 
L 307.776131 -211.044312 
L 308.196923 -211.044312 
L 308.617715 -211.044312 
L 309.038507 -211.044312 
L 309.459299 -211.044312 
L 309.880091 -211.044312 
L 310.300883 -211.044312 
L 310.721676 -211.044312 
L 311.142468 -211.044312 
L 311.56326 -211.044312 
L 311.984052 -211.044312 
L 312.404844 -211.044312 
L 312.825636 -211.044312 
L 313.246428 -211.044312 
L 313.66722 -211.044312 
L 314.088012 -211.044312 
L 314.508805 -211.044312 
L 314.929597 -211.044312 
L 315.350389 -211.044312 
L 315.771181 -211.044312 
L 316.191973 -211.044312 
L 316.612765 -211.044312 
L 317.033557 -211.044312 
L 317.454349 -211.044312 
L 317.875141 -211.044312 
L 318.295933 -211.044312 
L 318.716726 -211.044312 
L 319.137518 -211.044312 
L 319.55831 -211.044312 
L 319.979102 -211.044312 
L 320.399894 -211.044312 
L 320.820686 -211.044312 
L 321.241478 -211.044312 
L 321.66227 -211.044312 
L 322.083062 -211.044312 
L 322.503855 -211.044312 
L 322.924647 -211.044312 
L 323.345439 -211.044312 
L 323.766231 -211.044312 
L 324.187023 -211.044312 
L 324.607815 -211.044312 
L 325.028607 -211.044312 
L 325.449399 -211.044312 
L 325.870191 -211.044312 
L 326.290983 -211.044312 
L 326.711776 -211.044312 
L 327.132568 -211.044312 
L 327.132568 -211.044312 
L 327.132568 -211.044312 
L 326.711776 -211.044312 
L 326.290983 -211.044312 
L 325.870191 -211.044312 
L 325.449399 -211.044312 
L 325.028607 -211.044312 
L 324.607815 -211.044312 
L 324.187023 -211.044312 
L 323.766231 -211.044312 
L 323.345439 -211.044312 
L 322.924647 -211.044312 
L 322.503855 -211.044312 
L 322.083062 -211.044312 
L 321.66227 -211.044312 
L 321.241478 -211.044312 
L 320.820686 -211.044312 
L 320.399894 -211.044312 
L 319.979102 -211.044312 
L 319.55831 -211.044312 
L 319.137518 -211.044312 
L 318.716726 -211.044312 
L 318.295933 -211.044312 
L 317.875141 -211.044312 
L 317.454349 -211.044312 
L 317.033557 -211.044312 
L 316.612765 -211.044312 
L 316.191973 -211.044312 
L 315.771181 -211.044312 
L 315.350389 -211.044312 
L 314.929597 -211.044312 
L 314.508805 -211.044312 
L 314.088012 -211.044312 
L 313.66722 -211.044312 
L 313.246428 -211.044312 
L 312.825636 -211.044312 
L 312.404844 -211.044312 
L 311.984052 -211.044312 
L 311.56326 -211.044312 
L 311.142468 -211.044312 
L 310.721676 -211.044312 
L 310.300883 -211.044312 
L 309.880091 -211.044312 
L 309.459299 -211.044312 
L 309.038507 -211.044312 
L 308.617715 -211.044312 
L 308.196923 -211.044312 
L 307.776131 -211.044312 
L 307.355339 -211.044312 
L 306.934547 -211.044312 
L 306.513755 -211.044312 
L 306.092962 -211.044312 
L 305.67217 -211.044312 
L 305.251378 -211.044312 
L 304.830586 -211.044312 
L 304.409794 -211.044312 
L 303.989002 -211.044312 
L 303.56821 -211.044312 
L 303.147418 -211.044312 
L 302.726626 -211.044312 
L 302.305833 -211.044312 
L 301.885041 -211.044312 
L 301.464249 -211.044312 
L 301.043457 -211.044312 
L 300.622665 -211.044312 
L 300.201873 -211.044312 
L 299.781081 -211.044312 
L 299.360289 -211.044312 
L 298.939497 -211.044312 
L 298.518705 -211.044312 
L 298.097912 -211.044312 
L 297.67712 -211.044312 
L 297.256328 -211.044312 
L 296.835536 -211.044312 
L 296.414744 -211.044312 
L 295.993952 -211.044312 
L 295.57316 -211.044312 
L 295.152368 -211.044312 
L 294.731576 -211.044312 
L 294.310784 -211.044312 
L 293.889991 -211.044312 
L 293.469199 -211.044312 
L 293.048407 -211.044312 
L 292.627615 -211.044312 
L 292.206823 -211.044312 
L 291.786031 -211.044312 
L 291.365239 -211.044312 
L 290.944447 -211.044312 
L 290.523655 -211.044312 
L 290.102862 -211.044312 
L 289.68207 -211.044312 
L 289.261278 -211.044312 
L 288.840486 -211.044312 
L 288.419694 -211.044312 
L 287.998902 -211.044312 
L 287.57811 -211.044312 
L 287.157318 -211.044312 
L 286.736526 -211.044312 
L 286.315734 -211.044312 
L 285.894941 -211.044312 
L 285.474149 -211.044312 
L 285.053357 -211.044312 
L 284.632565 -211.044312 
L 284.211773 -211.044312 
L 283.790981 -211.044312 
L 283.370189 -211.044312 
L 282.949397 -211.044312 
L 282.528605 -211.044312 
L 282.107812 -211.044312 
L 281.68702 -211.044312 
L 281.266228 -211.044312 
L 280.845436 -211.044312 
L 280.424644 -211.044312 
L 280.003852 -211.044312 
L 279.58306 -211.044312 
L 279.162268 -211.044312 
L 278.741476 -211.044312 
L 278.320684 -211.044312 
L 277.899891 -211.044312 
L 277.479099 -211.044312 
L 277.058307 -211.044312 
L 276.637515 -211.044312 
L 276.216723 -211.044312 
L 275.795931 -211.044312 
L 275.375139 -211.044312 
L 274.954347 -211.044312 
L 274.533555 -211.044312 
L 274.112762 -211.044312 
L 273.69197 -211.044312 
L 273.271178 -211.044312 
L 272.850386 -211.044312 
L 272.429594 -211.044312 
L 272.008802 -211.044312 
L 271.58801 -211.044312 
L 271.167218 -211.044312 
L 270.746426 -211.044312 
L 270.325634 -211.044312 
L 269.904841 -211.044312 
L 269.484049 -211.044312 
L 269.063257 -211.044312 
L 268.642465 -211.044312 
L 268.221673 -211.044312 
L 267.800881 -211.044312 
L 267.380089 -211.044312 
L 266.959297 -211.044312 
L 266.538505 -211.044312 
L 266.117712 -211.044312 
L 265.69692 -211.044312 
L 265.276128 -211.044312 
L 264.855336 -211.044312 
L 264.434544 -211.044312 
L 264.013752 -211.044312 
L 263.59296 -211.044312 
L 263.172168 -211.044312 
L 262.751376 -211.044312 
L 262.330584 -211.044312 
L 261.909791 -211.044312 
L 261.488999 -211.044312 
L 261.068207 -211.044312 
L 260.647415 -211.044312 
L 260.226623 -211.044312 
L 259.805831 -211.044312 
L 259.385039 -211.044312 
L 258.964247 -211.044312 
L 258.543455 -211.044312 
L 258.122663 -211.044312 
L 257.70187 -211.044312 
L 257.281078 -211.044312 
L 256.860286 -211.044312 
L 256.439494 -211.044312 
L 256.018702 -211.044312 
L 255.59791 -211.044312 
L 255.177118 -211.044312 
L 254.756326 -211.044312 
L 254.335534 -211.044312 
L 253.914741 -211.044312 
L 253.493949 -211.044312 
L 253.073157 -211.044312 
L 252.652365 -211.044312 
L 252.231573 -211.044312 
L 251.810781 -211.044312 
L 251.389989 -211.044312 
L 250.969197 -211.044312 
L 250.548405 -211.044312 
L 250.127613 -211.044312 
L 249.70682 -211.044312 
L 249.286028 -211.044312 
L 248.865236 -211.044312 
L 248.444444 -211.044312 
L 248.023652 -211.044312 
L 247.60286 -211.044312 
L 247.182068 -211.044312 
L 246.761276 -211.044312 
L 246.340484 -211.044312 
L 245.919691 -211.044312 
L 245.498899 -211.044312 
L 245.078107 -211.044312 
L 244.657315 -211.044312 
L 244.236523 -211.044312 
L 243.815731 -211.044312 
L 243.394939 -211.044312 
L 242.974147 -211.044312 
L 242.553355 -211.044312 
L 242.132563 -211.044312 
L 241.71177 -211.044312 
L 241.290978 -211.044312 
L 240.870186 -211.044312 
L 240.449394 -211.044312 
L 240.028602 -211.044312 
L 239.60781 -211.044312 
L 239.187018 -211.044312 
L 238.766226 -211.044312 
L 238.345434 -211.044312 
L 237.924641 -211.044312 
L 237.503849 -211.044312 
L 237.083057 -211.044312 
L 236.662265 -211.044312 
L 236.241473 -211.044312 
L 235.820681 -211.044312 
L 235.399889 -211.044312 
L 234.979097 -211.044312 
L 234.558305 -211.044312 
L 234.137513 -211.044312 
L 233.71672 -211.044312 
L 233.295928 -211.044312 
L 232.875136 -211.044312 
L 232.454344 -211.044312 
L 232.033552 -211.044312 
L 231.61276 -211.044312 
L 231.191968 -211.044312 
L 230.771176 -211.044312 
L 230.350384 -211.044312 
L 229.929591 -211.044312 
L 229.508799 -211.044312 
L 229.088007 -211.044312 
L 228.667215 -211.044312 
L 228.246423 -211.044312 
L 227.825631 -211.044312 
L 227.404839 -211.044312 
L 226.984047 -211.044312 
L 226.563255 -211.044312 
L 226.142463 -211.044312 
L 225.72167 -211.044312 
L 225.300878 -211.044312 
L 224.880086 -211.044312 
L 224.459294 -211.044312 
L 224.038502 -211.044312 
L 223.61771 -211.044312 
L 223.196918 -211.044312 
L 222.776126 -211.044312 
L 222.355334 -211.044312 
L 221.934542 -211.044312 
L 221.513749 -211.044312 
L 221.092957 -211.044312 
L 220.672165 -211.044312 
L 220.251373 -211.044312 
L 219.830581 -211.044312 
L 219.409789 -211.044312 
L 218.988997 -211.044312 
L 218.568205 -211.044312 
L 218.147413 -211.044312 
L 217.72662 -211.044312 
L 217.305828 -211.044312 
L 216.885036 -211.044312 
L 216.464244 -211.044312 
L 216.043452 -211.044312 
L 215.62266 -211.044312 
L 215.201868 -211.044312 
L 214.781076 -211.044312 
L 214.360284 -211.044312 
L 213.939492 -211.044312 
L 213.518699 -211.044312 
L 213.097907 -211.044312 
L 212.677115 -211.044312 
L 212.256323 -211.044312 
L 211.835531 -211.044312 
L 211.414739 -211.044312 
L 210.993947 -211.044312 
L 210.573155 -211.044312 
L 210.152363 -211.044312 
L 209.73157 -211.044312 
L 209.310778 -211.044312 
L 208.889986 -211.044312 
L 208.469194 -211.044312 
L 208.048402 -211.044312 
L 207.62761 -211.044312 
L 207.206818 -211.044312 
L 206.786026 -211.044312 
L 206.365234 -211.044312 
L 205.944442 -211.044312 
L 205.523649 -211.044312 
L 205.102857 -211.044312 
L 204.682065 -211.044312 
L 204.261273 -211.044312 
L 203.840481 -211.044312 
L 203.419689 -211.044312 
L 202.998897 -211.044312 
L 202.578105 -211.044312 
L 202.157313 -211.044312 
L 201.73652 -211.044312 
L 201.315728 -211.044312 
L 200.894936 -211.044312 
L 200.474144 -211.044312 
L 200.053352 -211.044312 
L 199.63256 -211.044312 
L 199.211768 -211.044312 
L 198.790976 -211.044312 
L 198.370184 -211.044312 
L 197.949392 -211.044312 
L 197.528599 -211.044312 
L 197.107807 -211.044312 
L 196.687015 -211.044312 
L 196.266223 -211.044312 
L 195.845431 -211.044312 
L 195.424639 -211.044312 
L 195.003847 -211.044312 
L 194.583055 -211.044312 
L 194.162263 -211.044312 
L 193.741471 -211.044312 
L 193.320678 -211.044312 
L 192.899886 -211.044312 
L 192.479094 -211.044312 
L 192.058302 -211.044312 
L 191.63751 -211.044312 
L 191.216718 -211.044312 
L 190.795926 -211.044312 
L 190.375134 -211.044312 
L 189.954342 -211.044312 
L 189.533549 -211.044312 
L 189.112757 -211.044312 
L 188.691965 -211.044312 
L 188.271173 -211.044312 
L 187.850381 -211.044312 
L 187.429589 -211.044312 
L 187.008797 -211.044312 
L 186.588005 -211.044312 
L 186.167213 -211.044312 
L 185.746421 -211.044312 
L 185.325628 -211.044312 
L 184.904836 -211.044312 
L 184.484044 -211.044312 
L 184.063252 -211.044312 
L 183.64246 -211.044312 
L 183.221668 -211.044312 
L 182.800876 -211.044312 
L 182.380084 -211.044312 
L 181.959292 -211.044312 
L 181.538499 -211.044312 
L 181.117707 -211.044312 
L 180.696915 -211.044312 
L 180.276123 -211.044312 
L 179.855331 -211.044312 
L 179.434539 -211.044312 
L 179.013747 -211.044312 
L 178.592955 -211.044312 
L 178.172163 -211.044312 
L 177.751371 -211.044312 
L 177.330578 -211.044312 
L 176.909786 -211.044312 
L 176.488994 -211.044312 
L 176.068202 -211.044312 
L 175.64741 -211.044312 
L 175.226618 -211.044312 
L 174.805826 -211.044312 
L 174.385034 -211.044312 
L 173.964242 -211.044312 
L 173.543449 -211.044312 
L 173.122657 -211.044312 
L 172.701865 -211.044312 
L 172.281073 -211.044312 
L 171.860281 -211.044312 
L 171.439489 -211.044312 
L 171.018697 -211.044312 
L 170.597905 -211.044312 
L 170.177113 -211.044312 
L 169.756321 -211.044312 
L 169.335528 -211.044312 
L 168.914736 -211.044312 
L 168.493944 -211.044312 
L 168.073152 -211.044312 
L 167.65236 -211.044312 
L 167.231568 -211.044312 
L 166.810776 -211.044312 
L 166.389984 -211.044312 
L 165.969192 -211.044312 
L 165.548399 -211.044312 
L 165.127607 -211.044312 
L 164.706815 -211.044312 
L 164.286023 -211.044312 
L 163.865231 -211.044312 
L 163.444439 -211.044312 
L 163.023647 -211.044312 
L 162.602855 -211.044312 
L 162.182063 -211.044312 
L 161.761271 -211.044312 
L 161.340478 -211.044312 
L 160.919686 -211.044312 
L 160.498894 -211.044312 
L 160.078102 -211.044312 
L 159.65731 -211.044312 
L 159.236518 -211.044312 
L 158.815726 -211.044312 
L 158.394934 -211.044312 
L 157.974142 -211.044312 
L 157.55335 -211.044312 
L 157.132557 -211.044312 
L 156.711765 -211.044312 
L 156.290973 -211.044312 
L 155.870181 -211.044312 
L 155.449389 -211.044312 
L 155.028597 -211.044312 
L 154.607805 -211.044312 
L 154.187013 -211.044312 
L 153.766221 -211.044312 
L 153.345428 -211.044312 
L 152.924636 -211.044312 
L 152.503844 -211.044312 
L 152.083052 -211.044312 
L 151.66226 -211.044312 
L 151.241468 -211.044312 
L 150.820676 -211.044312 
L 150.399884 -211.044312 
L 149.979092 -211.044312 
L 149.5583 -211.044312 
L 149.137507 -211.044312 
L 148.716715 -211.044312 
L 148.295923 -211.044312 
L 147.875131 -211.044312 
L 147.454339 -211.044312 
L 147.033547 -211.044312 
L 146.612755 -211.044312 
L 146.191963 -211.044312 
L 145.771171 -211.044312 
L 145.350378 -211.044312 
L 144.929586 -211.044312 
L 144.508794 -211.044312 
L 144.088002 -211.044312 
L 143.66721 -211.044312 
L 143.246418 -211.044312 
L 142.825626 -211.044312 
L 142.404834 -211.044312 
L 141.984042 -211.044312 
L 141.56325 -211.044312 
L 141.142457 -211.044312 
L 140.721665 -211.044312 
L 140.300873 -211.044312 
L 139.880081 -211.044312 
L 139.459289 -211.044312 
L 139.038497 -211.044312 
L 138.617705 -211.044312 
L 138.196913 -211.044312 
L 137.776121 -211.044312 
L 137.355328 -211.044312 
L 136.934536 -211.044312 
L 136.513744 -211.044312 
L 136.092952 -211.044312 
L 135.67216 -211.044312 
L 135.251368 -211.044312 
L 134.830576 -211.044312 
L 134.409784 -211.044312 
L 133.988992 -211.044312 
L 133.5682 -211.044312 
L 133.147407 -211.044312 
L 132.726615 -211.044312 
L 132.305823 -211.044312 
L 131.885031 -211.044312 
L 131.464239 -211.044312 
L 131.043447 -211.044312 
L 130.622655 -211.044312 
L 130.201863 -211.044312 
L 129.781071 -211.044312 
L 129.360278 -211.044312 
L 128.939486 -211.044312 
L 128.518694 -211.044312 
L 128.097902 -211.044312 
L 127.67711 -211.044312 
L 127.256318 -211.044312 
L 126.835526 -211.044312 
L 126.414734 -211.044312 
L 125.993942 -211.044312 
L 125.57315 -211.044312 
L 125.152357 -211.044312 
L 124.731565 -211.044312 
L 124.310773 -211.044312 
L 123.889981 -211.044312 
L 123.469189 -211.044312 
L 123.048397 -211.044312 
L 122.627605 -211.044312 
L 122.206813 -211.044312 
L 121.786021 -211.044312 
L 121.365229 -211.044312 
L 120.944436 -211.044312 
L 120.523644 -211.044312 
L 120.102852 -211.044312 
L 119.68206 -211.044312 
L 119.261268 -211.044312 
L 118.840476 -211.044312 
L 118.419684 -211.044312 
L 117.998892 -211.044312 
L 117.5781 -211.044312 
L 117.157307 -211.044312 
L 116.736515 -211.044312 
L 116.315723 -211.044312 
L 115.894931 -211.044312 
L 115.474139 -211.044312 
L 115.053347 -211.044312 
L 114.632555 -211.044312 
L 114.211763 -211.044312 
L 113.790971 -211.044312 
L 113.370179 -211.044312 
L 112.949386 -211.044312 
L 112.528594 -211.044312 
L 112.107802 -211.044312 
L 111.68701 -211.044312 
L 111.266218 -211.044312 
L 110.845426 -211.044312 
L 110.424634 -211.044312 
L 110.003842 -211.044312 
L 109.58305 -211.044312 
L 109.162257 -211.044312 
L 108.741465 -211.044312 
L 108.320673 -211.044312 
L 107.899881 -211.044312 
L 107.479089 -211.044312 
L 107.058297 -211.044312 
L 106.637505 -211.044312 
L 106.216713 -211.044312 
L 105.795921 -211.044312 
L 105.375129 -211.044312 
L 104.954336 -211.044312 
L 104.533544 -211.044312 
L 104.112752 -211.044312 
L 103.69196 -211.044312 
L 103.271168 -211.044312 
L 102.850376 -211.044312 
L 102.429584 -211.044312 
L 102.008792 -211.044312 
L 101.588 -211.044312 
L 101.167207 -211.044312 
L 100.746415 -211.044312 
L 100.325623 -211.044312 
L 99.904831 -211.044312 
L 99.484039 -211.044312 
L 99.063247 -211.044312 
L 98.642455 -211.044312 
L 98.221663 -211.044312 
L 97.800871 -211.044312 
L 97.380079 -211.044312 
L 96.959286 -211.044312 
L 96.538494 -211.044312 
L 96.117702 -211.044312 
L 95.69691 -211.044312 
L 95.276118 -211.044312 
L 94.855326 -211.044312 
L 94.434534 -211.044312 
L 94.013742 -211.044312 
L 93.59295 -211.044312 
L 93.172158 -211.044312 
L 92.751365 -211.044312 
L 92.330573 -211.044312 
L 91.909781 -211.044312 
L 91.488989 -211.044312 
L 91.068197 -211.044312 
L 90.647405 -211.044312 
L 90.226613 -211.044312 
L 89.805821 -211.044312 
L 89.385029 -211.044312 
L 88.964236 -211.044312 
L 88.543444 -211.044312 
L 88.122652 -211.044312 
L 87.70186 -211.044312 
L 87.281068 -211.044312 
L 86.860276 -211.044312 
L 86.439484 -211.044312 
L 86.018692 -211.044312 
L 85.5979 -211.044312 
L 85.177108 -211.044312 
L 84.756315 -211.044312 
L 84.335523 -211.044312 
L 83.914731 -211.044312 
L 83.493939 -211.044312 
L 83.073147 -211.044312 
L 82.652355 -211.044312 
L 82.231563 -211.044312 
L 81.810771 -211.044312 
L 81.389979 -211.044312 
L 80.969186 -211.044312 
L 80.548394 -211.044312 
L 80.127602 -211.044312 
L 79.70681 -211.044312 
L 79.286018 -211.044312 
L 78.865226 -211.044312 
L 78.444434 -211.044312 
L 78.023642 -211.044312 
L 77.60285 -211.044312 
L 77.182058 -211.044312 
L 76.761265 -211.044312 
L 76.340473 -211.044312 
L 75.919681 -211.044312 
L 75.498889 -211.044312 
L 75.078097 -211.044312 
L 74.657305 -211.044312 
L 74.236513 -211.044312 
L 73.815721 -211.044312 
L 73.394929 -211.044312 
L 72.974136 -211.044312 
L 72.553344 -211.044312 
L 72.132552 -211.044312 
L 71.71176 -211.044312 
L 71.290968 -211.044312 
L 70.870176 -211.044312 
L 70.449384 -211.044312 
L 70.028592 -211.044312 
L 69.6078 -211.044312 
L 69.187008 -211.044312 
L 68.766215 -211.044312 
L 68.345423 -211.044312 
L 67.924631 -211.044312 
L 67.503839 -211.044312 
L 67.083047 -211.044312 
L 66.662255 -211.044312 
L 66.241463 -211.044312 
L 65.820671 -211.044312 
L 65.399879 -211.044312 
L 64.979086 -211.044312 
L 64.558294 -211.044312 
L 64.137502 -211.044312 
L 63.71671 -211.044312 
L 63.295918 -211.044312 
L 62.875126 -211.044312 
L 62.454334 -211.044312 
L 62.033542 -211.044312 
L 61.61275 -211.044312 
L 61.191958 -211.044312 
L 60.771165 -211.044312 
L 60.350373 -211.044312 
L 59.929581 -211.044312 
L 59.508789 -211.044312 
L 59.087997 -211.044312 
L 58.667205 -211.044312 
L 58.246413 -211.044312 
L 57.825621 -211.044312 
L 57.404829 -211.044312 
L 56.984037 -211.044312 
L 56.563244 -211.044312 
L 56.142452 -211.044312 
L 55.72166 -211.044312 
L 55.300868 -211.044312 
L 54.880076 -211.044312 
L 54.459284 -211.044312 
L 54.038492 -211.044312 
L 53.6177 -211.044312 
L 53.196908 -211.044312 
L 52.776115 -211.044312 
L 52.355323 -211.044312 
L 51.934531 -211.044312 
z
" style="stroke: #008000; stroke-opacity: 0.05"/>
    </defs>
    <g clip-path="url(#p03724e7002)">
     <use xlink:href="#mfbfbe5998b" x="0" y="276.618438" style="fill: #008000; fill-opacity: 0.05; stroke: #008000; stroke-opacity: 0.05"/>
    </g>
   </g>
   <g id="FillBetweenPolyCollection_2">
    <defs>
     <path id="m8a43d8429d" d="M 327.55336 -211.044312 
L 327.55336 -210.784122 
L 327.974152 -209.903196 
L 328.394944 -209.022269 
L 328.815736 -208.141343 
L 329.236528 -207.260416 
L 329.65732 -206.37949 
L 330.078112 -205.498563 
L 330.498904 -204.617637 
L 330.919697 -203.73671 
L 331.340489 -202.855784 
L 331.761281 -201.974857 
L 332.182073 -201.093931 
L 332.602865 -200.213004 
L 333.023657 -199.332078 
L 333.444449 -198.451151 
L 333.865241 -197.570225 
L 334.286033 -196.689298 
L 334.706826 -195.808372 
L 335.127618 -194.927445 
L 335.54841 -194.046519 
L 335.969202 -193.165592 
L 336.389994 -192.284666 
L 336.810786 -191.403739 
L 337.231578 -190.522813 
L 337.65237 -189.641886 
L 338.073162 -188.76096 
L 338.493954 -187.880033 
L 338.914747 -186.999107 
L 339.335539 -186.11818 
L 339.756331 -185.237254 
L 340.177123 -184.356327 
L 340.597915 -183.475401 
L 341.018707 -182.594474 
L 341.439499 -181.713548 
L 341.860291 -180.832621 
L 342.281083 -179.951695 
L 342.701876 -179.070768 
L 343.122668 -178.189842 
L 343.54346 -177.308915 
L 343.964252 -176.427989 
L 344.385044 -175.547062 
L 344.805836 -174.666136 
L 345.226628 -173.785209 
L 345.64742 -172.904283 
L 346.068212 -172.023356 
L 346.489004 -171.14243 
L 346.909797 -170.261503 
L 347.330589 -169.380577 
L 347.751381 -168.49965 
L 348.172173 -167.618724 
L 348.592965 -166.737797 
L 349.013757 -165.856871 
L 349.434549 -164.975944 
L 349.855341 -164.095018 
L 350.276133 -163.214091 
L 350.696926 -162.333165 
L 351.117718 -161.452238 
L 351.53851 -160.571312 
L 351.959302 -159.690385 
L 352.380094 -158.809459 
L 352.800886 -157.928532 
L 353.221678 -157.047606 
L 353.64247 -156.166679 
L 354.063262 -155.285753 
L 354.484054 -154.404826 
L 354.904847 -153.5239 
L 355.325639 -152.642973 
L 355.746431 -151.762047 
L 356.167223 -150.88112 
L 356.588015 -150.000194 
L 357.008807 -149.119267 
L 357.429599 -148.238341 
L 357.850391 -147.357414 
L 358.271183 -146.476488 
L 358.691976 -145.595561 
L 359.112768 -144.714635 
L 359.53356 -143.833708 
L 359.954352 -142.952782 
L 360.375144 -142.071855 
L 360.795936 -141.190929 
L 361.216728 -140.310002 
L 361.63752 -139.429076 
L 362.058312 -138.548149 
L 362.479104 -137.667223 
L 362.899897 -136.786296 
L 363.320689 -135.90537 
L 363.741481 -135.024443 
L 364.162273 -134.143517 
L 364.583065 -133.26259 
L 365.003857 -132.381664 
L 365.424649 -131.500737 
L 365.845441 -130.619811 
L 366.266233 -129.738884 
L 366.687025 -128.857958 
L 367.107818 -127.977031 
L 367.52861 -127.096105 
L 367.949402 -126.215178 
L 368.370194 -125.334252 
L 368.790986 -124.453325 
L 369.211778 -123.572399 
L 369.63257 -122.691472 
L 370.053362 -121.810546 
L 370.474154 -120.929619 
L 370.894947 -120.048693 
L 371.315739 -119.167766 
L 371.736531 -118.28684 
L 372.157323 -117.405913 
L 372.578115 -116.524987 
L 372.998907 -115.64406 
L 373.419699 -114.763134 
L 373.840491 -113.882207 
L 374.261283 -113.001281 
L 374.682075 -112.120354 
L 375.102868 -111.239428 
L 375.52366 -110.358501 
L 375.944452 -109.477575 
L 376.365244 -108.596648 
L 376.786036 -107.715722 
L 377.206828 -106.834795 
L 377.62762 -105.953869 
L 378.048412 -105.072942 
L 378.469204 -104.192016 
L 378.889997 -103.311089 
L 379.310789 -102.430163 
L 379.731581 -101.549236 
L 380.152373 -100.66831 
L 380.573165 -99.787383 
L 380.993957 -98.906457 
L 381.414749 -98.02553 
L 381.835541 -97.144604 
L 382.256333 -96.263677 
L 382.677125 -95.382751 
L 383.097918 -94.501824 
L 383.51871 -93.620898 
L 383.939502 -92.739971 
L 384.360294 -91.859045 
L 384.781086 -90.978118 
L 385.201878 -90.097192 
L 385.62267 -89.216265 
L 386.043462 -88.335339 
L 386.464254 -87.454412 
L 386.885047 -86.573486 
L 387.305839 -85.692559 
L 387.726631 -84.811633 
L 388.147423 -83.930706 
L 388.568215 -83.04978 
L 388.989007 -82.168853 
L 389.409799 -81.287927 
L 389.830591 -80.407 
L 390.251383 -79.526074 
L 390.672175 -78.645147 
L 391.092968 -77.764221 
L 391.51376 -76.883294 
L 391.934552 -76.002368 
L 392.355344 -75.121441 
L 392.776136 -74.240515 
L 393.196928 -73.359588 
L 393.61772 -72.478662 
L 394.038512 -71.597735 
L 394.459304 -70.716809 
L 394.880097 -69.835882 
L 395.300889 -68.954956 
L 395.721681 -68.074029 
L 396.142473 -67.193103 
L 396.142473 -211.044312 
L 396.142473 -211.044312 
L 395.721681 -211.044312 
L 395.300889 -211.044312 
L 394.880097 -211.044312 
L 394.459304 -211.044312 
L 394.038512 -211.044312 
L 393.61772 -211.044312 
L 393.196928 -211.044312 
L 392.776136 -211.044312 
L 392.355344 -211.044312 
L 391.934552 -211.044312 
L 391.51376 -211.044312 
L 391.092968 -211.044312 
L 390.672175 -211.044312 
L 390.251383 -211.044312 
L 389.830591 -211.044312 
L 389.409799 -211.044312 
L 388.989007 -211.044312 
L 388.568215 -211.044312 
L 388.147423 -211.044312 
L 387.726631 -211.044312 
L 387.305839 -211.044312 
L 386.885047 -211.044312 
L 386.464254 -211.044312 
L 386.043462 -211.044312 
L 385.62267 -211.044312 
L 385.201878 -211.044312 
L 384.781086 -211.044312 
L 384.360294 -211.044312 
L 383.939502 -211.044312 
L 383.51871 -211.044312 
L 383.097918 -211.044312 
L 382.677125 -211.044312 
L 382.256333 -211.044312 
L 381.835541 -211.044312 
L 381.414749 -211.044312 
L 380.993957 -211.044312 
L 380.573165 -211.044312 
L 380.152373 -211.044312 
L 379.731581 -211.044312 
L 379.310789 -211.044312 
L 378.889997 -211.044312 
L 378.469204 -211.044312 
L 378.048412 -211.044312 
L 377.62762 -211.044312 
L 377.206828 -211.044312 
L 376.786036 -211.044312 
L 376.365244 -211.044312 
L 375.944452 -211.044312 
L 375.52366 -211.044312 
L 375.102868 -211.044312 
L 374.682075 -211.044312 
L 374.261283 -211.044312 
L 373.840491 -211.044312 
L 373.419699 -211.044312 
L 372.998907 -211.044312 
L 372.578115 -211.044312 
L 372.157323 -211.044312 
L 371.736531 -211.044312 
L 371.315739 -211.044312 
L 370.894947 -211.044312 
L 370.474154 -211.044312 
L 370.053362 -211.044312 
L 369.63257 -211.044312 
L 369.211778 -211.044312 
L 368.790986 -211.044312 
L 368.370194 -211.044312 
L 367.949402 -211.044312 
L 367.52861 -211.044312 
L 367.107818 -211.044312 
L 366.687025 -211.044312 
L 366.266233 -211.044312 
L 365.845441 -211.044312 
L 365.424649 -211.044312 
L 365.003857 -211.044312 
L 364.583065 -211.044312 
L 364.162273 -211.044312 
L 363.741481 -211.044312 
L 363.320689 -211.044312 
L 362.899897 -211.044312 
L 362.479104 -211.044312 
L 362.058312 -211.044312 
L 361.63752 -211.044312 
L 361.216728 -211.044312 
L 360.795936 -211.044312 
L 360.375144 -211.044312 
L 359.954352 -211.044312 
L 359.53356 -211.044312 
L 359.112768 -211.044312 
L 358.691976 -211.044312 
L 358.271183 -211.044312 
L 357.850391 -211.044312 
L 357.429599 -211.044312 
L 357.008807 -211.044312 
L 356.588015 -211.044312 
L 356.167223 -211.044312 
L 355.746431 -211.044312 
L 355.325639 -211.044312 
L 354.904847 -211.044312 
L 354.484054 -211.044312 
L 354.063262 -211.044312 
L 353.64247 -211.044312 
L 353.221678 -211.044312 
L 352.800886 -211.044312 
L 352.380094 -211.044312 
L 351.959302 -211.044312 
L 351.53851 -211.044312 
L 351.117718 -211.044312 
L 350.696926 -211.044312 
L 350.276133 -211.044312 
L 349.855341 -211.044312 
L 349.434549 -211.044312 
L 349.013757 -211.044312 
L 348.592965 -211.044312 
L 348.172173 -211.044312 
L 347.751381 -211.044312 
L 347.330589 -211.044312 
L 346.909797 -211.044312 
L 346.489004 -211.044312 
L 346.068212 -211.044312 
L 345.64742 -211.044312 
L 345.226628 -211.044312 
L 344.805836 -211.044312 
L 344.385044 -211.044312 
L 343.964252 -211.044312 
L 343.54346 -211.044312 
L 343.122668 -211.044312 
L 342.701876 -211.044312 
L 342.281083 -211.044312 
L 341.860291 -211.044312 
L 341.439499 -211.044312 
L 341.018707 -211.044312 
L 340.597915 -211.044312 
L 340.177123 -211.044312 
L 339.756331 -211.044312 
L 339.335539 -211.044312 
L 338.914747 -211.044312 
L 338.493954 -211.044312 
L 338.073162 -211.044312 
L 337.65237 -211.044312 
L 337.231578 -211.044312 
L 336.810786 -211.044312 
L 336.389994 -211.044312 
L 335.969202 -211.044312 
L 335.54841 -211.044312 
L 335.127618 -211.044312 
L 334.706826 -211.044312 
L 334.286033 -211.044312 
L 333.865241 -211.044312 
L 333.444449 -211.044312 
L 333.023657 -211.044312 
L 332.602865 -211.044312 
L 332.182073 -211.044312 
L 331.761281 -211.044312 
L 331.340489 -211.044312 
L 330.919697 -211.044312 
L 330.498904 -211.044312 
L 330.078112 -211.044312 
L 329.65732 -211.044312 
L 329.236528 -211.044312 
L 328.815736 -211.044312 
L 328.394944 -211.044312 
L 327.974152 -211.044312 
L 327.55336 -211.044312 
z
" style="stroke: #ffa500; stroke-opacity: 0.1"/>
    </defs>
    <g clip-path="url(#p03724e7002)">
     <use xlink:href="#m8a43d8429d" x="0" y="276.618438" style="fill: #ffa500; fill-opacity: 0.1; stroke: #ffa500; stroke-opacity: 0.1"/>
    </g>
   </g>
   <g id="FillBetweenPolyCollection_3">
    <defs>
     <path id="m318fd343f5" d="M 396.563265 -211.044312 
L 396.563265 -66.857646 
L 396.984057 -66.857646 
L 397.404849 -66.857646 
L 397.825641 -66.857646 
L 398.246433 -66.857646 
L 398.667225 -66.857646 
L 399.088018 -66.857646 
L 399.50881 -66.857646 
L 399.929602 -66.857646 
L 400.350394 -66.857646 
L 400.771186 -66.857646 
L 401.191978 -66.857646 
L 401.61277 -66.857646 
L 402.033562 -66.857646 
L 402.454354 -66.857646 
L 402.875146 -66.857646 
L 403.295939 -66.857646 
L 403.716731 -66.857646 
L 404.137523 -66.857646 
L 404.558315 -66.857646 
L 404.979107 -66.857646 
L 405.399899 -66.857646 
L 405.820691 -66.857646 
L 406.241483 -66.857646 
L 406.662275 -66.857646 
L 407.083068 -66.857646 
L 407.50386 -66.857646 
L 407.924652 -66.857646 
L 408.345444 -66.857646 
L 408.766236 -66.857646 
L 409.187028 -66.857646 
L 409.60782 -66.857646 
L 410.028612 -66.857646 
L 410.449404 -66.857646 
L 410.870196 -66.857646 
L 411.290989 -66.857646 
L 411.711781 -66.857646 
L 412.132573 -66.857646 
L 412.553365 -66.857646 
L 412.974157 -66.857646 
L 413.394949 -66.857646 
L 413.815741 -66.857646 
L 414.236533 -66.857646 
L 414.657325 -66.857646 
L 415.078118 -66.857646 
L 415.49891 -66.857646 
L 415.919702 -66.857646 
L 416.340494 -66.857646 
L 416.761286 -66.857646 
L 417.182078 -66.857646 
L 417.60287 -66.857646 
L 418.023662 -66.857646 
L 418.444454 -66.857646 
L 418.865246 -66.857646 
L 419.286039 -66.857646 
L 419.706831 -66.857646 
L 420.127623 -66.857646 
L 420.548415 -66.857646 
L 420.969207 -66.857646 
L 421.389999 -66.857646 
L 421.810791 -66.857646 
L 422.231583 -66.857646 
L 422.652375 -66.857646 
L 423.073168 -66.857646 
L 423.49396 -66.857646 
L 423.914752 -66.857646 
L 424.335544 -66.857646 
L 424.756336 -66.857646 
L 425.177128 -66.857646 
L 425.59792 -66.857646 
L 426.018712 -66.857646 
L 426.439504 -66.857646 
L 426.860296 -66.857646 
L 427.281089 -66.857646 
L 427.701881 -66.857646 
L 428.122673 -66.857646 
L 428.543465 -66.857646 
L 428.964257 -66.857646 
L 429.385049 -66.857646 
L 429.805841 -66.857646 
L 430.226633 -66.857646 
L 430.647425 -66.857646 
L 431.068217 -66.857646 
L 431.48901 -66.857646 
L 431.909802 -66.857646 
L 432.330594 -66.857646 
L 432.751386 -66.857646 
L 433.172178 -66.857646 
L 433.59297 -66.857646 
L 434.013762 -66.857646 
L 434.434554 -66.857646 
L 434.855346 -66.857646 
L 435.276139 -66.857646 
L 435.696931 -66.857646 
L 436.117723 -66.857646 
L 436.538515 -66.857646 
L 436.959307 -66.857646 
L 437.380099 -66.857646 
L 437.800891 -66.857646 
L 438.221683 -66.857646 
L 438.642475 -66.857646 
L 439.063267 -66.857646 
L 439.48406 -66.857646 
L 439.904852 -66.857646 
L 440.325644 -66.857646 
L 440.746436 -66.857646 
L 441.167228 -66.857646 
L 441.58802 -66.857646 
L 442.008812 -66.857646 
L 442.429604 -66.857646 
L 442.850396 -66.857646 
L 443.271189 -66.857646 
L 443.691981 -66.857646 
L 444.112773 -66.857646 
L 444.533565 -66.857646 
L 444.954357 -66.857646 
L 445.375149 -66.857646 
L 445.795941 -66.857646 
L 446.216733 -66.857646 
L 446.637525 -66.857646 
L 447.058317 -66.857646 
L 447.47911 -66.857646 
L 447.899902 -66.857646 
L 448.320694 -66.857646 
L 448.741486 -66.857646 
L 449.162278 -66.857646 
L 449.58307 -66.857646 
L 450.003862 -66.857646 
L 450.424654 -66.857646 
L 450.845446 -66.857646 
L 451.266239 -66.857646 
L 451.687031 -66.857646 
L 452.107823 -66.857646 
L 452.528615 -66.857646 
L 452.949407 -66.857646 
L 453.370199 -66.857646 
L 453.790991 -66.857646 
L 454.211783 -66.857646 
L 454.632575 -66.857646 
L 455.053367 -66.857646 
L 455.47416 -66.857646 
L 455.894952 -66.857646 
L 456.315744 -66.857646 
L 456.736536 -66.857646 
L 457.157328 -66.857646 
L 457.57812 -66.857646 
L 457.998912 -66.857646 
L 458.419704 -66.857646 
L 458.840496 -66.857646 
L 459.261289 -66.857646 
L 459.682081 -66.857646 
L 460.102873 -66.857646 
L 460.523665 -66.857646 
L 460.944457 -66.857646 
L 461.365249 -66.857646 
L 461.786041 -66.857646 
L 462.206833 -66.857646 
L 462.627625 -66.857646 
L 463.048417 -66.857646 
L 463.46921 -66.857646 
L 463.890002 -66.857646 
L 464.310794 -66.857646 
L 464.731586 -66.857646 
L 465.152378 -66.857646 
L 465.57317 -66.857646 
L 465.993962 -66.857646 
L 466.414754 -66.857646 
L 466.835546 -66.857646 
L 467.256338 -66.857646 
L 467.677131 -66.857646 
L 468.097923 -66.857646 
L 468.518715 -66.857646 
L 468.939507 -66.857646 
L 469.360299 -66.857646 
L 469.781091 -66.857646 
L 470.201883 -66.857646 
L 470.622675 -66.857646 
L 471.043467 -66.857646 
L 471.46426 -66.857646 
L 471.885052 -66.857646 
L 472.305844 -66.857646 
L 472.305844 -211.044312 
L 472.305844 -211.044312 
L 471.885052 -211.044312 
L 471.46426 -211.044312 
L 471.043467 -211.044312 
L 470.622675 -211.044312 
L 470.201883 -211.044312 
L 469.781091 -211.044312 
L 469.360299 -211.044312 
L 468.939507 -211.044312 
L 468.518715 -211.044312 
L 468.097923 -211.044312 
L 467.677131 -211.044312 
L 467.256338 -211.044312 
L 466.835546 -211.044312 
L 466.414754 -211.044312 
L 465.993962 -211.044312 
L 465.57317 -211.044312 
L 465.152378 -211.044312 
L 464.731586 -211.044312 
L 464.310794 -211.044312 
L 463.890002 -211.044312 
L 463.46921 -211.044312 
L 463.048417 -211.044312 
L 462.627625 -211.044312 
L 462.206833 -211.044312 
L 461.786041 -211.044312 
L 461.365249 -211.044312 
L 460.944457 -211.044312 
L 460.523665 -211.044312 
L 460.102873 -211.044312 
L 459.682081 -211.044312 
L 459.261289 -211.044312 
L 458.840496 -211.044312 
L 458.419704 -211.044312 
L 457.998912 -211.044312 
L 457.57812 -211.044312 
L 457.157328 -211.044312 
L 456.736536 -211.044312 
L 456.315744 -211.044312 
L 455.894952 -211.044312 
L 455.47416 -211.044312 
L 455.053367 -211.044312 
L 454.632575 -211.044312 
L 454.211783 -211.044312 
L 453.790991 -211.044312 
L 453.370199 -211.044312 
L 452.949407 -211.044312 
L 452.528615 -211.044312 
L 452.107823 -211.044312 
L 451.687031 -211.044312 
L 451.266239 -211.044312 
L 450.845446 -211.044312 
L 450.424654 -211.044312 
L 450.003862 -211.044312 
L 449.58307 -211.044312 
L 449.162278 -211.044312 
L 448.741486 -211.044312 
L 448.320694 -211.044312 
L 447.899902 -211.044312 
L 447.47911 -211.044312 
L 447.058317 -211.044312 
L 446.637525 -211.044312 
L 446.216733 -211.044312 
L 445.795941 -211.044312 
L 445.375149 -211.044312 
L 444.954357 -211.044312 
L 444.533565 -211.044312 
L 444.112773 -211.044312 
L 443.691981 -211.044312 
L 443.271189 -211.044312 
L 442.850396 -211.044312 
L 442.429604 -211.044312 
L 442.008812 -211.044312 
L 441.58802 -211.044312 
L 441.167228 -211.044312 
L 440.746436 -211.044312 
L 440.325644 -211.044312 
L 439.904852 -211.044312 
L 439.48406 -211.044312 
L 439.063267 -211.044312 
L 438.642475 -211.044312 
L 438.221683 -211.044312 
L 437.800891 -211.044312 
L 437.380099 -211.044312 
L 436.959307 -211.044312 
L 436.538515 -211.044312 
L 436.117723 -211.044312 
L 435.696931 -211.044312 
L 435.276139 -211.044312 
L 434.855346 -211.044312 
L 434.434554 -211.044312 
L 434.013762 -211.044312 
L 433.59297 -211.044312 
L 433.172178 -211.044312 
L 432.751386 -211.044312 
L 432.330594 -211.044312 
L 431.909802 -211.044312 
L 431.48901 -211.044312 
L 431.068217 -211.044312 
L 430.647425 -211.044312 
L 430.226633 -211.044312 
L 429.805841 -211.044312 
L 429.385049 -211.044312 
L 428.964257 -211.044312 
L 428.543465 -211.044312 
L 428.122673 -211.044312 
L 427.701881 -211.044312 
L 427.281089 -211.044312 
L 426.860296 -211.044312 
L 426.439504 -211.044312 
L 426.018712 -211.044312 
L 425.59792 -211.044312 
L 425.177128 -211.044312 
L 424.756336 -211.044312 
L 424.335544 -211.044312 
L 423.914752 -211.044312 
L 423.49396 -211.044312 
L 423.073168 -211.044312 
L 422.652375 -211.044312 
L 422.231583 -211.044312 
L 421.810791 -211.044312 
L 421.389999 -211.044312 
L 420.969207 -211.044312 
L 420.548415 -211.044312 
L 420.127623 -211.044312 
L 419.706831 -211.044312 
L 419.286039 -211.044312 
L 418.865246 -211.044312 
L 418.444454 -211.044312 
L 418.023662 -211.044312 
L 417.60287 -211.044312 
L 417.182078 -211.044312 
L 416.761286 -211.044312 
L 416.340494 -211.044312 
L 415.919702 -211.044312 
L 415.49891 -211.044312 
L 415.078118 -211.044312 
L 414.657325 -211.044312 
L 414.236533 -211.044312 
L 413.815741 -211.044312 
L 413.394949 -211.044312 
L 412.974157 -211.044312 
L 412.553365 -211.044312 
L 412.132573 -211.044312 
L 411.711781 -211.044312 
L 411.290989 -211.044312 
L 410.870196 -211.044312 
L 410.449404 -211.044312 
L 410.028612 -211.044312 
L 409.60782 -211.044312 
L 409.187028 -211.044312 
L 408.766236 -211.044312 
L 408.345444 -211.044312 
L 407.924652 -211.044312 
L 407.50386 -211.044312 
L 407.083068 -211.044312 
L 406.662275 -211.044312 
L 406.241483 -211.044312 
L 405.820691 -211.044312 
L 405.399899 -211.044312 
L 404.979107 -211.044312 
L 404.558315 -211.044312 
L 404.137523 -211.044312 
L 403.716731 -211.044312 
L 403.295939 -211.044312 
L 402.875146 -211.044312 
L 402.454354 -211.044312 
L 402.033562 -211.044312 
L 401.61277 -211.044312 
L 401.191978 -211.044312 
L 400.771186 -211.044312 
L 400.350394 -211.044312 
L 399.929602 -211.044312 
L 399.50881 -211.044312 
L 399.088018 -211.044312 
L 398.667225 -211.044312 
L 398.246433 -211.044312 
L 397.825641 -211.044312 
L 397.404849 -211.044312 
L 396.984057 -211.044312 
L 396.563265 -211.044312 
z
" style="stroke: #ff0000; stroke-opacity: 0.15"/>
    </defs>
    <g clip-path="url(#p03724e7002)">
     <use xlink:href="#m318fd343f5" x="0" y="276.618438" style="fill: #ff0000; fill-opacity: 0.15; stroke: #ff0000; stroke-opacity: 0.15"/>
    </g>
   </g>
   <g id="matplotlib.axis_1">
    <g id="xtick_1">
     <g id="line2d_1">
      <path d="M 51.934531 238.598125 
L 51.934531 22.318125 
" clip-path="url(#p03724e7002)" style="fill: none; stroke-dasharray: 2.96,1.28; stroke-dashoffset: 0; stroke: #b0b0b0; stroke-opacity: 0.3; stroke-width: 0.8"/>
     </g>
     <g id="line2d_2">
      <defs>
       <path id="m1da7a9b107" d="M 0 0 
L 0 3.5 
" style="stroke: #000000; stroke-width: 0.8"/>
      </defs>
      <g>
       <use xlink:href="#m1da7a9b107" x="51.934531" y="238.598125" style="stroke: #000000; stroke-width: 0.8"/>
      </g>
     </g>
     <g id="text_1">
      <text style="font-size: 9px; font-family: 'DejaVu Serif', 'Bitstream Vera Serif', 'Computer Modern Roman', 'New Century Schoolbook', 'Century Schoolbook L', 'Utopia', 'ITC Bookman', 'Bookman', 'Nimbus Roman No9 L', 'Times New Roman', 'Times', 'Palatino', 'Charter', serif; text-anchor: middle" x="51.934531" y="252.436719" transform="rotate(-0 51.934531 252.436719)">0</text>
     </g>
    </g>
    <g id="xtick_2">
     <g id="line2d_3">
      <path d="M 136.008794 238.598125 
L 136.008794 22.318125 
" clip-path="url(#p03724e7002)" style="fill: none; stroke-dasharray: 2.96,1.28; stroke-dashoffset: 0; stroke: #b0b0b0; stroke-opacity: 0.3; stroke-width: 0.8"/>
     </g>
     <g id="line2d_4">
      <g>
       <use xlink:href="#m1da7a9b107" x="136.008794" y="238.598125" style="stroke: #000000; stroke-width: 0.8"/>
      </g>
     </g>
     <g id="text_2">
      <text style="font-size: 9px; font-family: 'DejaVu Serif', 'Bitstream Vera Serif', 'Computer Modern Roman', 'New Century Schoolbook', 'Century Schoolbook L', 'Utopia', 'ITC Bookman', 'Bookman', 'Nimbus Roman No9 L', 'Times New Roman', 'Times', 'Palatino', 'Charter', serif; text-anchor: middle" x="136.008794" y="252.436719" transform="rotate(-0 136.008794 252.436719)">5000</text>
     </g>
    </g>
    <g id="xtick_3">
     <g id="line2d_5">
      <path d="M 220.083056 238.598125 
L 220.083056 22.318125 
" clip-path="url(#p03724e7002)" style="fill: none; stroke-dasharray: 2.96,1.28; stroke-dashoffset: 0; stroke: #b0b0b0; stroke-opacity: 0.3; stroke-width: 0.8"/>
     </g>
     <g id="line2d_6">
      <g>
       <use xlink:href="#m1da7a9b107" x="220.083056" y="238.598125" style="stroke: #000000; stroke-width: 0.8"/>
      </g>
     </g>
     <g id="text_3">
      <text style="font-size: 9px; font-family: 'DejaVu Serif', 'Bitstream Vera Serif', 'Computer Modern Roman', 'New Century Schoolbook', 'Century Schoolbook L', 'Utopia', 'ITC Bookman', 'Bookman', 'Nimbus Roman No9 L', 'Times New Roman', 'Times', 'Palatino', 'Charter', serif; text-anchor: middle" x="220.083056" y="252.436719" transform="rotate(-0 220.083056 252.436719)">10000</text>
     </g>
    </g>
    <g id="xtick_4">
     <g id="line2d_7">
      <path d="M 304.157319 238.598125 
L 304.157319 22.318125 
" clip-path="url(#p03724e7002)" style="fill: none; stroke-dasharray: 2.96,1.28; stroke-dashoffset: 0; stroke: #b0b0b0; stroke-opacity: 0.3; stroke-width: 0.8"/>
     </g>
     <g id="line2d_8">
      <g>
       <use xlink:href="#m1da7a9b107" x="304.157319" y="238.598125" style="stroke: #000000; stroke-width: 0.8"/>
      </g>
     </g>
     <g id="text_4">
      <text style="font-size: 9px; font-family: 'DejaVu Serif', 'Bitstream Vera Serif', 'Computer Modern Roman', 'New Century Schoolbook', 'Century Schoolbook L', 'Utopia', 'ITC Bookman', 'Bookman', 'Nimbus Roman No9 L', 'Times New Roman', 'Times', 'Palatino', 'Charter', serif; text-anchor: middle" x="304.157319" y="252.436719" transform="rotate(-0 304.157319 252.436719)">15000</text>
     </g>
    </g>
    <g id="xtick_5">
     <g id="line2d_9">
      <path d="M 388.231581 238.598125 
L 388.231581 22.318125 
" clip-path="url(#p03724e7002)" style="fill: none; stroke-dasharray: 2.96,1.28; stroke-dashoffset: 0; stroke: #b0b0b0; stroke-opacity: 0.3; stroke-width: 0.8"/>
     </g>
     <g id="line2d_10">
      <g>
       <use xlink:href="#m1da7a9b107" x="388.231581" y="238.598125" style="stroke: #000000; stroke-width: 0.8"/>
      </g>
     </g>
     <g id="text_5">
      <text style="font-size: 9px; font-family: 'DejaVu Serif', 'Bitstream Vera Serif', 'Computer Modern Roman', 'New Century Schoolbook', 'Century Schoolbook L', 'Utopia', 'ITC Bookman', 'Bookman', 'Nimbus Roman No9 L', 'Times New Roman', 'Times', 'Palatino', 'Charter', serif; text-anchor: middle" x="388.231581" y="252.436719" transform="rotate(-0 388.231581 252.436719)">20000</text>
     </g>
    </g>
    <g id="xtick_6">
     <g id="line2d_11">
      <path d="M 472.305844 238.598125 
L 472.305844 22.318125 
" clip-path="url(#p03724e7002)" style="fill: none; stroke-dasharray: 2.96,1.28; stroke-dashoffset: 0; stroke: #b0b0b0; stroke-opacity: 0.3; stroke-width: 0.8"/>
     </g>
     <g id="line2d_12">
      <g>
       <use xlink:href="#m1da7a9b107" x="472.305844" y="238.598125" style="stroke: #000000; stroke-width: 0.8"/>
      </g>
     </g>
     <g id="text_6">
      <text style="font-size: 9px; font-family: 'DejaVu Serif', 'Bitstream Vera Serif', 'Computer Modern Roman', 'New Century Schoolbook', 'Century Schoolbook L', 'Utopia', 'ITC Bookman', 'Bookman', 'Nimbus Roman No9 L', 'Times New Roman', 'Times', 'Palatino', 'Charter', serif; text-anchor: middle" x="472.305844" y="252.436719" transform="rotate(-0 472.305844 252.436719)">25000</text>
     </g>
    </g>
    <g id="text_7">
     <!-- Response Length $|y|$ (tokens) -->
     <g transform="translate(181.930187 266.668438)">
      <text>
       <tspan x="0" y="-0.640625" style="font-size: 11px; font-family: 'DejaVu Serif'">R</tspan>
       <tspan x="8.282227" y="-0.640625" style="font-size: 11px; font-family: 'DejaVu Serif'">e</tspan>
       <tspan x="14.791992" y="-0.640625" style="font-size: 11px; font-family: 'DejaVu Serif'">s</tspan>
       <tspan x="20.437012" y="-0.640625" style="font-size: 11px; font-family: 'DejaVu Serif'">p</tspan>
       <tspan x="27.478516" y="-0.640625" style="font-size: 11px; font-family: 'DejaVu Serif'">o</tspan>
       <tspan x="34.101074" y="-0.640625" style="font-size: 11px; font-family: 'DejaVu Serif'">n</tspan>
       <tspan x="41.185547" y="-0.640625" style="font-size: 11px; font-family: 'DejaVu Serif'">s</tspan>
       <tspan x="46.830566" y="-0.640625" style="font-size: 11px; font-family: 'DejaVu Serif'">e</tspan>
       <tspan x="53.340332" y="-0.640625" style="font-size: 11px; font-family: 'DejaVu Serif'"> </tspan>
       <tspan x="56.836914" y="-0.640625" style="font-size: 11px; font-family: 'DejaVu Serif'">L</tspan>
       <tspan x="64.141602" y="-0.640625" style="font-size: 11px; font-family: 'DejaVu Serif'">e</tspan>
       <tspan x="70.651367" y="-0.640625" style="font-size: 11px; font-family: 'DejaVu Serif'">n</tspan>
       <tspan x="77.73584" y="-0.640625" style="font-size: 11px; font-family: 'DejaVu Serif'">g</tspan>
       <tspan x="84.777344" y="-0.640625" style="font-size: 11px; font-family: 'DejaVu Serif'">t</tspan>
       <tspan x="89.197754" y="-0.640625" style="font-size: 11px; font-family: 'DejaVu Serif'">h</tspan>
       <tspan x="96.282227" y="-0.640625" style="font-size: 11px; font-family: 'DejaVu Serif'"> </tspan>
       <tspan x="111.262207" y="-0.640625" style="font-size: 11px; font-family: 'DejaVu Serif'"> </tspan>
       <tspan x="114.758789" y="-0.640625" style="font-size: 11px; font-family: 'DejaVu Serif'">(</tspan>
       <tspan x="119.050293" y="-0.640625" style="font-size: 11px; font-family: 'DejaVu Serif'">t</tspan>
       <tspan x="123.470703" y="-0.640625" style="font-size: 11px; font-family: 'DejaVu Serif'">o</tspan>
       <tspan x="130.093262" y="-0.640625" style="font-size: 11px; font-family: 'DejaVu Serif'">k</tspan>
       <tspan x="136.758789" y="-0.640625" style="font-size: 11px; font-family: 'DejaVu Serif'">e</tspan>
       <tspan x="143.268555" y="-0.640625" style="font-size: 11px; font-family: 'DejaVu Serif'">n</tspan>
       <tspan x="150.353027" y="-0.640625" style="font-size: 11px; font-family: 'DejaVu Serif'">s</tspan>
       <tspan x="155.998047" y="-0.640625" style="font-size: 11px; font-family: 'DejaVu Serif'">)</tspan>
       <tspan x="99.778809" y="-0.640625" style="font-size: 11px; font-family: 'cmsy10'">j</tspan>
       <tspan x="108.216797" y="-0.640625" style="font-size: 11px; font-family: 'cmsy10'">j</tspan>
       <tspan x="102.824219" y="-0.640625" style="font-size: 11px; font-family: 'cmmi10'">y</tspan>
      </text>
     </g>
    </g>
   </g>
   <g id="matplotlib.axis_2">
    <g id="ytick_1">
     <g id="line2d_13">
      <path d="M 51.934531 238.598125 
L 472.305844 238.598125 
" clip-path="url(#p03724e7002)" style="fill: none; stroke-dasharray: 2.96,1.28; stroke-dashoffset: 0; stroke: #b0b0b0; stroke-opacity: 0.3; stroke-width: 0.8"/>
     </g>
     <g id="line2d_14">
      <defs>
       <path id="md72279e3b2" d="M 0 0 
L -3.5 0 
" style="stroke: #000000; stroke-width: 0.8"/>
      </defs>
      <g>
       <use xlink:href="#md72279e3b2" x="51.934531" y="238.598125" style="stroke: #000000; stroke-width: 0.8"/>
      </g>
     </g>
     <g id="text_8">
      <text style="font-size: 9px; font-family: 'DejaVu Serif', 'Bitstream Vera Serif', 'Computer Modern Roman', 'New Century Schoolbook', 'Century Schoolbook L', 'Utopia', 'ITC Bookman', 'Bookman', 'Nimbus Roman No9 L', 'Times New Roman', 'Times', 'Palatino', 'Charter', serif; text-anchor: end" x="44.934531" y="242.017422" transform="rotate(-0 44.934531 242.017422)">−1.2</text>
     </g>
    </g>
    <g id="ytick_2">
     <g id="line2d_15">
      <path d="M 51.934531 209.760792 
L 472.305844 209.760792 
" clip-path="url(#p03724e7002)" style="fill: none; stroke-dasharray: 2.96,1.28; stroke-dashoffset: 0; stroke: #b0b0b0; stroke-opacity: 0.3; stroke-width: 0.8"/>
     </g>
     <g id="line2d_16">
      <g>
       <use xlink:href="#md72279e3b2" x="51.934531" y="209.760792" style="stroke: #000000; stroke-width: 0.8"/>
      </g>
     </g>
     <g id="text_9">
      <text style="font-size: 9px; font-family: 'DejaVu Serif', 'Bitstream Vera Serif', 'Computer Modern Roman', 'New Century Schoolbook', 'Century Schoolbook L', 'Utopia', 'ITC Bookman', 'Bookman', 'Nimbus Roman No9 L', 'Times New Roman', 'Times', 'Palatino', 'Charter', serif; text-anchor: end" x="44.934531" y="213.180089" transform="rotate(-0 44.934531 213.180089)">−1.0</text>
     </g>
    </g>
    <g id="ytick_3">
     <g id="line2d_17">
      <path d="M 51.934531 180.923458 
L 472.305844 180.923458 
" clip-path="url(#p03724e7002)" style="fill: none; stroke-dasharray: 2.96,1.28; stroke-dashoffset: 0; stroke: #b0b0b0; stroke-opacity: 0.3; stroke-width: 0.8"/>
     </g>
     <g id="line2d_18">
      <g>
       <use xlink:href="#md72279e3b2" x="51.934531" y="180.923458" style="stroke: #000000; stroke-width: 0.8"/>
      </g>
     </g>
     <g id="text_10">
      <text style="font-size: 9px; font-family: 'DejaVu Serif', 'Bitstream Vera Serif', 'Computer Modern Roman', 'New Century Schoolbook', 'Century Schoolbook L', 'Utopia', 'ITC Bookman', 'Bookman', 'Nimbus Roman No9 L', 'Times New Roman', 'Times', 'Palatino', 'Charter', serif; text-anchor: end" x="44.934531" y="184.342755" transform="rotate(-0 44.934531 184.342755)">−0.8</text>
     </g>
    </g>
    <g id="ytick_4">
     <g id="line2d_19">
      <path d="M 51.934531 152.086125 
L 472.305844 152.086125 
" clip-path="url(#p03724e7002)" style="fill: none; stroke-dasharray: 2.96,1.28; stroke-dashoffset: 0; stroke: #b0b0b0; stroke-opacity: 0.3; stroke-width: 0.8"/>
     </g>
     <g id="line2d_20">
      <g>
       <use xlink:href="#md72279e3b2" x="51.934531" y="152.086125" style="stroke: #000000; stroke-width: 0.8"/>
      </g>
     </g>
     <g id="text_11">
      <text style="font-size: 9px; font-family: 'DejaVu Serif', 'Bitstream Vera Serif', 'Computer Modern Roman', 'New Century Schoolbook', 'Century Schoolbook L', 'Utopia', 'ITC Bookman', 'Bookman', 'Nimbus Roman No9 L', 'Times New Roman', 'Times', 'Palatino', 'Charter', serif; text-anchor: end" x="44.934531" y="155.505422" transform="rotate(-0 44.934531 155.505422)">−0.6</text>
     </g>
    </g>
    <g id="ytick_5">
     <g id="line2d_21">
      <path d="M 51.934531 123.248792 
L 472.305844 123.248792 
" clip-path="url(#p03724e7002)" style="fill: none; stroke-dasharray: 2.96,1.28; stroke-dashoffset: 0; stroke: #b0b0b0; stroke-opacity: 0.3; stroke-width: 0.8"/>
     </g>
     <g id="line2d_22">
      <g>
       <use xlink:href="#md72279e3b2" x="51.934531" y="123.248792" style="stroke: #000000; stroke-width: 0.8"/>
      </g>
     </g>
     <g id="text_12">
      <text style="font-size: 9px; font-family: 'DejaVu Serif', 'Bitstream Vera Serif', 'Computer Modern Roman', 'New Century Schoolbook', 'Century Schoolbook L', 'Utopia', 'ITC Bookman', 'Bookman', 'Nimbus Roman No9 L', 'Times New Roman', 'Times', 'Palatino', 'Charter', serif; text-anchor: end" x="44.934531" y="126.668089" transform="rotate(-0 44.934531 126.668089)">−0.4</text>
     </g>
    </g>
    <g id="ytick_6">
     <g id="line2d_23">
      <path d="M 51.934531 94.411458 
L 472.305844 94.411458 
" clip-path="url(#p03724e7002)" style="fill: none; stroke-dasharray: 2.96,1.28; stroke-dashoffset: 0; stroke: #b0b0b0; stroke-opacity: 0.3; stroke-width: 0.8"/>
     </g>
     <g id="line2d_24">
      <g>
       <use xlink:href="#md72279e3b2" x="51.934531" y="94.411458" style="stroke: #000000; stroke-width: 0.8"/>
      </g>
     </g>
     <g id="text_13">
      <text style="font-size: 9px; font-family: 'DejaVu Serif', 'Bitstream Vera Serif', 'Computer Modern Roman', 'New Century Schoolbook', 'Century Schoolbook L', 'Utopia', 'ITC Bookman', 'Bookman', 'Nimbus Roman No9 L', 'Times New Roman', 'Times', 'Palatino', 'Charter', serif; text-anchor: end" x="44.934531" y="97.830755" transform="rotate(-0 44.934531 97.830755)">−0.2</text>
     </g>
    </g>
    <g id="ytick_7">
     <g id="line2d_25">
      <path d="M 51.934531 65.574125 
L 472.305844 65.574125 
" clip-path="url(#p03724e7002)" style="fill: none; stroke-dasharray: 2.96,1.28; stroke-dashoffset: 0; stroke: #b0b0b0; stroke-opacity: 0.3; stroke-width: 0.8"/>
     </g>
     <g id="line2d_26">
      <g>
       <use xlink:href="#md72279e3b2" x="51.934531" y="65.574125" style="stroke: #000000; stroke-width: 0.8"/>
      </g>
     </g>
     <g id="text_14">
      <text style="font-size: 9px; font-family: 'DejaVu Serif', 'Bitstream Vera Serif', 'Computer Modern Roman', 'New Century Schoolbook', 'Century Schoolbook L', 'Utopia', 'ITC Bookman', 'Bookman', 'Nimbus Roman No9 L', 'Times New Roman', 'Times', 'Palatino', 'Charter', serif; text-anchor: end" x="44.934531" y="68.993422" transform="rotate(-0 44.934531 68.993422)">0.0</text>
     </g>
    </g>
    <g id="ytick_8">
     <g id="line2d_27">
      <path d="M 51.934531 36.736792 
L 472.305844 36.736792 
" clip-path="url(#p03724e7002)" style="fill: none; stroke-dasharray: 2.96,1.28; stroke-dashoffset: 0; stroke: #b0b0b0; stroke-opacity: 0.3; stroke-width: 0.8"/>
     </g>
     <g id="line2d_28">
      <g>
       <use xlink:href="#md72279e3b2" x="51.934531" y="36.736792" style="stroke: #000000; stroke-width: 0.8"/>
      </g>
     </g>
     <g id="text_15">
      <text style="font-size: 9px; font-family: 'DejaVu Serif', 'Bitstream Vera Serif', 'Computer Modern Roman', 'New Century Schoolbook', 'Century Schoolbook L', 'Utopia', 'ITC Bookman', 'Bookman', 'Nimbus Roman No9 L', 'Times New Roman', 'Times', 'Palatino', 'Charter', serif; text-anchor: end" x="44.934531" y="40.156089" transform="rotate(-0 44.934531 40.156089)">0.2</text>
     </g>
    </g>
    <g id="text_16">
     <!-- Length Reward $R_{length}(y)$ -->
     <g transform="translate(15.56 197.393125) rotate(-90)">
      <text>
       <tspan x="0" y="-0.640625" style="font-size: 11px; font-family: 'DejaVu Serif'">L</tspan>
       <tspan x="7.304688" y="-0.640625" style="font-size: 11px; font-family: 'DejaVu Serif'">e</tspan>
       <tspan x="13.814453" y="-0.640625" style="font-size: 11px; font-family: 'DejaVu Serif'">n</tspan>
       <tspan x="20.898926" y="-0.640625" style="font-size: 11px; font-family: 'DejaVu Serif'">g</tspan>
       <tspan x="27.94043" y="-0.640625" style="font-size: 11px; font-family: 'DejaVu Serif'">t</tspan>
       <tspan x="32.36084" y="-0.640625" style="font-size: 11px; font-family: 'DejaVu Serif'">h</tspan>
       <tspan x="39.445312" y="-0.640625" style="font-size: 11px; font-family: 'DejaVu Serif'"> </tspan>
       <tspan x="42.941895" y="-0.640625" style="font-size: 11px; font-family: 'DejaVu Serif'">R</tspan>
       <tspan x="51.224121" y="-0.640625" style="font-size: 11px; font-family: 'DejaVu Serif'">e</tspan>
       <tspan x="57.733887" y="-0.640625" style="font-size: 11px; font-family: 'DejaVu Serif'">w</tspan>
       <tspan x="67.149414" y="-0.640625" style="font-size: 11px; font-family: 'DejaVu Serif'">a</tspan>
       <tspan x="73.70752" y="-0.640625" style="font-size: 11px; font-family: 'DejaVu Serif'">r</tspan>
       <tspan x="78.96582" y="-0.640625" style="font-size: 11px; font-family: 'DejaVu Serif'">d</tspan>
       <tspan x="86.007324" y="-0.640625" style="font-size: 11px; font-family: 'DejaVu Serif'"> </tspan>
       <tspan x="89.503906" y="-0.640625" style="font-size: 11px; font-family: 'cmmi10'">R</tspan>
       <tspan x="124.2039" y="-0.640625" style="font-size: 11px; font-family: 'cmmi10'">y</tspan>
       <tspan x="97.850586" y="1.230063" style="font-size: 7.7px; font-family: 'cmmi10'">l</tspan>
       <tspan x="100.144043" y="1.230063" style="font-size: 7.7px; font-family: 'cmmi10'">e</tspan>
       <tspan x="103.72334" y="1.230063" style="font-size: 7.7px; font-family: 'cmmi10'">n</tspan>
       <tspan x="108.344092" y="1.230063" style="font-size: 7.7px; font-family: 'cmmi10'">g</tspan>
       <tspan x="112.017383" y="1.230063" style="font-size: 7.7px; font-family: 'cmmi10'">t</tspan>
       <tspan x="114.79585" y="1.230063" style="font-size: 7.7px; font-family: 'cmmi10'">h</tspan>
       <tspan x="119.933881" y="-0.640625" style="font-size: 11px; font-family: 'cmr10'">(</tspan>
       <tspan x="129.596479" y="-0.640625" style="font-size: 11px; font-family: 'cmr10'">)</tspan>
      </text>
     </g>
    </g>
   </g>
   <g id="line2d_29">
    <path d="M 51.934531 65.574125 
L 327.132568 65.574125 
L 327.55336 65.834315 
L 396.142473 209.425335 
L 396.563265 209.760792 
L 472.305844 209.760792 
L 472.305844 209.760792 
" clip-path="url(#p03724e7002)" style="fill: none; stroke: #9b59b6; stroke-width: 2.5; stroke-linecap: square"/>
   </g>
   <g id="line2d_30">
    <path d="M 51.934531 65.574125 
L 472.305844 65.574125 
" clip-path="url(#p03724e7002)" style="fill: none; stroke-dasharray: 5.55,2.4; stroke-dashoffset: 0; stroke: #808080; stroke-opacity: 0.5; stroke-width: 1.5"/>
   </g>
   <g id="line2d_31">
    <path d="M 327.429075 238.598125 
L 327.429075 22.318125 
" clip-path="url(#p03724e7002)" style="fill: none; stroke-dasharray: 1.5,2.475; stroke-dashoffset: 0; stroke: #27ae60; stroke-opacity: 0.7; stroke-width: 1.5"/>
   </g>
   <g id="line2d_32">
    <path d="M 396.30271 238.598125 
L 396.30271 22.318125 
" clip-path="url(#p03724e7002)" style="fill: none; stroke-dasharray: 1.5,2.475; stroke-dashoffset: 0; stroke: #e74c3c; stroke-opacity: 0.7; stroke-width: 1.5"/>
   </g>
   <g id="patch_3">
    <path d="M 51.934531 238.598125 
L 51.934531 22.318125 
" style="fill: none; stroke: #000000; stroke-width: 0.8; stroke-linejoin: miter; stroke-linecap: square"/>
   </g>
   <g id="patch_4">
    <path d="M 472.305844 238.598125 
L 472.305844 22.318125 
" style="fill: none; stroke: #000000; stroke-width: 0.8; stroke-linejoin: miter; stroke-linecap: square"/>
   </g>
   <g id="patch_5">
    <path d="M 51.934531 238.598125 
L 472.305844 238.598125 
" style="fill: none; stroke: #000000; stroke-width: 0.8; stroke-linejoin: miter; stroke-linecap: square"/>
   </g>
   <g id="patch_6">
    <path d="M 51.934531 22.318125 
L 472.305844 22.318125 
" style="fill: none; stroke: #000000; stroke-width: 0.8; stroke-linejoin: miter; stroke-linecap: square"/>
   </g>
   <g id="text_17">
    <text style="font-size: 9px; font-family: 'DejaVu Serif', 'Bitstream Vera Serif', 'Computer Modern Roman', 'New Century Schoolbook', 'Century Schoolbook L', 'Utopia', 'ITC Bookman', 'Bookman', 'Nimbus Roman No9 L', 'Times New Roman', 'Times', 'Palatino', 'Charter', serif; fill: #27ae60" transform="translate(151.856789 53.496406)">Normal Region</text>
    <!-- $R_{len} = 0$ -->
    <g style="fill: #27ae60" transform="translate(171.108351 63.702406)">
     <text>
      <tspan x="0" y="-0.859375" style="font-size: 9px; font-family: 'cmmi10'; fill: #27ae60">R</tspan>
      <tspan x="6.829102" y="0.671188" style="font-size: 6.3px; font-family: 'cmmi10'; fill: #27ae60">l</tspan>
      <tspan x="8.705566" y="0.671188" style="font-size: 6.3px; font-family: 'cmmi10'; fill: #27ae60">e</tspan>
      <tspan x="11.634082" y="0.671188" style="font-size: 6.3px; font-family: 'cmmi10'; fill: #27ae60">n</tspan>
      <tspan x="17.568932" y="-0.859375" style="font-size: 9px; font-family: 'cmr10'; fill: #27ae60">=</tspan>
      <tspan x="26.140904" y="-0.859375" style="font-size: 9px; font-family: 'cmr10'; fill: #27ae60">0</tspan>
     </text>
    </g>
   </g>
   <g id="text_18">
    <text style="font-size: 8px; font-family: 'DejaVu Serif', 'Bitstream Vera Serif', 'Computer Modern Roman', 'New Century Schoolbook', 'Century Schoolbook L', 'Utopia', 'ITC Bookman', 'Bookman', 'Nimbus Roman No9 L', 'Times New Roman', 'Times', 'Palatino', 'Charter', serif; fill: #e67e22" transform="translate(338.514927 125.521958)">Soft Penalty</text>
    <!-- $R_{len} = \frac{L_{max}-L_{cache}-|y|}{L_{cache}}$ -->
    <g style="fill: #e67e22" transform="translate(328.809303 137.667458)">
     <text>
      <tspan x="0" y="-0.4" style="font-size: 8px; font-family: 'cmmi10'; fill: #e67e22">R</tspan>
      <tspan x="6.070312" y="0.9605" style="font-size: 5.6px; font-family: 'cmmi10'; fill: #e67e22">l</tspan>
      <tspan x="7.738281" y="0.9605" style="font-size: 5.6px; font-family: 'cmmi10'; fill: #e67e22">e</tspan>
      <tspan x="10.341406" y="0.9605" style="font-size: 5.6px; font-family: 'cmmi10'; fill: #e67e22">n</tspan>
      <tspan x="23.236359" y="-4.8" style="font-size: 5.6px; font-family: 'cmmi10'; fill: #e67e22">L</tspan>
      <tspan x="38.236359" y="2.928125" style="font-size: 5.6px; font-family: 'cmmi10'; fill: #e67e22">L</tspan>
      <tspan x="41.467553" y="-4.8" style="font-size: 5.6px; font-family: 'cmmi10'; fill: #e67e22">L</tspan>
      <tspan x="63.038786" y="-4.8" style="font-size: 5.6px; font-family: 'cmmi10'; fill: #e67e22">y</tspan>
      <tspan x="15.616828" y="-0.4" style="font-size: 8px; font-family: 'cmr10'; fill: #e67e22">=</tspan>
      <tspan x="27.045344" y="-3.84765" style="font-size: 3.92px; font-family: 'cmmi10'; fill: #e67e22">m</tspan>
      <tspan x="30.486828" y="-3.84765" style="font-size: 3.92px; font-family: 'cmmi10'; fill: #e67e22">a</tspan>
      <tspan x="32.55593" y="-3.84765" style="font-size: 3.92px; font-family: 'cmmi10'; fill: #e67e22">x</tspan>
      <tspan x="42.045344" y="3.880475" style="font-size: 3.92px; font-family: 'cmmi10'; fill: #e67e22">c</tspan>
      <tspan x="43.739289" y="3.880475" style="font-size: 3.92px; font-family: 'cmmi10'; fill: #e67e22">a</tspan>
      <tspan x="45.276537" y="-3.84765" style="font-size: 3.92px; font-family: 'cmmi10'; fill: #e67e22">c</tspan>
      <tspan x="45.808391" y="3.880475" style="font-size: 3.92px; font-family: 'cmmi10'; fill: #e67e22">c</tspan>
      <tspan x="46.970483" y="-3.84765" style="font-size: 3.92px; font-family: 'cmmi10'; fill: #e67e22">a</tspan>
      <tspan x="47.502336" y="3.880475" style="font-size: 3.92px; font-family: 'cmmi10'; fill: #e67e22">h</tspan>
      <tspan x="49.039584" y="-3.84765" style="font-size: 3.92px; font-family: 'cmmi10'; fill: #e67e22">c</tspan>
      <tspan x="49.76093" y="3.880475" style="font-size: 3.92px; font-family: 'cmmi10'; fill: #e67e22">e</tspan>
      <tspan x="50.73353" y="-3.84765" style="font-size: 3.92px; font-family: 'cmmi10'; fill: #e67e22">h</tspan>
      <tspan x="52.992123" y="-3.84765" style="font-size: 3.92px; font-family: 'cmmi10'; fill: #e67e22">e</tspan>
      <tspan x="36.133881" y="-4.8" style="font-size: 5.6px; font-family: 'cmsy10'; fill: #e67e22">¡</tspan>
      <tspan x="56.154723" y="-4.8" style="font-size: 5.6px; font-family: 'cmsy10'; fill: #e67e22">¡</tspan>
      <tspan x="61.488395" y="-4.8" style="font-size: 5.6px; font-family: 'cmsy10'; fill: #e67e22">j</tspan>
      <tspan x="65.784098" y="-4.8" style="font-size: 5.6px; font-family: 'cmsy10'; fill: #e67e22">j</tspan>
     </text>
     <rect x="23.236359" y="-2.4" width="44.09813" height="0.5"/>
    </g>
   </g>
   <g id="text_19">
    <text style="font-size: 9px; font-family: 'DejaVu Serif', 'Bitstream Vera Serif', 'Computer Modern Roman', 'New Century Schoolbook', 'Century Schoolbook L', 'Utopia', 'ITC Bookman', 'Bookman', 'Nimbus Roman No9 L', 'Times New Roman', 'Times', 'Palatino', 'Charter', serif; fill: #e74c3c" transform="translate(408.74692 177.926792)">Hard Penalty</text>
    <!-- $R_{len} = -1$ -->
    <g style="fill: #e74c3c" transform="translate(419.821139 188.132792)">
     <text>
      <tspan x="0" y="-0.859375" style="font-size: 9px; font-family: 'cmmi10'; fill: #e74c3c">R</tspan>
      <tspan x="6.829102" y="0.671188" style="font-size: 6.3px; font-family: 'cmmi10'; fill: #e74c3c">l</tspan>
      <tspan x="8.705566" y="0.671188" style="font-size: 6.3px; font-family: 'cmmi10'; fill: #e74c3c">e</tspan>
      <tspan x="11.634082" y="0.671188" style="font-size: 6.3px; font-family: 'cmmi10'; fill: #e74c3c">n</tspan>
      <tspan x="17.568932" y="-0.859375" style="font-size: 9px; font-family: 'cmr10'; fill: #e74c3c">=</tspan>
      <tspan x="33.132604" y="-0.859375" style="font-size: 9px; font-family: 'cmr10'; fill: #e74c3c">1</tspan>
      <tspan x="26.140904" y="-0.859375" style="font-size: 9px; font-family: 'cmsy10'; fill: #e74c3c">¡</tspan>
     </text>
    </g>
   </g>
   <g id="text_20">
    <text style="font-size: 12px; font-family: 'DejaVu Serif', 'Bitstream Vera Serif', 'Computer Modern Roman', 'New Century Schoolbook', 'Century Schoolbook L', 'Utopia', 'ITC Bookman', 'Bookman', 'Nimbus Roman No9 L', 'Times New Roman', 'Times', 'Palatino', 'Charter', serif; text-anchor: middle" x="262.120187" y="16.318125" transform="rotate(-0 262.120187 16.318125)">Fig. 6: DAPO Soft Overlong Reward Shaping</text>
   </g>
   <g id="legend_1">
    <g id="patch_7">
     <path d="M 58.234531 234.098125 
L 138.424531 234.098125 
Q 140.224531 234.098125 140.224531 232.298125 
L 140.224531 206.7775 
Q 140.224531 204.9775 138.424531 204.9775 
L 58.234531 204.9775 
Q 56.434531 204.9775 56.434531 206.7775 
L 56.434531 232.298125 
Q 56.434531 234.098125 58.234531 234.098125 
z
" style="fill: #ffffff; opacity: 0.9; stroke: #cccccc; stroke-linejoin: miter"/>
    </g>
    <g id="line2d_33">
     <path d="M 60.034531 212.266094 
L 69.034531 212.266094 
L 78.034531 212.266094 
" style="fill: none; stroke-dasharray: 1.5,2.475; stroke-dashoffset: 0; stroke: #27ae60; stroke-opacity: 0.7; stroke-width: 1.5"/>
    </g>
    <g id="text_21">
     <!-- $L_{max} - L_{cache}$ -->
     <g transform="translate(85.234531 215.416094)">
      <text>
       <tspan x="0" y="-0.859375" style="font-size: 9px; font-family: 'cmmi10'">L</tspan>
       <tspan x="29.300133" y="-0.859375" style="font-size: 9px; font-family: 'cmmi10'">L</tspan>
       <tspan x="6.121582" y="0.671188" style="font-size: 6.3px; font-family: 'cmmi10'">m</tspan>
       <tspan x="11.652539" y="0.671188" style="font-size: 6.3px; font-family: 'cmmi10'">a</tspan>
       <tspan x="14.977881" y="0.671188" style="font-size: 6.3px; font-family: 'cmmi10'">x</tspan>
       <tspan x="35.421715" y="0.671188" style="font-size: 6.3px; font-family: 'cmmi10'">c</tspan>
       <tspan x="38.144127" y="0.671188" style="font-size: 6.3px; font-family: 'cmmi10'">a</tspan>
       <tspan x="41.469469" y="0.671188" style="font-size: 6.3px; font-family: 'cmmi10'">c</tspan>
       <tspan x="44.191881" y="0.671188" style="font-size: 6.3px; font-family: 'cmmi10'">h</tspan>
       <tspan x="47.821764" y="0.671188" style="font-size: 6.3px; font-family: 'cmmi10'">e</tspan>
       <tspan x="20.72816" y="-0.859375" style="font-size: 9px; font-family: 'cmsy10'">¡</tspan>
      </text>
     </g>
    </g>
    <g id="line2d_34">
     <path d="M 60.034531 225.476406 
L 69.034531 225.476406 
L 78.034531 225.476406 
" style="fill: none; stroke-dasharray: 1.5,2.475; stroke-dashoffset: 0; stroke: #e74c3c; stroke-opacity: 0.7; stroke-width: 1.5"/>
    </g>
    <g id="text_22">
     <!-- $L_{max}$ -->
     <g transform="translate(85.234531 228.626406)">
      <text>
       <tspan x="0" y="-0.859375" style="font-size: 9px; font-family: 'cmmi10'">L</tspan>
       <tspan x="6.121582" y="0.671188" style="font-size: 6.3px; font-family: 'cmmi10'">m</tspan>
       <tspan x="11.652539" y="0.671188" style="font-size: 6.3px; font-family: 'cmmi10'">a</tspan>
       <tspan x="14.977881" y="0.671188" style="font-size: 6.3px; font-family: 'cmmi10'">x</tspan>
      </text>
     </g>
    </g>
   </g>
  </g>
 </g>
 <defs>
  <clipPath id="p03724e7002">
   <rect x="51.934531" y="22.318125" width="420.371312" height="216.28"/>
  </clipPath>
 </defs>
</svg>
