<?xml version="1.0" encoding="utf-8" standalone="no"?>
<!DOCTYPE svg PUBLIC "-//W3C//DTD SVG 1.1//EN"
  "http://www.w3.org/Graphics/SVG/1.1/DTD/svg11.dtd">
<svg xmlns:xlink="http://www.w3.org/1999/xlink" width="702.159pt" height="607.301875pt" viewBox="0 0 702.159 607.301875" xmlns="http://www.w3.org/2000/svg" version="1.1">
 <metadata>
  <rdf:RDF xmlns:dc="http://purl.org/dc/elements/1.1/" xmlns:cc="http://creativecommons.org/ns#" xmlns:rdf="http://www.w3.org/1999/02/22-rdf-syntax-ns#">
   <cc:Work>
    <dc:type rdf:resource="http://purl.org/dc/dcmitype/StillImage"/>
    <dc:date>2026-04-17T11:18:47.854769</dc:date>
    <dc:format>image/svg+xml</dc:format>
    <dc:creator>
     <cc:Agent>
      <dc:title>Matplotlib v3.10.8, https://matplotlib.org/</dc:title>
     </cc:Agent>
    </dc:creator>
   </cc:Work>
  </rdf:RDF>
 </metadata>
 <defs>
  <style type="text/css">*{stroke-linejoin: round; stroke-linecap: butt}</style>
 </defs>
 <g id="figure_1">
  <g id="patch_1">
   <path d="M -0 607.301875 
L 702.159 607.301875 
L 702.159 0 
L -0 0 
z
" style="fill: #f5f7fa"/>
  </g>
  <g id="axes_1">
   <g id="patch_2">
    <path d="M 548.38 328.945469 
C 548.38 295.66075 541.823636 262.699683 529.086126 231.948613 
C 516.348615 201.197542 497.677671 173.254499 474.14182 149.718648 
C 450.60597 126.182798 422.662927 107.511853 391.911856 94.774343 
C 361.160786 82.036833 328.199719 75.480469 294.915 75.480469 
C 261.630281 75.480469 228.669214 82.036833 197.918144 94.774343 
C 167.167073 107.511853 139.22403 126.182798 115.68818 149.718648 
C 92.152329 173.254499 73.481385 201.197542 60.743874 231.948613 
C 48.006364 262.699683 41.45 295.66075 41.45 328.945469 
C 41.45 362.230188 48.006364 395.191254 60.743874 425.942325 
C 73.481385 456.693395 92.152329 484.636439 115.68818 508.172289 
C 139.22403 531.708139 167.167073 550.379084 197.918144 563.116594 
C 228.669214 575.854105 261.630281 582.410469 294.915 582.410469 
C 328.199719 582.410469 361.160786 575.854105 391.911856 563.116594 
C 422.662927 550.379084 450.60597 531.708139 474.14182 508.172289 
C 497.677671 484.636439 516.348615 456.693395 529.086126 425.942325 
C 541.823636 395.191254 548.38 362.230188 548.38 328.945469 
M 294.915 328.945469 
C 294.915 328.945469 294.915 328.945469 294.915 328.945469 
C 294.915 328.945469 294.915 328.945469 294.915 328.945469 
C 294.915 328.945469 294.915 328.945469 294.915 328.945469 
C 294.915 328.945469 294.915 328.945469 294.915 328.945469 
C 294.915 328.945469 294.915 328.945469 294.915 328.945469 
C 294.915 328.945469 294.915 328.945469 294.915 328.945469 
C 294.915 328.945469 294.915 328.945469 294.915 328.945469 
C 294.915 328.945469 294.915 328.945469 294.915 328.945469 
C 294.915 328.945469 294.915 328.945469 294.915 328.945469 
C 294.915 328.945469 294.915 328.945469 294.915 328.945469 
C 294.915 328.945469 294.915 328.945469 294.915 328.945469 
C 294.915 328.945469 294.915 328.945469 294.915 328.945469 
C 294.915 328.945469 294.915 328.945469 294.915 328.945469 
C 294.915 328.945469 294.915 328.945469 294.915 328.945469 
C 294.915 328.945469 294.915 328.945469 294.915 328.945469 
C 294.915 328.945469 294.915 328.945469 294.915 328.945469 
z
" style="fill: #ffffff"/>
   </g>
   <g id="patch_3">
    <path d="M 370.9545 328.945469 
L 366.605728 257.254741 
L 294.915 176.866469 
L 223.224272 257.254741 
L 142.836 328.945469 
L 169.456226 454.404243 
L 294.915 506.370969 
L 384.52841 418.558879 
z
" clip-path="url(#pc438977f3f)" style="fill: #3498db; opacity: 0.1; stroke: #3498db; stroke-linejoin: miter"/>
   </g>
   <g id="patch_4">
    <path d="M 497.687 328.945469 
L 438.296456 185.564013 
L 294.915 176.866469 
L 133.610862 167.64133 
L 66.7965 328.945469 
L 187.378908 436.481561 
L 294.915 481.024469 
L 384.52841 418.558879 
z
" clip-path="url(#pc438977f3f)" style="fill: #e74c3c; opacity: 0.1; stroke: #e74c3c; stroke-linejoin: miter"/>
   </g>
   <g id="patch_5">
    <path d="M 472.3405 328.945469 
L 420.373774 203.486695 
L 294.915 100.826969 
L 169.456226 203.486695 
L 92.143 328.945469 
L 133.610862 490.249607 
L 294.915 531.717469 
L 420.373774 454.404243 
z
" clip-path="url(#pc438977f3f)" style="fill: #27ae60; opacity: 0.1; stroke: #27ae60; stroke-linejoin: miter"/>
   </g>
   <g id="patch_6">
    <path d="M 446.994 328.945469 
L 402.451092 221.409377 
L 294.915 126.173469 
L 205.30159 239.332059 
L 117.4895 328.945469 
L 115.68818 508.172289 
L 294.915 557.063969 
L 456.219138 490.249607 
z
" clip-path="url(#pc438977f3f)" style="fill: #9b59b6; opacity: 0.1; stroke: #9b59b6; stroke-linejoin: miter"/>
   </g>
   <g id="matplotlib.axis_1">
    <g id="xtick_1">
     <g id="line2d_1">
      <path d="M 294.915 328.945469 
L 548.38 328.945469 
" clip-path="url(#pc438977f3f)" style="fill: none; stroke: #b0b0b0; stroke-width: 0.8; stroke-linecap: square"/>
     </g>
     <g id="text_1">
      <text style="font-size: 9px; font-family: 'SimHei', 'Microsoft YaHei', 'DejaVu Sans', sans-serif" transform="translate(539.88 327.194687)">GPU Memory</text>
      <text style="font-size: 9px; font-family: 'SimHei', 'Microsoft YaHei', 'DejaVu Sans', sans-serif" transform="translate(539.88 335.829062)">Efficiency</text>
     </g>
    </g>
    <g id="xtick_2">
     <g id="line2d_2">
      <path d="M 294.915 328.945469 
L 474.14182 149.718648 
" clip-path="url(#pc438977f3f)" style="fill: none; stroke: #b0b0b0; stroke-width: 0.8; stroke-linecap: square"/>
     </g>
     <g id="text_2">
      <text style="font-size: 9px; font-family: 'SimHei', 'Microsoft YaHei', 'DejaVu Sans', sans-serif" transform="translate(466.041315 138.033216)">Training</text>
      <text style="font-size: 9px; font-family: 'SimHei', 'Microsoft YaHei', 'DejaVu Sans', sans-serif" transform="translate(472.791315 146.667591)">Speed</text>
     </g>
    </g>
    <g id="xtick_3">
     <g id="line2d_3">
      <path d="M 294.915 328.945469 
L 294.915 75.480469 
" clip-path="url(#pc438977f3f)" style="fill: none; stroke: #b0b0b0; stroke-width: 0.8; stroke-linecap: square"/>
     </g>
     <g id="text_3">
      <text style="font-size: 9px; font-family: 'SimHei', 'Microsoft YaHei', 'DejaVu Sans', sans-serif" transform="translate(281.415 59.729687)">Sample</text>
      <text style="font-size: 9px; font-family: 'SimHei', 'Microsoft YaHei', 'DejaVu Sans', sans-serif" transform="translate(272.415 68.364062)">Efficiency</text>
     </g>
    </g>
    <g id="xtick_4">
     <g id="line2d_4">
      <path d="M 294.915 328.945469 
L 115.68818 149.718648 
" clip-path="url(#pc438977f3f)" style="fill: none; stroke: #b0b0b0; stroke-width: 0.8; stroke-linecap: square"/>
     </g>
     <g id="text_4">
      <text style="font-size: 9px; font-family: 'SimHei', 'Microsoft YaHei', 'DejaVu Sans', sans-serif" transform="translate(74.288685 138.033216)">Implementation</text>
      <text style="font-size: 9px; font-family: 'SimHei', 'Microsoft YaHei', 'DejaVu Sans', sans-serif" transform="translate(83.288685 146.667591)">Simplicity</text>
     </g>
    </g>
    <g id="xtick_5">
     <g id="line2d_5">
      <path d="M 294.915 328.945469 
L 41.45 328.945469 
" clip-path="url(#pc438977f3f)" style="fill: none; stroke: #b0b0b0; stroke-width: 0.8; stroke-linecap: square"/>
     </g>
     <g id="text_5">
      <text style="font-size: 9px; font-family: 'SimHei', 'Microsoft YaHei', 'DejaVu Sans', sans-serif" transform="translate(9.45 327.159531)">Training</text>
      <text style="font-size: 9px; font-family: 'SimHei', 'Microsoft YaHei', 'DejaVu Sans', sans-serif" transform="translate(7.2 335.793906)">Stability</text>
     </g>
    </g>
    <g id="xtick_6">
     <g id="line2d_6">
      <path d="M 294.915 328.945469 
L 115.68818 508.172289 
" clip-path="url(#pc438977f3f)" style="fill: none; stroke: #b0b0b0; stroke-width: 0.8; stroke-linecap: square"/>
     </g>
     <g id="text_6">
      <text style="font-size: 9px; font-family: 'SimHei', 'Microsoft YaHei', 'DejaVu Sans', sans-serif" transform="translate(94.538685 516.328034)">Final</text>
      <text style="font-size: 9px; font-family: 'SimHei', 'Microsoft YaHei', 'DejaVu Sans', sans-serif" transform="translate(81.038685 524.878034)">Performance</text>
     </g>
    </g>
    <g id="xtick_7">
     <g id="line2d_7">
      <path d="M 294.915 328.945469 
L 294.915 582.410469 
" clip-path="url(#pc438977f3f)" style="fill: none; stroke: #b0b0b0; stroke-width: 0.8; stroke-linecap: square"/>
     </g>
     <g id="text_7">
      <text style="font-size: 9px; font-family: 'SimHei', 'Microsoft YaHei', 'DejaVu Sans', sans-serif; text-anchor: middle" x="294.915" y="598.976875" transform="rotate(-0 294.915 598.976875)">Scalability</text>
     </g>
    </g>
    <g id="xtick_8">
     <g id="line2d_8">
      <path d="M 294.915 328.945469 
L 474.14182 508.172289 
" clip-path="url(#pc438977f3f)" style="fill: none; stroke: #b0b0b0; stroke-width: 0.8; stroke-linecap: square"/>
     </g>
     <g id="text_8">
      <text style="font-size: 9px; font-family: 'SimHei', 'Microsoft YaHei', 'DejaVu Sans', sans-serif; text-anchor: middle" x="484.041315" y="520.63819" transform="rotate(-0 484.041315 520.63819)">Adaptability</text>
     </g>
    </g>
   </g>
   <g id="matplotlib.axis_2">
    <g id="ytick_1">
     <g id="line2d_9">
      <path d="M 345.608 328.945469 
C 345.608 322.288525 344.296727 315.696312 341.749225 309.546098 
C 339.201723 303.395883 335.467534 297.807275 330.760364 293.100105 
C 326.053194 288.392935 320.464585 284.658746 314.314371 282.111244 
C 308.164157 279.563742 301.571944 278.252469 294.915 278.252469 
C 288.258056 278.252469 281.665843 279.563742 275.515629 282.111244 
C 269.365415 284.658746 263.776806 288.392935 259.069636 293.100105 
C 254.362466 297.807275 250.628277 303.395883 248.080775 309.546098 
C 245.533273 315.696312 244.222 322.288525 244.222 328.945469 
C 244.222 335.602413 245.533273 342.194626 248.080775 348.34484 
C 250.628277 354.495054 254.362466 360.083663 259.069636 364.790833 
C 263.776806 369.498003 269.365415 373.232192 275.515629 375.779694 
C 281.665843 378.327196 288.258056 379.638469 294.915 379.638469 
C 301.571944 379.638469 308.164157 378.327196 314.314371 375.779694 
C 320.464585 373.232192 326.053194 369.498003 330.760364 364.790833 
C 335.467534 360.083663 339.201723 354.495054 341.749225 348.34484 
C 344.296727 342.194626 345.608 335.602413 345.608 328.945469 
" clip-path="url(#pc438977f3f)" style="fill: none; stroke: #b0b0b0; stroke-width: 0.8; stroke-linecap: square"/>
     </g>
     <g id="text_9">
      <text style="font-size: 8px; font-family: 'SimHei', 'Microsoft YaHei', 'DejaVu Sans', sans-serif; text-anchor: start" x="341.749225" y="308.546098" transform="rotate(-0 341.749225 308.546098)">2</text>
     </g>
    </g>
    <g id="ytick_2">
     <g id="line2d_10">
      <path d="M 396.301 328.945469 
C 396.301 315.631581 393.678454 302.447154 388.58345 290.146726 
C 383.488446 277.846298 376.020068 266.669081 366.605728 257.254741 
C 357.191388 247.8404 346.014171 240.372023 333.713742 235.277018 
C 321.413314 230.182014 308.228888 227.559469 294.915 227.559469 
C 281.601112 227.559469 268.416686 230.182014 256.116258 235.277018 
C 243.815829 240.372023 232.638612 247.8404 223.224272 257.254741 
C 213.809932 266.669081 206.341554 277.846298 201.24655 290.146726 
C 196.151546 302.447154 193.529 315.631581 193.529 328.945469 
C 193.529 342.259356 196.151546 355.443783 201.24655 367.744211 
C 206.341554 380.044639 213.809932 391.221857 223.224272 400.636197 
C 232.638612 410.050537 243.815829 417.518915 256.116258 422.613919 
C 268.416686 427.708923 281.601112 430.331469 294.915 430.331469 
C 308.228888 430.331469 321.413314 427.708923 333.713742 422.613919 
C 346.014171 417.518915 357.191388 410.050537 366.605728 400.636197 
C 376.020068 391.221857 383.488446 380.044639 388.58345 367.744211 
C 393.678454 355.443783 396.301 342.259356 396.301 328.945469 
" clip-path="url(#pc438977f3f)" style="fill: none; stroke: #b0b0b0; stroke-width: 0.8; stroke-linecap: square"/>
     </g>
     <g id="text_10">
      <text style="font-size: 8px; font-family: 'SimHei', 'Microsoft YaHei', 'DejaVu Sans', sans-serif; text-anchor: start" x="388.58345" y="289.146726" transform="rotate(-0 388.58345 289.146726)">4</text>
     </g>
    </g>
    <g id="ytick_3">
     <g id="line2d_11">
      <path d="M 446.994 328.945469 
C 446.994 308.974637 443.060182 289.197997 435.417675 270.747355 
C 427.775169 252.296713 416.572602 235.530887 402.451092 221.409377 
C 388.329582 207.287866 371.563756 196.0853 353.113114 188.442793 
C 334.662471 180.800287 314.885831 176.866469 294.915 176.866469 
C 274.944169 176.866469 255.167529 180.800287 236.716886 188.442793 
C 218.266244 196.0853 201.500418 207.287866 187.378908 221.409377 
C 173.257398 235.530887 162.054831 252.296713 154.412325 270.747355 
C 146.769818 289.197997 142.836 308.974637 142.836 328.945469 
C 142.836 348.9163 146.769818 368.69294 154.412325 387.143582 
C 162.054831 405.594225 173.257398 422.360051 187.378908 436.481561 
C 201.500418 450.603071 218.266244 461.805638 236.716886 469.448144 
C 255.167529 477.09065 274.944169 481.024469 294.915 481.024469 
C 314.885831 481.024469 334.662471 477.09065 353.113114 469.448144 
C 371.563756 461.805638 388.329582 450.603071 402.451092 436.481561 
C 416.572602 422.360051 427.775169 405.594225 435.417675 387.143582 
C 443.060182 368.69294 446.994 348.9163 446.994 328.945469 
" clip-path="url(#pc438977f3f)" style="fill: none; stroke: #b0b0b0; stroke-width: 0.8; stroke-linecap: square"/>
     </g>
     <g id="text_11">
      <text style="font-size: 8px; font-family: 'SimHei', 'Microsoft YaHei', 'DejaVu Sans', sans-serif; text-anchor: start" x="435.417675" y="269.747355" transform="rotate(-0 435.417675 269.747355)">6</text>
     </g>
    </g>
    <g id="ytick_4">
     <g id="line2d_12">
      <path d="M 497.687 328.945469 
C 497.687 302.317694 492.441909 275.94884 482.251901 251.347984 
C 472.061892 226.747127 457.125137 204.392693 438.296456 185.564013 
C 419.467776 166.735332 397.113341 151.798577 372.512485 141.608568 
C 347.911629 131.41856 321.542775 126.173469 294.915 126.173469 
C 268.287225 126.173469 241.918371 131.41856 217.317515 141.608568 
C 192.716659 151.798577 170.362224 166.735332 151.533544 185.564013 
C 132.704863 204.392693 117.768108 226.747127 107.578099 251.347984 
C 97.388091 275.94884 92.143 302.317694 92.143 328.945469 
C 92.143 355.573244 97.388091 381.942097 107.578099 406.542954 
C 117.768108 431.14381 132.704863 453.498245 151.533544 472.326925 
C 170.362224 491.155605 192.716659 506.092361 217.317515 516.282369 
C 241.918371 526.472378 268.287225 531.717469 294.915 531.717469 
C 321.542775 531.717469 347.911629 526.472378 372.512485 516.282369 
C 397.113341 506.092361 419.467776 491.155605 438.296456 472.326925 
C 457.125137 453.498245 472.061892 431.14381 482.251901 406.542954 
C 492.441909 381.942097 497.687 355.573244 497.687 328.945469 
" clip-path="url(#pc438977f3f)" style="fill: none; stroke: #b0b0b0; stroke-width: 0.8; stroke-linecap: square"/>
     </g>
     <g id="text_12">
      <text style="font-size: 8px; font-family: 'SimHei', 'Microsoft YaHei', 'DejaVu Sans', sans-serif; text-anchor: start" x="482.251901" y="250.347984" transform="rotate(-0 482.251901 250.347984)">8</text>
     </g>
    </g>
    <g id="ytick_5">
     <g id="line2d_13">
      <path d="M 548.38 328.945469 
C 548.38 295.66075 541.823636 262.699683 529.086126 231.948613 
C 516.348615 201.197542 497.677671 173.254499 474.14182 149.718648 
C 450.60597 126.182798 422.662927 107.511853 391.911856 94.774343 
C 361.160786 82.036833 328.199719 75.480469 294.915 75.480469 
C 261.630281 75.480469 228.669214 82.036833 197.918144 94.774343 
C 167.167073 107.511853 139.22403 126.182798 115.68818 149.718648 
C 92.152329 173.254499 73.481385 201.197542 60.743874 231.948613 
C 48.006364 262.699683 41.45 295.66075 41.45 328.945469 
C 41.45 362.230188 48.006364 395.191254 60.743874 425.942325 
C 73.481385 456.693395 92.152329 484.636439 115.68818 508.172289 
C 139.22403 531.708139 167.167073 550.379084 197.918144 563.116594 
C 228.669214 575.854105 261.630281 582.410469 294.915 582.410469 
C 328.199719 582.410469 361.160786 575.854105 391.911856 563.116594 
C 422.662927 550.379084 450.60597 531.708139 474.14182 508.172289 
C 497.677671 484.636439 516.348615 456.693395 529.086126 425.942325 
C 541.823636 395.191254 548.38 362.230188 548.38 328.945469 
" clip-path="url(#pc438977f3f)" style="fill: none; stroke: #b0b0b0; stroke-width: 0.8; stroke-linecap: square"/>
     </g>
     <g id="text_13">
      <text style="font-size: 8px; font-family: 'SimHei', 'Microsoft YaHei', 'DejaVu Sans', sans-serif; text-anchor: start" x="529.086126" y="230.948613" transform="rotate(-0 529.086126 230.948613)">10</text>
     </g>
    </g>
   </g>
   <g id="line2d_14">
    <path d="M 370.9545 328.945469 
L 366.605728 257.254741 
L 294.915 176.866469 
L 223.224272 257.254741 
L 142.836 328.945469 
L 169.456226 454.404243 
L 294.915 506.370969 
L 384.52841 418.558879 
L 370.9545 328.945469 
" clip-path="url(#pc438977f3f)" style="fill: none; stroke: #3498db; stroke-width: 2.5; stroke-linecap: square"/>
    <defs>
     <path id="m64274d984f" d="M 0 3 
C 0.795609 3 1.55874 2.683901 2.12132 2.12132 
C 2.683901 1.55874 3 0.795609 3 0 
C 3 -0.795609 2.683901 -1.55874 2.12132 -2.12132 
C 1.55874 -2.683901 0.795609 -3 0 -3 
C -0.795609 -3 -1.55874 -2.683901 -2.12132 -2.12132 
C -2.683901 -1.55874 -3 -0.795609 -3 0 
C -3 0.795609 -2.683901 1.55874 -2.12132 2.12132 
C -1.55874 2.683901 -0.795609 3 0 3 
z
" style="stroke: #3498db"/>
    </defs>
    <g clip-path="url(#pc438977f3f)">
     <use xlink:href="#m64274d984f" x="370.9545" y="328.945469" style="fill: #3498db; stroke: #3498db"/>
     <use xlink:href="#m64274d984f" x="366.605728" y="257.254741" style="fill: #3498db; stroke: #3498db"/>
     <use xlink:href="#m64274d984f" x="294.915" y="176.866469" style="fill: #3498db; stroke: #3498db"/>
     <use xlink:href="#m64274d984f" x="223.224272" y="257.254741" style="fill: #3498db; stroke: #3498db"/>
     <use xlink:href="#m64274d984f" x="142.836" y="328.945469" style="fill: #3498db; stroke: #3498db"/>
     <use xlink:href="#m64274d984f" x="169.456226" y="454.404243" style="fill: #3498db; stroke: #3498db"/>
     <use xlink:href="#m64274d984f" x="294.915" y="506.370969" style="fill: #3498db; stroke: #3498db"/>
     <use xlink:href="#m64274d984f" x="384.52841" y="418.558879" style="fill: #3498db; stroke: #3498db"/>
     <use xlink:href="#m64274d984f" x="370.9545" y="328.945469" style="fill: #3498db; stroke: #3498db"/>
    </g>
   </g>
   <g id="line2d_15">
    <path d="M 497.687 328.945469 
L 438.296456 185.564013 
L 294.915 176.866469 
L 133.610862 167.64133 
L 66.7965 328.945469 
L 187.378908 436.481561 
L 294.915 481.024469 
L 384.52841 418.558879 
L 497.687 328.945469 
" clip-path="url(#pc438977f3f)" style="fill: none; stroke: #e74c3c; stroke-width: 2.5; stroke-linecap: square"/>
    <defs>
     <path id="m1d2f14bae6" d="M 0 3 
C 0.795609 3 1.55874 2.683901 2.12132 2.12132 
C 2.683901 1.55874 3 0.795609 3 0 
C 3 -0.795609 2.683901 -1.55874 2.12132 -2.12132 
C 1.55874 -2.683901 0.795609 -3 0 -3 
C -0.795609 -3 -1.55874 -2.683901 -2.12132 -2.12132 
C -2.683901 -1.55874 -3 -0.795609 -3 0 
C -3 0.795609 -2.683901 1.55874 -2.12132 2.12132 
C -1.55874 2.683901 -0.795609 3 0 3 
z
" style="stroke: #e74c3c"/>
    </defs>
    <g clip-path="url(#pc438977f3f)">
     <use xlink:href="#m1d2f14bae6" x="497.687" y="328.945469" style="fill: #e74c3c; stroke: #e74c3c"/>
     <use xlink:href="#m1d2f14bae6" x="438.296456" y="185.564013" style="fill: #e74c3c; stroke: #e74c3c"/>
     <use xlink:href="#m1d2f14bae6" x="294.915" y="176.866469" style="fill: #e74c3c; stroke: #e74c3c"/>
     <use xlink:href="#m1d2f14bae6" x="133.610862" y="167.64133" style="fill: #e74c3c; stroke: #e74c3c"/>
     <use xlink:href="#m1d2f14bae6" x="66.7965" y="328.945469" style="fill: #e74c3c; stroke: #e74c3c"/>
     <use xlink:href="#m1d2f14bae6" x="187.378908" y="436.481561" style="fill: #e74c3c; stroke: #e74c3c"/>
     <use xlink:href="#m1d2f14bae6" x="294.915" y="481.024469" style="fill: #e74c3c; stroke: #e74c3c"/>
     <use xlink:href="#m1d2f14bae6" x="384.52841" y="418.558879" style="fill: #e74c3c; stroke: #e74c3c"/>
     <use xlink:href="#m1d2f14bae6" x="497.687" y="328.945469" style="fill: #e74c3c; stroke: #e74c3c"/>
    </g>
   </g>
   <g id="line2d_16">
    <path d="M 472.3405 328.945469 
L 420.373774 203.486695 
L 294.915 100.826969 
L 169.456226 203.486695 
L 92.143 328.945469 
L 133.610862 490.249607 
L 294.915 531.717469 
L 420.373774 454.404243 
L 472.3405 328.945469 
" clip-path="url(#pc438977f3f)" style="fill: none; stroke: #27ae60; stroke-width: 2.5; stroke-linecap: square"/>
    <defs>
     <path id="m2b274da32d" d="M 0 3 
C 0.795609 3 1.55874 2.683901 2.12132 2.12132 
C 2.683901 1.55874 3 0.795609 3 0 
C 3 -0.795609 2.683901 -1.55874 2.12132 -2.12132 
C 1.55874 -2.683901 0.795609 -3 0 -3 
C -0.795609 -3 -1.55874 -2.683901 -2.12132 -2.12132 
C -2.683901 -1.55874 -3 -0.795609 -3 0 
C -3 0.795609 -2.683901 1.55874 -2.12132 2.12132 
C -1.55874 2.683901 -0.795609 3 0 3 
z
" style="stroke: #27ae60"/>
    </defs>
    <g clip-path="url(#pc438977f3f)">
     <use xlink:href="#m2b274da32d" x="472.3405" y="328.945469" style="fill: #27ae60; stroke: #27ae60"/>
     <use xlink:href="#m2b274da32d" x="420.373774" y="203.486695" style="fill: #27ae60; stroke: #27ae60"/>
     <use xlink:href="#m2b274da32d" x="294.915" y="100.826969" style="fill: #27ae60; stroke: #27ae60"/>
     <use xlink:href="#m2b274da32d" x="169.456226" y="203.486695" style="fill: #27ae60; stroke: #27ae60"/>
     <use xlink:href="#m2b274da32d" x="92.143" y="328.945469" style="fill: #27ae60; stroke: #27ae60"/>
     <use xlink:href="#m2b274da32d" x="133.610862" y="490.249607" style="fill: #27ae60; stroke: #27ae60"/>
     <use xlink:href="#m2b274da32d" x="294.915" y="531.717469" style="fill: #27ae60; stroke: #27ae60"/>
     <use xlink:href="#m2b274da32d" x="420.373774" y="454.404243" style="fill: #27ae60; stroke: #27ae60"/>
     <use xlink:href="#m2b274da32d" x="472.3405" y="328.945469" style="fill: #27ae60; stroke: #27ae60"/>
    </g>
   </g>
   <g id="line2d_17">
    <path d="M 446.994 328.945469 
L 402.451092 221.409377 
L 294.915 126.173469 
L 205.30159 239.332059 
L 117.4895 328.945469 
L 115.68818 508.172289 
L 294.915 557.063969 
L 456.219138 490.249607 
L 446.994 328.945469 
" clip-path="url(#pc438977f3f)" style="fill: none; stroke: #9b59b6; stroke-width: 2.5; stroke-linecap: square"/>
    <defs>
     <path id="m1f008ca2fb" d="M 0 3 
C 0.795609 3 1.55874 2.683901 2.12132 2.12132 
C 2.683901 1.55874 3 0.795609 3 0 
C 3 -0.795609 2.683901 -1.55874 2.12132 -2.12132 
C 1.55874 -2.683901 0.795609 -3 0 -3 
C -0.795609 -3 -1.55874 -2.683901 -2.12132 -2.12132 
C -2.683901 -1.55874 -3 -0.795609 -3 0 
C -3 0.795609 -2.683901 1.55874 -2.12132 2.12132 
C -1.55874 2.683901 -0.795609 3 0 3 
z
" style="stroke: #9b59b6"/>
    </defs>
    <g clip-path="url(#pc438977f3f)">
     <use xlink:href="#m1f008ca2fb" x="446.994" y="328.945469" style="fill: #9b59b6; stroke: #9b59b6"/>
     <use xlink:href="#m1f008ca2fb" x="402.451092" y="221.409377" style="fill: #9b59b6; stroke: #9b59b6"/>
     <use xlink:href="#m1f008ca2fb" x="294.915" y="126.173469" style="fill: #9b59b6; stroke: #9b59b6"/>
     <use xlink:href="#m1f008ca2fb" x="205.30159" y="239.332059" style="fill: #9b59b6; stroke: #9b59b6"/>
     <use xlink:href="#m1f008ca2fb" x="117.4895" y="328.945469" style="fill: #9b59b6; stroke: #9b59b6"/>
     <use xlink:href="#m1f008ca2fb" x="115.68818" y="508.172289" style="fill: #9b59b6; stroke: #9b59b6"/>
     <use xlink:href="#m1f008ca2fb" x="294.915" y="557.063969" style="fill: #9b59b6; stroke: #9b59b6"/>
     <use xlink:href="#m1f008ca2fb" x="456.219138" y="490.249607" style="fill: #9b59b6; stroke: #9b59b6"/>
     <use xlink:href="#m1f008ca2fb" x="446.994" y="328.945469" style="fill: #9b59b6; stroke: #9b59b6"/>
    </g>
   </g>
   <g id="patch_7">
    <path d="M 548.38 328.945469 
C 548.38 295.66075 541.823636 262.699683 529.086126 231.948613 
C 516.348615 201.197542 497.677671 173.254499 474.14182 149.718648 
C 450.60597 126.182798 422.662927 107.511853 391.911856 94.774343 
C 361.160786 82.036833 328.199719 75.480469 294.915 75.480469 
C 261.630281 75.480469 228.669214 82.036833 197.918144 94.774343 
C 167.167073 107.511853 139.22403 126.182798 115.68818 149.718648 
C 92.152329 173.254499 73.481385 201.197542 60.743874 231.948613 
C 48.006364 262.699683 41.45 295.66075 41.45 328.945469 
C 41.45 362.230188 48.006364 395.191254 60.743874 425.942325 
C 73.481385 456.693395 92.152329 484.636439 115.68818 508.172289 
C 139.22403 531.708139 167.167073 550.379084 197.918144 563.116594 
C 228.669214 575.854105 261.630281 582.410469 294.915 582.410469 
C 328.199719 582.410469 361.160786 575.854105 391.911856 563.116594 
C 422.662927 550.379084 450.60597 531.708139 474.14182 508.172289 
C 497.677671 484.636439 516.348615 456.693395 529.086126 425.942325 
C 541.823636 395.191254 548.38 362.230188 548.38 328.945469 
" style="fill: none; stroke: #000000; stroke-width: 0.8; stroke-linejoin: miter; stroke-linecap: square"/>
   </g>
   <g id="text_14">
    <text style="font-weight: 700; font-size: 14px; font-family: 'SimHei', 'Microsoft YaHei', 'DejaVu Sans', sans-serif; fill: #2c3e50" transform="translate(147.915 18.1375)">Algorithm Performance Radar (8 Dimensions)</text>
    <text style="font-weight: 700; font-size: 14px; font-family: 'SimHei', 'Microsoft YaHei', 'DejaVu Sans', sans-serif; fill: #2c3e50" transform="translate(217.915 33.471875)">算法性能雷达图 (8维度)</text>
   </g>
   <g id="legend_1">
    <g id="patch_8">
     <path d="M 635.559 91.887469 
L 692.759 91.887469 
Q 694.959 91.887469 694.959 89.687469 
L 694.959 32.487469 
Q 694.959 30.287469 692.759 30.287469 
L 635.559 30.287469 
Q 633.359 30.287469 633.359 32.487469 
L 633.359 89.687469 
Q 633.359 91.887469 635.559 91.887469 
z
" style="fill: #ffffff; opacity: 0.8; stroke: #cccccc; stroke-linejoin: miter"/>
    </g>
    <g id="line2d_18">
     <path d="M 637.759 38.537469 
L 648.759 38.537469 
L 659.759 38.537469 
" style="fill: none; stroke: #3498db; stroke-width: 2.5; stroke-linecap: square"/>
     <g>
      <use xlink:href="#m64274d984f" x="648.759" y="38.537469" style="fill: #3498db; stroke: #3498db"/>
     </g>
    </g>
    <g id="text_15">
     <text style="font-size: 11px; font-family: 'SimHei', 'Microsoft YaHei', 'DejaVu Sans', sans-serif; text-anchor: start" x="668.559" y="42.387469" transform="rotate(-0 668.559 42.387469)">PPO</text>
    </g>
    <g id="line2d_19">
     <path d="M 637.759 53.112469 
L 648.759 53.112469 
L 659.759 53.112469 
" style="fill: none; stroke: #e74c3c; stroke-width: 2.5; stroke-linecap: square"/>
     <g>
      <use xlink:href="#m1d2f14bae6" x="648.759" y="53.112469" style="fill: #e74c3c; stroke: #e74c3c"/>
     </g>
    </g>
    <g id="text_16">
     <text style="font-size: 11px; font-family: 'SimHei', 'Microsoft YaHei', 'DejaVu Sans', sans-serif; text-anchor: start" x="668.559" y="56.962469" transform="rotate(-0 668.559 56.962469)">DPO</text>
    </g>
    <g id="line2d_20">
     <path d="M 637.759 67.687469 
L 648.759 67.687469 
L 659.759 67.687469 
" style="fill: none; stroke: #27ae60; stroke-width: 2.5; stroke-linecap: square"/>
     <g>
      <use xlink:href="#m2b274da32d" x="648.759" y="67.687469" style="fill: #27ae60; stroke: #27ae60"/>
     </g>
    </g>
    <g id="text_17">
     <text style="font-size: 11px; font-family: 'SimHei', 'Microsoft YaHei', 'DejaVu Sans', sans-serif; text-anchor: start" x="668.559" y="71.537469" transform="rotate(-0 668.559 71.537469)">GRPO</text>
    </g>
    <g id="line2d_21">
     <path d="M 637.759 82.262469 
L 648.759 82.262469 
L 659.759 82.262469 
" style="fill: none; stroke: #9b59b6; stroke-width: 2.5; stroke-linecap: square"/>
     <g>
      <use xlink:href="#m1f008ca2fb" x="648.759" y="82.262469" style="fill: #9b59b6; stroke: #9b59b6"/>
     </g>
    </g>
    <g id="text_18">
     <text style="font-size: 11px; font-family: 'SimHei', 'Microsoft YaHei', 'DejaVu Sans', sans-serif; text-anchor: start" x="668.559" y="86.112469" transform="rotate(-0 668.559 86.112469)">DAPO</text>
    </g>
   </g>
  </g>
 </g>
 <defs>
  <clipPath id="pc438977f3f">
   <path d="M 548.38 328.945469 
C 548.38 295.66075 541.823636 262.699683 529.086126 231.948613 
C 516.348615 201.197542 497.677671 173.254499 474.14182 149.718648 
C 450.60597 126.182798 422.662927 107.511853 391.911856 94.774343 
C 361.160786 82.036833 328.199719 75.480469 294.915 75.480469 
C 261.630281 75.480469 228.669214 82.036833 197.918144 94.774343 
C 167.167073 107.511853 139.22403 126.182798 115.68818 149.718648 
C 92.152329 173.254499 73.481385 201.197542 60.743874 231.948613 
C 48.006364 262.699683 41.45 295.66075 41.45 328.945469 
C 41.45 362.230188 48.006364 395.191254 60.743874 425.942325 
C 73.481385 456.693395 92.152329 484.636439 115.68818 508.172289 
C 139.22403 531.708139 167.167073 550.379084 197.918144 563.116594 
C 228.669214 575.854105 261.630281 582.410469 294.915 582.410469 
C 328.199719 582.410469 361.160786 575.854105 391.911856 563.116594 
C 422.662927 550.379084 450.60597 531.708139 474.14182 508.172289 
C 497.677671 484.636439 516.348615 456.693395 529.086126 425.942325 
C 541.823636 395.191254 548.38 362.230188 548.38 328.945469 
M 294.915 328.945469 
C 294.915 328.945469 294.915 328.945469 294.915 328.945469 
C 294.915 328.945469 294.915 328.945469 294.915 328.945469 
C 294.915 328.945469 294.915 328.945469 294.915 328.945469 
C 294.915 328.945469 294.915 328.945469 294.915 328.945469 
C 294.915 328.945469 294.915 328.945469 294.915 328.945469 
C 294.915 328.945469 294.915 328.945469 294.915 328.945469 
C 294.915 328.945469 294.915 328.945469 294.915 328.945469 
C 294.915 328.945469 294.915 328.945469 294.915 328.945469 
C 294.915 328.945469 294.915 328.945469 294.915 328.945469 
C 294.915 328.945469 294.915 328.945469 294.915 328.945469 
C 294.915 328.945469 294.915 328.945469 294.915 328.945469 
C 294.915 328.945469 294.915 328.945469 294.915 328.945469 
C 294.915 328.945469 294.915 328.945469 294.915 328.945469 
C 294.915 328.945469 294.915 328.945469 294.915 328.945469 
C 294.915 328.945469 294.915 328.945469 294.915 328.945469 
C 294.915 328.945469 294.915 328.945469 294.915 328.945469 
z
"/>
  </clipPath>
 </defs>
</svg>
